<?xml version="1.0" encoding="utf-8"?>
<!-- Generator: Adobe Illustrator 25.4.1, SVG Export Plug-In . SVG Version: 6.00 Build 0)  -->
<svg version="1.1" id="Calque_1" xmlns="http://www.w3.org/2000/svg" xmlns:xlink="http://www.w3.org/1999/xlink" x="0px" y="0px"
	 width="1000px" height="550px" viewBox="0 0 1000 550" style="enable-background:new 0 0 1000 550;" xml:space="preserve">
<style type="text/css">
	.st0{fill:#F9F6F2;stroke:#1D1D1B;stroke-miterlimit:10;}
	.st1{fill:#17271A;}
	.st2{fill:#242323;stroke:#1D1D1B;stroke-width:0.25;stroke-miterlimit:10;}
	.st3{fill:#EFDABB;stroke:#1D1D1B;stroke-width:0.25;stroke-miterlimit:10;}
	.st4{fill:#DBD6CB;stroke:#1D1D1B;stroke-width:0.25;stroke-miterlimit:10;}
	.st5{fill:#F7F0E4;stroke:#1D1D1B;stroke-width:0.25;stroke-miterlimit:10;}
	.st6{fill:#EF6507;stroke:#1D1D1B;stroke-width:0.25;stroke-miterlimit:10;}
	.st7{fill:#17271A;stroke:#1D1D1B;stroke-width:0.25;stroke-miterlimit:10;}
	.st8{fill:#908384;stroke:#1D1D1B;stroke-width:0.25;stroke-miterlimit:10;}
	.st9{fill:#FFFEFD;}
	.st10{fill:none;stroke:#1D1D1B;stroke-width:0.5;stroke-miterlimit:10;}
	.st11{fill:#EAE0D8;stroke:#1D1D1B;stroke-width:0.25;stroke-miterlimit:10;}
	.st12{fill:#F4EEEA;stroke:#1D1D1B;stroke-width:0.25;stroke-miterlimit:10;}
	.st13{fill:#3C4156;stroke:#1D1D1B;stroke-width:0.25;stroke-miterlimit:10;}
	.st14{fill:#161515;stroke:#1D1D1B;stroke-width:0.25;stroke-miterlimit:10;}
	.st15{fill:#ECBCFD;stroke:#1D1D1B;stroke-width:0.25;stroke-miterlimit:10;}
	.st16{fill:#F4A260;stroke:#1D1D1B;stroke-width:0.25;stroke-miterlimit:10;}
	.st17{fill:#026666;stroke:#1D1D1B;stroke-width:0.25;stroke-miterlimit:10;}
	.st18{fill:#88D4AB;stroke:#1D1D1B;stroke-width:0.25;stroke-miterlimit:10;}
	.st19{fill:#7C52A0;stroke:#1D1D1B;stroke-width:0.25;stroke-miterlimit:10;}
	.st20{fill:#EFBD59;stroke:#1D1D1B;stroke-width:0.25;stroke-miterlimit:10;}
	.st21{fill:#E55D42;stroke:#1D1D1B;stroke-width:0.25;stroke-miterlimit:10;}
	.st22{fill:#573200;stroke:#1D1D1B;stroke-width:0.25;stroke-miterlimit:10;}
	.st23{fill:#F2C799;stroke:#1D1D1B;stroke-width:0.25;stroke-miterlimit:10;}
	.st24{fill:#F9E1C0;stroke:#1D1D1B;stroke-width:0.25;stroke-miterlimit:10;}
	.st25{fill:#D4A176;stroke:#1D1D1B;stroke-width:0.25;stroke-miterlimit:10;}
	.st26{fill:#D9BF66;stroke:#1D1D1B;stroke-width:0.25;stroke-miterlimit:10;}
	.st27{fill:#131310;stroke:#1D1D1B;stroke-width:0.25;stroke-miterlimit:10;}
	.st28{fill:#0A5063;}
	.st29{fill:#69A59F;stroke:#1D1D1B;stroke-width:0.25;stroke-miterlimit:10;}
	.st30{fill:#398582;stroke:#1D1D1B;stroke-width:0.25;stroke-miterlimit:10;}
	.st31{fill:#9D9268;stroke:#1D1D1B;stroke-width:0.25;stroke-miterlimit:10;}
	.st32{fill:#5D94BD;stroke:#1D1D1B;stroke-width:0.25;stroke-miterlimit:10;}
	.st33{fill:#F6F5F6;stroke:#1D1D1B;stroke-width:0.25;stroke-miterlimit:10;}
</style>
<rect x="-0.02" class="st9" width="1000" height="550"/>
<g>
	<path d="M53.18,35.77c-0.44-0.3-0.95-0.46-1.55-0.46c-0.51,0-0.95,0.1-1.31,0.29c-0.36,0.19-0.66,0.45-0.9,0.77
		c-0.24,0.32-0.41,0.69-0.52,1.11c-0.11,0.42-0.17,0.85-0.17,1.3c0,0.49,0.06,0.95,0.17,1.39c0.11,0.44,0.29,0.82,0.52,1.14
		c0.24,0.32,0.54,0.58,0.91,0.77c0.37,0.19,0.81,0.29,1.32,0.29c0.38,0,0.71-0.06,1-0.19s0.54-0.3,0.76-0.52
		c0.21-0.22,0.38-0.48,0.5-0.79c0.12-0.3,0.19-0.63,0.22-0.98h1.14c-0.11,1.08-0.48,1.92-1.12,2.52c-0.63,0.6-1.5,0.9-2.59,0.9
		c-0.66,0-1.24-0.11-1.74-0.34c-0.5-0.23-0.91-0.54-1.24-0.94c-0.33-0.4-0.57-0.87-0.74-1.42c-0.16-0.54-0.25-1.13-0.25-1.75
		c0-0.62,0.09-1.21,0.26-1.76c0.18-0.55,0.43-1.03,0.77-1.43s0.76-0.73,1.27-0.97c0.51-0.24,1.09-0.35,1.75-0.35
		c0.45,0,0.87,0.06,1.27,0.18c0.4,0.12,0.76,0.3,1.07,0.53c0.31,0.23,0.57,0.52,0.78,0.87s0.34,0.75,0.41,1.21h-1.14
		C53.89,36.53,53.61,36.07,53.18,35.77z"/>
	<path d="M57.64,37.15c0.17-0.54,0.43-1.02,0.77-1.43c0.34-0.42,0.77-0.75,1.28-1s1.11-0.37,1.79-0.37c0.68,0,1.28,0.12,1.79,0.37
		s0.94,0.58,1.28,1c0.34,0.42,0.6,0.89,0.77,1.43c0.17,0.54,0.26,1.1,0.26,1.69s-0.09,1.15-0.26,1.69
		c-0.17,0.54-0.43,1.02-0.77,1.43c-0.34,0.42-0.77,0.75-1.28,0.99c-0.51,0.24-1.11,0.37-1.79,0.37c-0.68,0-1.28-0.12-1.79-0.37
		c-0.51-0.24-0.94-0.57-1.28-0.99c-0.34-0.42-0.6-0.89-0.77-1.43s-0.26-1.1-0.26-1.69S57.47,37.69,57.64,37.15z M58.69,40.12
		c0.11,0.42,0.29,0.8,0.53,1.13s0.55,0.61,0.92,0.81c0.38,0.2,0.82,0.31,1.34,0.31s0.97-0.1,1.34-0.31s0.68-0.47,0.92-0.81
		c0.24-0.34,0.42-0.71,0.53-1.13c0.11-0.42,0.17-0.85,0.17-1.28s-0.06-0.86-0.17-1.28c-0.11-0.42-0.29-0.8-0.53-1.13
		c-0.24-0.34-0.55-0.61-0.92-0.81s-0.82-0.31-1.34-0.31s-0.97,0.1-1.34,0.31c-0.38,0.2-0.68,0.47-0.92,0.81s-0.42,0.71-0.53,1.13
		c-0.11,0.42-0.17,0.85-0.17,1.28S58.58,39.7,58.69,40.12z"/>
	<path d="M69.32,34.55v7.61h4.54v0.96h-5.68v-8.57H69.32z"/>
	<path d="M75.83,37.15c0.17-0.54,0.43-1.02,0.77-1.43s0.77-0.75,1.28-1s1.11-0.37,1.79-0.37c0.68,0,1.28,0.12,1.79,0.37
		s0.94,0.58,1.28,1c0.34,0.42,0.6,0.89,0.77,1.43c0.17,0.54,0.26,1.1,0.26,1.69s-0.09,1.15-0.26,1.69s-0.43,1.02-0.77,1.43
		c-0.34,0.42-0.77,0.75-1.28,0.99c-0.51,0.24-1.11,0.37-1.79,0.37c-0.68,0-1.28-0.12-1.79-0.37c-0.51-0.24-0.94-0.57-1.28-0.99
		s-0.6-0.89-0.77-1.43s-0.26-1.1-0.26-1.69S75.66,37.69,75.83,37.15z M76.88,40.12c0.11,0.42,0.29,0.8,0.53,1.13
		s0.55,0.61,0.92,0.81s0.82,0.31,1.34,0.31c0.52,0,0.97-0.1,1.34-0.31c0.38-0.2,0.68-0.47,0.92-0.81s0.42-0.71,0.53-1.13
		c0.11-0.42,0.17-0.85,0.17-1.28s-0.06-0.86-0.17-1.28c-0.11-0.42-0.29-0.8-0.53-1.13s-0.55-0.61-0.92-0.81
		c-0.38-0.2-0.82-0.31-1.34-0.31c-0.52,0-0.97,0.1-1.34,0.31s-0.68,0.47-0.92,0.81s-0.42,0.71-0.53,1.13
		c-0.11,0.42-0.17,0.85-0.17,1.28S76.77,39.7,76.88,40.12z"/>
	<path d="M90.41,34.55c0.82,0,1.46,0.2,1.91,0.6c0.46,0.4,0.69,0.95,0.69,1.64c0,0.52-0.12,0.98-0.35,1.37
		c-0.24,0.39-0.61,0.66-1.13,0.8v0.02c0.25,0.05,0.45,0.13,0.61,0.24c0.16,0.11,0.28,0.25,0.37,0.4c0.09,0.16,0.16,0.33,0.2,0.52
		c0.04,0.19,0.08,0.39,0.1,0.6c0.02,0.21,0.03,0.42,0.04,0.64c0.01,0.22,0.03,0.43,0.06,0.64c0.03,0.21,0.08,0.41,0.14,0.59
		c0.06,0.19,0.15,0.35,0.27,0.5h-1.27c-0.08-0.09-0.13-0.21-0.16-0.36c-0.03-0.15-0.05-0.32-0.05-0.51
		c-0.01-0.19-0.02-0.39-0.02-0.61c-0.01-0.22-0.03-0.43-0.07-0.64c-0.03-0.21-0.07-0.41-0.12-0.59c-0.05-0.19-0.12-0.35-0.23-0.49
		s-0.24-0.25-0.41-0.34s-0.39-0.13-0.67-0.13h-2.78v3.66h-1.14v-8.57H90.41z M90.65,38.44c0.24-0.04,0.45-0.12,0.63-0.23
		s0.32-0.27,0.43-0.47c0.11-0.2,0.16-0.45,0.16-0.76c0-0.43-0.12-0.78-0.36-1.06c-0.24-0.27-0.63-0.41-1.16-0.41h-2.83v2.99h2.38
		C90.15,38.5,90.41,38.48,90.65,38.44z"/>
	<path d="M96.98,34.55v8.57h-1.14v-8.57H96.98z"/>
	<path d="M101.69,34.55l2.7,7.2l2.71-7.2h1.56v8.57h-1.08v-7.13h-0.02l-2.68,7.13h-0.97l-2.68-7.13h-0.02v7.13h-1.08v-8.57H101.69z"
		/>
	<path d="M117.67,34.55v0.96h-4.78v2.72h4.45v0.96h-4.45v2.96h4.81v0.96h-5.95v-8.57H117.67z M114.91,32l-1.15,1.94h0.77l1.69-1.94
		H114.91z"/>
	<path d="M119.38,35.51v-0.96h6.85v0.96h-2.86v7.61h-1.14v-7.61H119.38z"/>
	<path d="M132.41,34.55c0.82,0,1.45,0.2,1.91,0.6c0.46,0.4,0.69,0.95,0.69,1.64c0,0.52-0.12,0.98-0.35,1.37s-0.61,0.66-1.13,0.8
		v0.02c0.25,0.05,0.45,0.13,0.61,0.24c0.16,0.11,0.28,0.25,0.37,0.4s0.16,0.33,0.2,0.52c0.04,0.19,0.08,0.39,0.1,0.6
		c0.02,0.21,0.03,0.42,0.04,0.64s0.03,0.43,0.06,0.64c0.03,0.21,0.08,0.41,0.14,0.59c0.06,0.19,0.15,0.35,0.27,0.5h-1.27
		c-0.08-0.09-0.13-0.21-0.16-0.36c-0.03-0.15-0.05-0.32-0.05-0.51c-0.01-0.19-0.02-0.39-0.02-0.61c-0.01-0.22-0.03-0.43-0.07-0.64
		c-0.03-0.21-0.07-0.41-0.12-0.59c-0.05-0.19-0.12-0.35-0.23-0.49s-0.24-0.25-0.41-0.34c-0.17-0.08-0.39-0.13-0.67-0.13h-2.78v3.66
		h-1.14v-8.57H132.41z M132.65,38.44c0.24-0.04,0.45-0.12,0.63-0.23c0.18-0.12,0.32-0.27,0.43-0.47c0.11-0.2,0.16-0.45,0.16-0.76
		c0-0.43-0.12-0.78-0.36-1.06c-0.24-0.27-0.63-0.41-1.16-0.41h-2.83v2.99h2.38C132.15,38.5,132.41,38.48,132.65,38.44z"/>
	<path d="M138.98,34.55v8.57h-1.14v-8.57H138.98z"/>
	<path d="M148.02,34.55v0.96h-4.78v2.72h4.45v0.96h-4.45v2.96h4.81v0.96h-5.95v-8.57H148.02z"/>
</g>
<line class="st10" x1="47.06" y1="55.22" x2="952.9" y2="55.22"/>
<rect x="440.16" y="366.84" class="st15" width="49.56" height="48.09"/>
<rect x="440.16" y="158.25" class="st6" width="49.56" height="48.09"/>
<rect x="504.37" y="158.25" class="st16" width="49.56" height="48.09"/>
<rect x="375.95" y="262.54" class="st17" width="49.56" height="48.09"/>
<rect x="440.16" y="262.54" class="st18" width="49.56" height="48.09"/>
<rect x="375.95" y="366.84" class="st19" width="49.56" height="48.09"/>
<rect x="504.37" y="262.54" class="st20" width="49.56" height="48.09"/>
<g>
	<path d="M446.94,215.15h0.26l-0.25,1.76h1.35l0.25-1.76h0.26l-0.25,1.76h0.88l-0.04,0.26h-0.88l-0.19,1.38h0.89l-0.04,0.26h-0.89
		l-0.26,1.85h-0.26l0.26-1.85h-1.35l-0.26,1.85h-0.26l0.26-1.85h-0.94l0.04-0.26h0.94l0.19-1.38h-0.94l0.04-0.26h0.94L446.94,215.15
		z M446.72,218.56h1.35l0.19-1.38h-1.35L446.72,218.56z"/>
	<path d="M451.64,214.96h3.73l-0.07,0.3h-3.37l-0.48,2.29h3.14l-0.06,0.3h-3.14l-0.53,2.51h3.47l-0.06,0.3h-3.82L451.64,214.96z"/>
	<path d="M456.88,214.96h3.58l-0.06,0.3h-3.23l-0.48,2.29h2.9l-0.06,0.3h-2.9l-0.58,2.82h-0.35L456.88,214.96z"/>
	<path d="M464.56,216.55c0-0.42-0.11-0.73-0.32-0.93c-0.21-0.2-0.52-0.3-0.93-0.3c-0.23,0-0.43,0.04-0.62,0.12
		c-0.18,0.08-0.34,0.19-0.48,0.34c-0.14,0.14-0.26,0.3-0.37,0.48c-0.11,0.18-0.2,0.37-0.27,0.57c-0.07,0.2-0.14,0.4-0.19,0.6
		c-0.05,0.2-0.1,0.39-0.14,0.56l0.02,0.02c0.16-0.32,0.38-0.56,0.66-0.73c0.28-0.17,0.6-0.25,0.96-0.25c0.24,0,0.46,0.04,0.66,0.12
		c0.2,0.08,0.37,0.19,0.52,0.34c0.14,0.14,0.26,0.32,0.34,0.52s0.12,0.42,0.12,0.66c0,0.28-0.05,0.55-0.14,0.8
		c-0.09,0.25-0.22,0.48-0.39,0.67s-0.37,0.35-0.61,0.46c-0.24,0.12-0.51,0.17-0.8,0.17c-0.3,0-0.56-0.05-0.77-0.14
		c-0.22-0.09-0.39-0.22-0.53-0.39c-0.14-0.17-0.24-0.36-0.31-0.6c-0.07-0.23-0.1-0.48-0.1-0.76c0-0.24,0.02-0.5,0.06-0.78
		c0.04-0.28,0.1-0.56,0.18-0.85c0.08-0.28,0.19-0.56,0.32-0.82c0.13-0.26,0.29-0.5,0.47-0.7c0.18-0.21,0.4-0.37,0.64-0.49
		c0.24-0.12,0.52-0.18,0.82-0.18c0.47,0,0.84,0.13,1.1,0.38c0.27,0.26,0.4,0.63,0.4,1.11H464.56z M462.58,220.5
		c0.26,0,0.49-0.05,0.7-0.16c0.2-0.1,0.37-0.24,0.51-0.42c0.14-0.17,0.24-0.37,0.31-0.59s0.11-0.45,0.11-0.69
		c0-0.21-0.04-0.4-0.11-0.57s-0.17-0.31-0.3-0.43c-0.13-0.12-0.28-0.21-0.45-0.27s-0.36-0.09-0.56-0.09c-0.24,0-0.46,0.05-0.66,0.15
		c-0.2,0.1-0.37,0.23-0.52,0.4c-0.14,0.17-0.25,0.36-0.33,0.57c-0.08,0.22-0.12,0.44-0.12,0.67c0,0.21,0.03,0.41,0.1,0.58
		c0.07,0.18,0.16,0.33,0.28,0.45c0.12,0.13,0.27,0.22,0.44,0.29C462.17,220.47,462.36,220.5,462.58,220.5z"/>
	<path d="M467.37,215.15h2.86l-0.08,0.26h-2.6l-0.74,2.13l0.02,0.02c0.14-0.18,0.33-0.32,0.58-0.43s0.5-0.16,0.75-0.16
		c0.5,0,0.89,0.13,1.18,0.4s0.44,0.66,0.44,1.18c0,0.31-0.05,0.61-0.14,0.88s-0.23,0.5-0.41,0.7s-0.39,0.36-0.65,0.47
		c-0.25,0.11-0.54,0.17-0.84,0.17c-0.29,0-0.54-0.04-0.74-0.12c-0.21-0.08-0.38-0.19-0.52-0.32s-0.24-0.27-0.3-0.42
		c-0.07-0.16-0.1-0.31-0.11-0.46c0-0.11,0-0.19,0-0.26c0.01-0.07,0.01-0.13,0.02-0.2h0.3c-0.01,0.07-0.02,0.13-0.02,0.19
		c0,0.06,0,0.12,0,0.2c0,0.11,0.02,0.23,0.07,0.36c0.05,0.13,0.13,0.25,0.23,0.37c0.11,0.12,0.25,0.21,0.42,0.29
		c0.17,0.08,0.39,0.12,0.64,0.12c0.27,0,0.52-0.05,0.73-0.16c0.22-0.1,0.4-0.24,0.55-0.42s0.26-0.38,0.34-0.6s0.12-0.47,0.12-0.72
		c0-0.21-0.03-0.4-0.1-0.57s-0.16-0.31-0.28-0.43s-0.26-0.21-0.42-0.28c-0.16-0.06-0.33-0.1-0.51-0.1c-0.63,0-1.11,0.25-1.43,0.74
		l-0.33-0.02L467.37,215.15z"/>
	<path d="M472.96,220.77c-0.32,0-0.58-0.06-0.79-0.17c-0.21-0.11-0.37-0.26-0.49-0.45c-0.12-0.18-0.2-0.39-0.25-0.61
		c-0.05-0.22-0.07-0.44-0.07-0.66c0-0.23,0.02-0.49,0.06-0.77c0.04-0.28,0.1-0.56,0.18-0.85s0.19-0.56,0.32-0.82
		c0.13-0.26,0.28-0.5,0.46-0.7c0.18-0.21,0.38-0.37,0.62-0.49c0.24-0.12,0.5-0.18,0.79-0.18c0.29,0,0.54,0.05,0.74,0.15
		s0.37,0.23,0.5,0.4s0.23,0.37,0.29,0.6s0.09,0.47,0.09,0.74c0,0.24-0.02,0.49-0.06,0.77s-0.1,0.56-0.18,0.84
		c-0.08,0.28-0.18,0.56-0.31,0.82s-0.28,0.5-0.46,0.71s-0.39,0.37-0.63,0.5S473.25,220.77,472.96,220.77z M472.89,220.5
		c0.27,0,0.52-0.06,0.73-0.18c0.22-0.12,0.41-0.28,0.57-0.47c0.16-0.19,0.3-0.42,0.42-0.67c0.12-0.25,0.21-0.51,0.28-0.77
		c0.08-0.26,0.13-0.52,0.16-0.78s0.05-0.49,0.05-0.7c0-0.22-0.02-0.43-0.06-0.63c-0.04-0.2-0.12-0.37-0.22-0.52
		c-0.1-0.15-0.23-0.26-0.4-0.34c-0.17-0.08-0.37-0.12-0.62-0.12c-0.34,0-0.64,0.1-0.9,0.3c-0.27,0.2-0.49,0.47-0.68,0.8
		c-0.18,0.33-0.32,0.71-0.42,1.14c-0.1,0.43-0.14,0.86-0.14,1.31c0,0.19,0.02,0.38,0.06,0.58c0.04,0.19,0.11,0.37,0.21,0.52
		c0.1,0.16,0.23,0.28,0.38,0.38C472.48,220.46,472.67,220.5,472.89,220.5z"/>
	<path d="M477.39,215.15h3.5l-0.07,0.3c-0.74,0.75-1.38,1.56-1.92,2.43c-0.55,0.87-0.98,1.8-1.3,2.79h-0.35
		c0.14-0.49,0.33-0.97,0.55-1.44c0.22-0.47,0.48-0.92,0.76-1.36c0.28-0.44,0.58-0.87,0.91-1.28c0.33-0.41,0.67-0.8,1.03-1.18h-3.16
		L477.39,215.15z"/>
</g>
<g>
	<path d="M447.94,318.9h0.26l-0.25,1.76h1.35l0.25-1.76h0.26l-0.25,1.76h0.88l-0.04,0.26h-0.88l-0.19,1.38h0.89l-0.04,0.26h-0.89
		l-0.26,1.85h-0.26l0.26-1.85h-1.35l-0.26,1.85h-0.26l0.26-1.85h-0.94l0.04-0.26h0.94l0.19-1.38h-0.94l0.04-0.26h0.94L447.94,318.9z
		 M447.72,322.31h1.35l0.19-1.38h-1.35L447.72,322.31z"/>
	<path d="M453.33,324.51c-0.23,0-0.45-0.03-0.66-0.09c-0.21-0.06-0.4-0.15-0.56-0.28c-0.16-0.12-0.29-0.28-0.39-0.46
		c-0.1-0.18-0.15-0.4-0.15-0.65s0.04-0.47,0.12-0.66s0.19-0.35,0.34-0.48c0.14-0.13,0.31-0.24,0.51-0.31
		c0.2-0.08,0.41-0.12,0.64-0.15v-0.02c-0.12-0.03-0.23-0.08-0.33-0.15s-0.2-0.15-0.27-0.25c-0.08-0.1-0.14-0.2-0.18-0.32
		c-0.05-0.12-0.07-0.24-0.07-0.37c0-0.26,0.05-0.48,0.14-0.67c0.1-0.19,0.23-0.35,0.39-0.47c0.17-0.12,0.36-0.22,0.57-0.28
		c0.21-0.06,0.44-0.1,0.67-0.1c0.2,0,0.39,0.03,0.58,0.08c0.19,0.06,0.35,0.14,0.5,0.24s0.26,0.24,0.35,0.41
		c0.09,0.17,0.13,0.35,0.13,0.57c0,0.19-0.03,0.37-0.1,0.53c-0.07,0.16-0.16,0.3-0.27,0.42c-0.11,0.12-0.25,0.22-0.41,0.29
		c-0.16,0.08-0.33,0.12-0.52,0.14v0.02c0.67,0.19,1,0.63,1,1.34c0,0.27-0.06,0.51-0.18,0.72s-0.27,0.38-0.46,0.52
		s-0.4,0.25-0.64,0.32C453.82,324.48,453.58,324.51,453.33,324.51z M453.35,324.25c0.22,0,0.44-0.03,0.64-0.09s0.39-0.16,0.54-0.28
		c0.16-0.12,0.28-0.28,0.37-0.46s0.14-0.39,0.14-0.63c0-0.21-0.04-0.39-0.14-0.54s-0.21-0.27-0.35-0.36
		c-0.14-0.09-0.31-0.16-0.49-0.2c-0.18-0.04-0.37-0.06-0.56-0.06c-0.21,0-0.42,0.03-0.61,0.09c-0.2,0.06-0.37,0.15-0.52,0.26
		s-0.27,0.26-0.36,0.43c-0.09,0.17-0.14,0.37-0.14,0.6c0,0.21,0.04,0.4,0.12,0.56s0.19,0.29,0.32,0.39c0.14,0.1,0.29,0.18,0.47,0.23
		S453.15,324.25,453.35,324.25z M454.08,319.07c-0.19,0-0.37,0.03-0.55,0.08c-0.18,0.05-0.34,0.13-0.47,0.23s-0.25,0.23-0.33,0.38
		c-0.08,0.16-0.12,0.33-0.12,0.54c0,0.19,0.04,0.35,0.1,0.48c0.07,0.13,0.16,0.24,0.28,0.32c0.12,0.09,0.25,0.15,0.4,0.19
		s0.31,0.06,0.48,0.07c0.19,0,0.38-0.02,0.55-0.07c0.18-0.05,0.33-0.12,0.46-0.22c0.13-0.1,0.24-0.23,0.32-0.38
		c0.08-0.15,0.12-0.34,0.12-0.56c0-0.18-0.03-0.33-0.1-0.46c-0.07-0.13-0.16-0.24-0.28-0.32c-0.11-0.09-0.25-0.15-0.4-0.19
		C454.4,319.09,454.24,319.07,454.08,319.07z"/>
	<path d="M458.58,324.51c-0.23,0-0.45-0.03-0.66-0.09c-0.21-0.06-0.4-0.15-0.56-0.28c-0.16-0.12-0.29-0.28-0.39-0.46
		c-0.1-0.18-0.15-0.4-0.15-0.65s0.04-0.47,0.12-0.66c0.08-0.19,0.19-0.35,0.34-0.48c0.14-0.13,0.31-0.24,0.51-0.31
		c0.2-0.08,0.41-0.12,0.64-0.15v-0.02c-0.12-0.03-0.23-0.08-0.33-0.15s-0.2-0.15-0.27-0.25c-0.08-0.1-0.14-0.2-0.18-0.32
		c-0.04-0.12-0.07-0.24-0.07-0.37c0-0.26,0.05-0.48,0.14-0.67c0.1-0.19,0.23-0.35,0.39-0.47c0.17-0.12,0.36-0.22,0.57-0.28
		c0.21-0.06,0.44-0.1,0.67-0.1c0.2,0,0.39,0.03,0.58,0.08c0.19,0.06,0.35,0.14,0.5,0.24c0.14,0.11,0.26,0.24,0.35,0.41
		c0.09,0.17,0.13,0.35,0.13,0.57c0,0.19-0.03,0.37-0.1,0.53c-0.07,0.16-0.16,0.3-0.27,0.42c-0.12,0.12-0.25,0.22-0.41,0.29
		c-0.16,0.08-0.33,0.12-0.52,0.14v0.02c0.67,0.19,1,0.63,1,1.34c0,0.27-0.06,0.51-0.18,0.72s-0.27,0.38-0.46,0.52
		s-0.4,0.25-0.64,0.32C459.07,324.48,458.83,324.51,458.58,324.51z M458.6,324.25c0.22,0,0.44-0.03,0.64-0.09
		c0.21-0.06,0.38-0.16,0.54-0.28c0.15-0.12,0.28-0.28,0.37-0.46c0.09-0.18,0.14-0.39,0.14-0.63c0-0.21-0.05-0.39-0.14-0.54
		c-0.09-0.15-0.21-0.27-0.35-0.36c-0.14-0.09-0.31-0.16-0.49-0.2c-0.18-0.04-0.37-0.06-0.56-0.06c-0.21,0-0.42,0.03-0.61,0.09
		s-0.37,0.15-0.52,0.26c-0.15,0.12-0.27,0.26-0.36,0.43c-0.09,0.17-0.14,0.37-0.14,0.6c0,0.21,0.04,0.4,0.12,0.56
		s0.19,0.29,0.32,0.39c0.14,0.1,0.29,0.18,0.47,0.23S458.4,324.25,458.6,324.25z M459.33,319.07c-0.19,0-0.37,0.03-0.55,0.08
		c-0.18,0.05-0.34,0.13-0.47,0.23c-0.14,0.1-0.25,0.23-0.33,0.38c-0.08,0.16-0.12,0.33-0.12,0.54c0,0.19,0.03,0.35,0.1,0.48
		c0.07,0.13,0.16,0.24,0.28,0.32c0.12,0.09,0.25,0.15,0.4,0.19c0.15,0.04,0.31,0.06,0.48,0.07c0.19,0,0.38-0.02,0.55-0.07
		c0.18-0.05,0.33-0.12,0.46-0.22c0.13-0.1,0.24-0.23,0.32-0.38s0.12-0.34,0.12-0.56c0-0.18-0.04-0.33-0.1-0.46
		c-0.07-0.13-0.16-0.24-0.28-0.32c-0.12-0.09-0.25-0.15-0.4-0.19C459.65,319.09,459.49,319.07,459.33,319.07z"/>
	<path d="M463.15,318.71H465c0.38,0,0.71,0.05,0.98,0.15c0.27,0.1,0.48,0.25,0.65,0.45s0.29,0.44,0.37,0.72s0.12,0.61,0.12,0.98
		c0,0.41-0.07,0.82-0.2,1.22c-0.13,0.41-0.33,0.77-0.59,1.1c-0.26,0.33-0.58,0.59-0.96,0.79c-0.38,0.2-0.82,0.3-1.31,0.3h-2.1
		L463.15,318.71z M462.36,324.11H464c0.33,0,0.63-0.05,0.89-0.14c0.26-0.09,0.5-0.21,0.7-0.37c0.2-0.16,0.38-0.34,0.52-0.55
		s0.27-0.43,0.36-0.66c0.09-0.23,0.16-0.46,0.21-0.7c0.04-0.24,0.07-0.47,0.07-0.69c0-0.33-0.03-0.61-0.1-0.86
		c-0.06-0.25-0.17-0.46-0.31-0.63c-0.14-0.17-0.33-0.29-0.57-0.38c-0.24-0.08-0.52-0.13-0.86-0.13h-1.48L462.36,324.11z"/>
	<path d="M468.29,322.7l3.49-3.8h0.34l-0.82,3.85h0.9l-0.06,0.26h-0.89l-0.3,1.41h-0.32l0.3-1.41h-2.69L468.29,322.7z
		 M470.97,322.75l0.74-3.35h-0.02l-3.06,3.35H470.97z"/>
	<path d="M476.4,318.71h0.37l1.06,5.71h-0.35l-0.33-1.83h-2.76l-1.1,1.83h-0.4L476.4,318.71z M474.57,322.28h2.52l-0.58-3.22
		L474.57,322.28z"/>
	<path d="M480.37,318.71h2.08c0.24,0,0.46,0.02,0.66,0.05c0.2,0.04,0.37,0.1,0.52,0.19c0.15,0.09,0.26,0.22,0.34,0.38
		s0.12,0.37,0.12,0.63c0,0.41-0.12,0.74-0.37,1c-0.25,0.26-0.58,0.42-1,0.47v0.02c0.71,0.11,1.06,0.53,1.06,1.25
		c0,0.2-0.04,0.4-0.11,0.6c-0.08,0.2-0.19,0.39-0.36,0.55c-0.16,0.17-0.38,0.3-0.64,0.41c-0.26,0.11-0.59,0.16-0.97,0.16h-2.55
		L480.37,318.71z M479.57,324.11h2.14c0.27,0,0.52-0.04,0.73-0.1s0.4-0.17,0.54-0.3s0.26-0.28,0.34-0.46s0.12-0.37,0.12-0.58
		c0-0.39-0.11-0.67-0.34-0.83c-0.22-0.16-0.58-0.24-1.08-0.24h-1.91L479.57,324.11z M480.17,321.3h1.91c0.51,0,0.92-0.11,1.21-0.34
		c0.3-0.23,0.44-0.55,0.44-0.96c0-0.22-0.03-0.39-0.1-0.52c-0.07-0.13-0.16-0.23-0.28-0.3s-0.26-0.11-0.42-0.13
		c-0.16-0.02-0.34-0.03-0.52-0.03h-1.76L480.17,321.3z"/>
</g>
<g>
	<path d="M382.95,318.9h0.26l-0.25,1.76h1.35l0.25-1.76h0.26l-0.25,1.76h0.88l-0.04,0.26h-0.88l-0.19,1.38h0.89l-0.04,0.26h-0.89
		l-0.26,1.85h-0.26l0.26-1.85h-1.35l-0.26,1.85h-0.26l0.26-1.85h-0.94l0.04-0.26h0.94l0.19-1.38h-0.94l0.04-0.26h0.94L382.95,318.9z
		 M382.74,322.31h1.35l0.19-1.38h-1.35L382.74,322.31z"/>
	<path d="M388.27,324.51c-0.32,0-0.58-0.06-0.79-0.17c-0.21-0.11-0.37-0.26-0.49-0.45c-0.12-0.18-0.2-0.39-0.25-0.61
		c-0.04-0.22-0.07-0.44-0.07-0.66c0-0.23,0.02-0.49,0.06-0.77c0.04-0.28,0.1-0.56,0.18-0.85c0.08-0.29,0.19-0.56,0.32-0.82
		c0.13-0.26,0.28-0.5,0.46-0.7c0.18-0.21,0.39-0.37,0.62-0.49c0.23-0.12,0.5-0.18,0.79-0.18c0.29,0,0.53,0.05,0.74,0.15
		c0.21,0.1,0.37,0.23,0.5,0.4s0.23,0.37,0.29,0.6c0.06,0.23,0.09,0.47,0.09,0.74c0,0.24-0.02,0.49-0.06,0.77
		c-0.04,0.28-0.1,0.56-0.18,0.84c-0.08,0.28-0.18,0.56-0.31,0.82s-0.28,0.5-0.46,0.71c-0.18,0.21-0.39,0.37-0.63,0.5
		C388.84,324.45,388.57,324.51,388.27,324.51z M388.21,324.25c0.27,0,0.52-0.06,0.73-0.18s0.41-0.28,0.57-0.47
		c0.16-0.19,0.3-0.42,0.42-0.67c0.11-0.25,0.21-0.51,0.28-0.77c0.07-0.26,0.13-0.52,0.16-0.78c0.03-0.26,0.05-0.49,0.05-0.7
		c0-0.22-0.02-0.43-0.06-0.63s-0.11-0.37-0.22-0.52s-0.24-0.26-0.4-0.34c-0.17-0.08-0.37-0.12-0.62-0.12c-0.34,0-0.64,0.1-0.9,0.3
		c-0.27,0.2-0.49,0.47-0.68,0.8c-0.18,0.33-0.32,0.71-0.42,1.14c-0.1,0.43-0.14,0.86-0.14,1.31c0,0.19,0.02,0.38,0.06,0.58
		c0.04,0.19,0.11,0.37,0.21,0.52c0.1,0.16,0.23,0.28,0.38,0.38C387.79,324.2,387.98,324.25,388.21,324.25z"/>
	<path d="M395.2,324.42h-3.62c0.02-0.27,0.08-0.5,0.19-0.72s0.25-0.4,0.42-0.57s0.36-0.32,0.56-0.46c0.21-0.14,0.42-0.26,0.63-0.38
		c0.27-0.15,0.54-0.29,0.8-0.44c0.26-0.14,0.49-0.29,0.7-0.44c0.2-0.15,0.37-0.33,0.49-0.52s0.18-0.41,0.18-0.65
		c0-0.37-0.11-0.66-0.34-0.87s-0.52-0.32-0.89-0.32c-0.25,0-0.46,0.04-0.65,0.13c-0.19,0.08-0.35,0.2-0.49,0.35
		c-0.14,0.15-0.24,0.32-0.32,0.52c-0.08,0.2-0.12,0.42-0.14,0.66h-0.3c0.01-0.28,0.06-0.53,0.15-0.77s0.22-0.44,0.38-0.61
		s0.36-0.3,0.59-0.4c0.23-0.1,0.49-0.14,0.77-0.14c0.22,0,0.42,0.03,0.61,0.1c0.19,0.06,0.35,0.16,0.49,0.28
		c0.14,0.12,0.25,0.27,0.32,0.45s0.12,0.38,0.12,0.61c0,0.27-0.05,0.5-0.15,0.7s-0.23,0.37-0.4,0.53c-0.17,0.15-0.35,0.29-0.57,0.42
		c-0.21,0.12-0.43,0.24-0.65,0.36c-0.23,0.12-0.46,0.25-0.69,0.38s-0.44,0.27-0.64,0.42c-0.2,0.15-0.37,0.32-0.51,0.5
		c-0.14,0.18-0.25,0.39-0.3,0.62h3.3L395.2,324.42z"/>
	<path d="M400.86,320.3c0-0.42-0.11-0.73-0.32-0.93c-0.21-0.2-0.52-0.3-0.93-0.3c-0.23,0-0.43,0.04-0.62,0.12
		c-0.18,0.08-0.34,0.19-0.48,0.34c-0.14,0.14-0.26,0.3-0.37,0.48c-0.11,0.18-0.2,0.37-0.27,0.57c-0.07,0.2-0.14,0.4-0.19,0.6
		c-0.05,0.2-0.1,0.39-0.14,0.56l0.02,0.02c0.16-0.32,0.38-0.56,0.66-0.73c0.28-0.17,0.6-0.25,0.96-0.25c0.24,0,0.46,0.04,0.66,0.12
		c0.2,0.08,0.37,0.19,0.52,0.34c0.14,0.14,0.26,0.32,0.34,0.52s0.12,0.42,0.12,0.66c0,0.28-0.05,0.55-0.14,0.8
		c-0.09,0.25-0.22,0.48-0.39,0.67s-0.37,0.35-0.61,0.46c-0.24,0.12-0.51,0.17-0.8,0.17c-0.3,0-0.56-0.05-0.77-0.14
		c-0.22-0.09-0.39-0.22-0.53-0.39c-0.14-0.17-0.24-0.36-0.31-0.6c-0.07-0.23-0.1-0.48-0.1-0.76c0-0.24,0.02-0.5,0.06-0.78
		c0.04-0.28,0.1-0.56,0.18-0.85c0.08-0.28,0.19-0.56,0.32-0.82c0.13-0.26,0.29-0.5,0.47-0.7c0.18-0.21,0.4-0.37,0.64-0.49
		c0.24-0.12,0.52-0.18,0.82-0.18c0.47,0,0.84,0.13,1.1,0.38c0.27,0.26,0.4,0.63,0.4,1.11H400.86z M398.89,324.25
		c0.26,0,0.49-0.05,0.7-0.16c0.2-0.1,0.37-0.24,0.51-0.42c0.14-0.17,0.24-0.37,0.31-0.59s0.11-0.45,0.11-0.69
		c0-0.21-0.04-0.4-0.11-0.57s-0.17-0.31-0.3-0.43c-0.13-0.12-0.28-0.21-0.45-0.27s-0.36-0.09-0.56-0.09c-0.24,0-0.46,0.05-0.66,0.15
		c-0.2,0.1-0.37,0.23-0.52,0.4c-0.14,0.17-0.25,0.36-0.33,0.57c-0.08,0.22-0.12,0.44-0.12,0.67c0,0.21,0.03,0.41,0.1,0.58
		c0.07,0.18,0.16,0.33,0.28,0.45c0.12,0.13,0.27,0.22,0.44,0.29C398.47,324.22,398.67,324.25,398.89,324.25z"/>
	<path d="M406.11,320.3c0-0.42-0.11-0.73-0.32-0.93c-0.21-0.2-0.52-0.3-0.93-0.3c-0.23,0-0.43,0.04-0.62,0.12
		c-0.18,0.08-0.34,0.19-0.48,0.34c-0.14,0.14-0.26,0.3-0.37,0.48c-0.11,0.18-0.2,0.37-0.27,0.57c-0.08,0.2-0.14,0.4-0.19,0.6
		c-0.05,0.2-0.1,0.39-0.14,0.56l0.02,0.02c0.16-0.32,0.38-0.56,0.66-0.73c0.28-0.17,0.6-0.25,0.96-0.25c0.24,0,0.46,0.04,0.66,0.12
		s0.37,0.19,0.52,0.34c0.14,0.14,0.26,0.32,0.34,0.52s0.12,0.42,0.12,0.66c0,0.28-0.04,0.55-0.14,0.8s-0.22,0.48-0.39,0.67
		s-0.37,0.35-0.61,0.46c-0.24,0.12-0.51,0.17-0.8,0.17c-0.3,0-0.56-0.05-0.77-0.14c-0.22-0.09-0.39-0.22-0.53-0.39
		c-0.14-0.17-0.24-0.36-0.31-0.6c-0.07-0.23-0.1-0.48-0.1-0.76c0-0.24,0.02-0.5,0.06-0.78c0.04-0.28,0.1-0.56,0.18-0.85
		c0.08-0.28,0.19-0.56,0.32-0.82c0.13-0.26,0.29-0.5,0.47-0.7c0.18-0.21,0.4-0.37,0.64-0.49c0.24-0.12,0.52-0.18,0.82-0.18
		c0.47,0,0.84,0.13,1.1,0.38c0.27,0.26,0.4,0.63,0.4,1.11H406.11z M404.14,324.25c0.26,0,0.49-0.05,0.7-0.16
		c0.2-0.1,0.37-0.24,0.51-0.42c0.14-0.17,0.24-0.37,0.31-0.59c0.07-0.22,0.11-0.45,0.11-0.69c0-0.21-0.04-0.4-0.11-0.57
		c-0.07-0.17-0.17-0.31-0.3-0.43c-0.12-0.12-0.27-0.21-0.45-0.27c-0.17-0.06-0.36-0.09-0.56-0.09c-0.24,0-0.46,0.05-0.66,0.15
		s-0.37,0.23-0.52,0.4c-0.14,0.17-0.25,0.36-0.33,0.57c-0.08,0.22-0.12,0.44-0.12,0.67c0,0.21,0.03,0.41,0.1,0.58
		c0.07,0.18,0.16,0.33,0.28,0.45c0.12,0.13,0.27,0.22,0.44,0.29C403.72,324.22,403.92,324.25,404.14,324.25z"/>
	<path d="M411.36,320.3c0-0.42-0.11-0.73-0.32-0.93c-0.21-0.2-0.52-0.3-0.93-0.3c-0.23,0-0.43,0.04-0.62,0.12
		c-0.18,0.08-0.34,0.19-0.48,0.34c-0.14,0.14-0.26,0.3-0.37,0.48c-0.11,0.18-0.2,0.37-0.27,0.57c-0.08,0.2-0.14,0.4-0.19,0.6
		c-0.05,0.2-0.1,0.39-0.14,0.56l0.02,0.02c0.16-0.32,0.38-0.56,0.66-0.73c0.28-0.17,0.6-0.25,0.96-0.25c0.24,0,0.46,0.04,0.66,0.12
		s0.37,0.19,0.52,0.34c0.14,0.14,0.26,0.32,0.34,0.52s0.12,0.42,0.12,0.66c0,0.28-0.04,0.55-0.14,0.8s-0.22,0.48-0.39,0.67
		s-0.37,0.35-0.61,0.46c-0.24,0.12-0.51,0.17-0.8,0.17c-0.3,0-0.56-0.05-0.77-0.14c-0.22-0.09-0.39-0.22-0.53-0.39
		c-0.14-0.17-0.24-0.36-0.31-0.6c-0.07-0.23-0.1-0.48-0.1-0.76c0-0.24,0.02-0.5,0.06-0.78c0.04-0.28,0.1-0.56,0.18-0.85
		c0.08-0.28,0.19-0.56,0.32-0.82c0.13-0.26,0.29-0.5,0.47-0.7c0.18-0.21,0.4-0.37,0.64-0.49c0.24-0.12,0.52-0.18,0.82-0.18
		c0.47,0,0.84,0.13,1.1,0.38c0.27,0.26,0.4,0.63,0.4,1.11H411.36z M409.38,324.25c0.26,0,0.49-0.05,0.7-0.16
		c0.2-0.1,0.37-0.24,0.51-0.42c0.14-0.17,0.24-0.37,0.31-0.59c0.07-0.22,0.11-0.45,0.11-0.69c0-0.21-0.04-0.4-0.11-0.57
		c-0.07-0.17-0.17-0.31-0.3-0.43c-0.12-0.12-0.27-0.21-0.45-0.27c-0.17-0.06-0.36-0.09-0.56-0.09c-0.24,0-0.46,0.05-0.66,0.15
		s-0.37,0.23-0.52,0.4c-0.14,0.17-0.25,0.36-0.33,0.57c-0.08,0.22-0.12,0.44-0.12,0.67c0,0.21,0.03,0.41,0.1,0.58
		c0.07,0.18,0.16,0.33,0.28,0.45c0.12,0.13,0.27,0.22,0.44,0.29C408.97,324.22,409.17,324.25,409.38,324.25z"/>
	<path d="M416.61,320.3c0-0.42-0.11-0.73-0.32-0.93c-0.21-0.2-0.52-0.3-0.93-0.3c-0.23,0-0.43,0.04-0.62,0.12
		c-0.18,0.08-0.34,0.19-0.48,0.34c-0.14,0.14-0.26,0.3-0.37,0.48c-0.11,0.18-0.2,0.37-0.27,0.57c-0.08,0.2-0.14,0.4-0.19,0.6
		c-0.05,0.2-0.1,0.39-0.14,0.56l0.02,0.02c0.16-0.32,0.38-0.56,0.66-0.73c0.28-0.17,0.6-0.25,0.96-0.25c0.24,0,0.46,0.04,0.66,0.12
		s0.37,0.19,0.52,0.34c0.14,0.14,0.26,0.32,0.34,0.52s0.12,0.42,0.12,0.66c0,0.28-0.04,0.55-0.14,0.8s-0.22,0.48-0.39,0.67
		s-0.37,0.35-0.61,0.46c-0.24,0.12-0.51,0.17-0.8,0.17c-0.3,0-0.56-0.05-0.77-0.14c-0.22-0.09-0.39-0.22-0.53-0.39
		c-0.14-0.17-0.24-0.36-0.31-0.6c-0.07-0.23-0.1-0.48-0.1-0.76c0-0.24,0.02-0.5,0.06-0.78c0.04-0.28,0.1-0.56,0.18-0.85
		c0.08-0.28,0.19-0.56,0.32-0.82c0.13-0.26,0.29-0.5,0.47-0.7c0.18-0.21,0.4-0.37,0.64-0.49c0.24-0.12,0.52-0.18,0.82-0.18
		c0.47,0,0.84,0.13,1.1,0.38c0.27,0.26,0.4,0.63,0.4,1.11H416.61z M414.63,324.25c0.26,0,0.49-0.05,0.7-0.16
		c0.2-0.1,0.37-0.24,0.51-0.42c0.14-0.17,0.24-0.37,0.31-0.59c0.07-0.22,0.11-0.45,0.11-0.69c0-0.21-0.04-0.4-0.11-0.57
		c-0.07-0.17-0.17-0.31-0.3-0.43c-0.12-0.12-0.27-0.21-0.45-0.27c-0.17-0.06-0.36-0.09-0.56-0.09c-0.24,0-0.46,0.05-0.66,0.15
		s-0.37,0.23-0.52,0.4c-0.14,0.17-0.25,0.36-0.33,0.57c-0.08,0.22-0.12,0.44-0.12,0.67c0,0.21,0.03,0.41,0.1,0.58
		c0.07,0.18,0.16,0.33,0.28,0.45c0.12,0.13,0.27,0.22,0.44,0.29C414.22,324.22,414.41,324.25,414.63,324.25z"/>
</g>
<rect x="375.95" y="158.25" class="st21" width="49.56" height="48.09"/>
<g>
	<path d="M382.95,214.6h0.26l-0.25,1.76h1.35l0.25-1.76h0.26l-0.25,1.76h0.88l-0.04,0.26h-0.88l-0.19,1.38h0.89l-0.04,0.26h-0.89
		l-0.26,1.85h-0.26l0.26-1.85h-1.35l-0.26,1.85h-0.26l0.26-1.85h-0.94l0.04-0.26h0.94l0.19-1.38h-0.94l0.04-0.26h0.94L382.95,214.6z
		 M382.74,218.01h1.35l0.19-1.38h-1.35L382.74,218.01z"/>
	<path d="M387.65,214.41h3.73l-0.07,0.3h-3.37l-0.48,2.29h3.14l-0.06,0.3h-3.14l-0.53,2.51h3.47l-0.06,0.3h-3.82L387.65,214.41z"/>
	<path d="M393.18,214.6h2.86l-0.08,0.26h-2.6l-0.74,2.13l0.02,0.02c0.14-0.18,0.33-0.32,0.58-0.43s0.5-0.16,0.75-0.16
		c0.5,0,0.89,0.13,1.18,0.4s0.44,0.66,0.44,1.18c0,0.31-0.05,0.61-0.14,0.88s-0.23,0.5-0.41,0.7s-0.39,0.36-0.65,0.47
		c-0.25,0.11-0.54,0.17-0.84,0.17c-0.29,0-0.54-0.04-0.74-0.12c-0.21-0.08-0.38-0.19-0.52-0.32s-0.24-0.27-0.3-0.42
		c-0.07-0.16-0.1-0.31-0.11-0.46c0-0.11,0-0.19,0-0.26c0.01-0.07,0.01-0.13,0.02-0.2h0.3c-0.01,0.07-0.02,0.13-0.02,0.19
		c0,0.06,0,0.12,0,0.2c0,0.11,0.02,0.23,0.07,0.36c0.05,0.13,0.13,0.25,0.23,0.37c0.11,0.12,0.25,0.21,0.42,0.29
		c0.17,0.08,0.39,0.12,0.64,0.12c0.27,0,0.52-0.05,0.73-0.16c0.22-0.1,0.4-0.24,0.55-0.42s0.26-0.38,0.34-0.6s0.12-0.47,0.12-0.72
		c0-0.21-0.03-0.4-0.1-0.57s-0.16-0.31-0.28-0.43s-0.26-0.21-0.42-0.28c-0.16-0.06-0.33-0.1-0.51-0.1c-0.63,0-1.11,0.25-1.43,0.74
		l-0.33-0.02L393.18,214.6z"/>
	<path d="M398.43,214.6h2.86l-0.08,0.26h-2.6l-0.74,2.13l0.02,0.02c0.14-0.18,0.33-0.32,0.58-0.43s0.5-0.16,0.75-0.16
		c0.5,0,0.89,0.13,1.18,0.4s0.44,0.66,0.44,1.18c0,0.31-0.05,0.61-0.14,0.88s-0.23,0.5-0.41,0.7s-0.39,0.36-0.65,0.47
		c-0.25,0.11-0.54,0.17-0.84,0.17c-0.29,0-0.54-0.04-0.74-0.12c-0.21-0.08-0.38-0.19-0.52-0.32s-0.24-0.27-0.3-0.42
		c-0.07-0.16-0.1-0.31-0.11-0.46c0-0.11,0-0.19,0-0.26c0.01-0.07,0.01-0.13,0.02-0.2h0.3c-0.01,0.07-0.02,0.13-0.02,0.19
		c0,0.06,0,0.12,0,0.2c0,0.11,0.02,0.23,0.07,0.36c0.05,0.13,0.13,0.25,0.23,0.37c0.11,0.12,0.25,0.21,0.42,0.29
		c0.17,0.08,0.39,0.12,0.64,0.12c0.27,0,0.52-0.05,0.73-0.16c0.22-0.1,0.4-0.24,0.55-0.42s0.26-0.38,0.34-0.6s0.12-0.47,0.12-0.72
		c0-0.21-0.03-0.4-0.1-0.57s-0.16-0.31-0.28-0.43s-0.26-0.21-0.42-0.28c-0.16-0.06-0.33-0.1-0.51-0.1c-0.63,0-1.11,0.25-1.43,0.74
		l-0.33-0.02L398.43,214.6z"/>
	<path d="M403.41,214.41h1.85c0.38,0,0.71,0.05,0.98,0.15c0.27,0.1,0.48,0.25,0.65,0.45s0.29,0.44,0.37,0.72s0.12,0.61,0.12,0.98
		c0,0.41-0.07,0.82-0.2,1.22c-0.13,0.41-0.33,0.77-0.59,1.1c-0.26,0.33-0.58,0.59-0.96,0.79c-0.38,0.2-0.82,0.3-1.31,0.3h-2.1
		L403.41,214.41z M402.62,219.82h1.65c0.33,0,0.63-0.05,0.89-0.14c0.26-0.09,0.5-0.21,0.7-0.37c0.2-0.16,0.38-0.34,0.52-0.55
		s0.27-0.43,0.36-0.66c0.09-0.23,0.16-0.46,0.21-0.7c0.04-0.24,0.07-0.47,0.07-0.69c0-0.33-0.03-0.61-0.1-0.86
		c-0.06-0.25-0.17-0.46-0.31-0.63c-0.14-0.17-0.33-0.29-0.57-0.38c-0.24-0.08-0.52-0.13-0.86-0.13h-1.48L402.62,219.82z"/>
	<path d="M408.55,218.4l3.49-3.8h0.34l-0.82,3.85h0.9l-0.06,0.26h-0.89l-0.3,1.41h-0.32l0.3-1.41h-2.69L408.55,218.4z
		 M411.23,218.45l0.74-3.35h-0.02l-3.06,3.35H411.23z"/>
	<path d="M417.22,220.12h-3.62c0.02-0.27,0.08-0.5,0.19-0.72s0.25-0.4,0.42-0.57s0.36-0.32,0.56-0.46c0.21-0.14,0.42-0.26,0.63-0.38
		c0.27-0.15,0.54-0.29,0.8-0.44c0.26-0.14,0.49-0.29,0.7-0.44c0.2-0.15,0.37-0.33,0.49-0.52c0.12-0.19,0.18-0.41,0.18-0.65
		c0-0.37-0.11-0.66-0.34-0.87s-0.52-0.32-0.89-0.32c-0.25,0-0.46,0.04-0.65,0.13c-0.19,0.08-0.35,0.2-0.49,0.35
		s-0.24,0.32-0.32,0.52c-0.08,0.2-0.12,0.42-0.14,0.66h-0.3c0.01-0.28,0.06-0.53,0.15-0.77s0.22-0.44,0.38-0.61
		c0.17-0.17,0.36-0.3,0.59-0.4c0.23-0.1,0.49-0.14,0.77-0.14c0.22,0,0.42,0.03,0.61,0.1c0.19,0.06,0.35,0.16,0.49,0.28
		c0.14,0.12,0.25,0.27,0.32,0.45c0.08,0.18,0.12,0.38,0.12,0.61c0,0.27-0.05,0.5-0.15,0.7c-0.1,0.2-0.24,0.37-0.4,0.53
		s-0.35,0.29-0.57,0.42c-0.21,0.12-0.43,0.24-0.65,0.36c-0.23,0.12-0.46,0.25-0.69,0.38s-0.44,0.27-0.64,0.42
		c-0.2,0.15-0.37,0.32-0.51,0.5c-0.14,0.18-0.25,0.39-0.3,0.62h3.3L417.22,220.12z"/>
</g>
<g>
	<path d="M511.81,318.9h0.26l-0.25,1.76h1.35l0.25-1.76h0.26l-0.25,1.76h0.88l-0.04,0.26h-0.88l-0.19,1.38h0.89l-0.04,0.26h-0.89
		l-0.26,1.85h-0.26l0.26-1.85h-1.35l-0.26,1.85h-0.26l0.26-1.85h-0.94l0.04-0.26h0.94l0.19-1.38h-0.94l0.04-0.26h0.94L511.81,318.9z
		 M511.59,322.31h1.35l0.19-1.38h-1.35L511.59,322.31z"/>
	<path d="M516.51,318.71h3.73l-0.07,0.3h-3.37l-0.48,2.29h3.14l-0.06,0.3h-3.14l-0.53,2.51h3.47l-0.06,0.3h-3.82L516.51,318.71z"/>
	<path d="M521.75,318.71h3.58l-0.06,0.3h-3.23l-0.48,2.29h2.9l-0.06,0.3h-2.9l-0.58,2.82h-0.35L521.75,318.71z"/>
	<path d="M526.73,318.71h2.08c0.24,0,0.46,0.02,0.66,0.05c0.2,0.04,0.37,0.1,0.52,0.19c0.15,0.09,0.26,0.22,0.34,0.38
		s0.12,0.37,0.12,0.63c0,0.41-0.12,0.74-0.37,1s-0.58,0.42-1,0.47v0.02c0.71,0.11,1.06,0.53,1.06,1.25c0,0.2-0.04,0.4-0.11,0.6
		c-0.08,0.2-0.19,0.39-0.36,0.55c-0.16,0.17-0.38,0.3-0.64,0.41s-0.59,0.16-0.97,0.16h-2.55L526.73,318.71z M525.93,324.11h2.14
		c0.27,0,0.52-0.04,0.73-0.1c0.22-0.07,0.4-0.17,0.54-0.3c0.15-0.13,0.26-0.28,0.34-0.46c0.08-0.18,0.12-0.37,0.12-0.58
		c0-0.39-0.11-0.67-0.34-0.83c-0.22-0.16-0.58-0.24-1.08-0.24h-1.91L525.93,324.11z M526.53,321.3h1.91c0.51,0,0.92-0.11,1.21-0.34
		s0.44-0.55,0.44-0.96c0-0.22-0.03-0.39-0.1-0.52s-0.16-0.23-0.28-0.3c-0.12-0.07-0.26-0.11-0.42-0.13
		c-0.16-0.02-0.34-0.03-0.52-0.03h-1.76L526.53,321.3z"/>
	<path d="M532.56,318.71h1.85c0.38,0,0.71,0.05,0.98,0.15c0.27,0.1,0.48,0.25,0.65,0.45c0.17,0.2,0.29,0.44,0.37,0.72
		s0.12,0.61,0.12,0.98c0,0.41-0.07,0.82-0.2,1.22c-0.13,0.41-0.33,0.77-0.59,1.1s-0.58,0.59-0.96,0.79s-0.82,0.3-1.31,0.3h-2.1
		L532.56,318.71z M531.77,324.11h1.65c0.33,0,0.63-0.05,0.89-0.14c0.26-0.09,0.5-0.21,0.7-0.37c0.2-0.16,0.38-0.34,0.52-0.55
		c0.15-0.21,0.27-0.43,0.36-0.66c0.09-0.23,0.16-0.46,0.21-0.7s0.07-0.47,0.07-0.69c0-0.33-0.03-0.61-0.1-0.86
		c-0.06-0.25-0.17-0.46-0.31-0.63c-0.14-0.17-0.33-0.29-0.57-0.38c-0.23-0.08-0.52-0.13-0.86-0.13h-1.48L531.77,324.11z"/>
	<path d="M539.11,318.9h2.86l-0.08,0.26h-2.6l-0.74,2.13l0.02,0.02c0.14-0.18,0.33-0.32,0.58-0.43s0.5-0.16,0.75-0.16
		c0.5,0,0.89,0.13,1.18,0.4c0.29,0.27,0.44,0.66,0.44,1.18c0,0.31-0.05,0.61-0.14,0.88c-0.1,0.27-0.23,0.5-0.41,0.7
		s-0.4,0.36-0.65,0.47c-0.25,0.11-0.53,0.17-0.84,0.17c-0.29,0-0.54-0.04-0.74-0.12c-0.21-0.08-0.38-0.19-0.52-0.32
		c-0.14-0.13-0.24-0.27-0.3-0.42c-0.07-0.16-0.1-0.31-0.11-0.46c-0.01-0.11-0.01-0.19,0-0.26c0-0.07,0.01-0.13,0.02-0.2h0.3
		c-0.01,0.07-0.02,0.13-0.02,0.19c0,0.06,0,0.12,0,0.2c0,0.11,0.02,0.23,0.07,0.36c0.05,0.13,0.12,0.25,0.23,0.37
		c0.11,0.12,0.25,0.21,0.42,0.29c0.17,0.08,0.39,0.12,0.64,0.12c0.27,0,0.52-0.05,0.73-0.16c0.22-0.1,0.4-0.24,0.55-0.42
		c0.15-0.18,0.26-0.38,0.34-0.6s0.12-0.47,0.12-0.72c0-0.21-0.04-0.4-0.1-0.57s-0.16-0.31-0.28-0.43c-0.12-0.12-0.26-0.21-0.42-0.28
		c-0.16-0.06-0.33-0.1-0.51-0.1c-0.63,0-1.11,0.25-1.43,0.74l-0.33-0.02L539.11,318.9z"/>
	<path d="M543.43,323.03c0,0.42,0.11,0.72,0.33,0.92c0.22,0.2,0.53,0.3,0.92,0.3c0.33,0,0.61-0.09,0.84-0.28
		c0.24-0.18,0.44-0.41,0.6-0.68c0.17-0.27,0.3-0.56,0.4-0.87c0.1-0.31,0.19-0.6,0.25-0.85l-0.02-0.02c-0.18,0.32-0.41,0.57-0.7,0.74
		c-0.28,0.17-0.6,0.26-0.96,0.26c-0.24,0-0.46-0.04-0.66-0.12c-0.2-0.08-0.37-0.19-0.52-0.33c-0.14-0.14-0.26-0.31-0.34-0.51
		s-0.12-0.42-0.12-0.66c0-0.28,0.04-0.54,0.14-0.8s0.22-0.49,0.39-0.68c0.17-0.2,0.37-0.35,0.61-0.47c0.24-0.12,0.51-0.18,0.8-0.18
		c0.3,0,0.56,0.05,0.77,0.14c0.22,0.1,0.39,0.23,0.53,0.4s0.24,0.37,0.31,0.6c0.07,0.23,0.1,0.48,0.1,0.76
		c0,0.24-0.02,0.5-0.06,0.78c-0.04,0.28-0.1,0.56-0.18,0.85c-0.08,0.28-0.19,0.56-0.32,0.82c-0.13,0.26-0.29,0.5-0.47,0.7
		c-0.18,0.2-0.4,0.36-0.64,0.48c-0.24,0.12-0.52,0.18-0.82,0.18c-0.47,0-0.84-0.13-1.1-0.4s-0.4-0.63-0.4-1.08H543.43z
		 M545.41,319.07c-0.26,0-0.49,0.05-0.7,0.16c-0.2,0.11-0.37,0.25-0.51,0.42c-0.14,0.18-0.24,0.38-0.31,0.6s-0.11,0.45-0.11,0.69
		c0,0.21,0.04,0.4,0.11,0.56s0.17,0.31,0.3,0.42c0.12,0.12,0.27,0.2,0.45,0.26c0.17,0.06,0.36,0.09,0.56,0.09
		c0.24,0,0.46-0.05,0.66-0.15s0.37-0.23,0.51-0.4c0.14-0.17,0.26-0.35,0.34-0.57c0.08-0.21,0.12-0.43,0.12-0.66
		c0-0.21-0.03-0.4-0.1-0.58c-0.07-0.18-0.16-0.33-0.28-0.46c-0.12-0.13-0.27-0.23-0.45-0.3S545.62,319.07,545.41,319.07z"/>
</g>
<g>
	<path d="M383.73,421.95H384l-0.25,1.76h1.35l0.25-1.76h0.26l-0.25,1.76h0.88l-0.04,0.26h-0.88l-0.19,1.38h0.89l-0.04,0.26h-0.89
		l-0.26,1.85h-0.26l0.26-1.85h-1.35l-0.26,1.85h-0.26l0.26-1.85h-0.94l0.04-0.26h0.94l0.19-1.38h-0.94l0.04-0.26h0.94L383.73,421.95
		z M383.52,425.36h1.35l0.19-1.38h-1.35L383.52,425.36z"/>
	<path d="M388.24,421.95h3.5l-0.07,0.3c-0.74,0.75-1.38,1.56-1.92,2.43c-0.55,0.87-0.98,1.8-1.3,2.79h-0.35
		c0.14-0.49,0.33-0.97,0.55-1.44c0.22-0.47,0.48-0.92,0.76-1.36c0.28-0.44,0.58-0.87,0.91-1.28c0.33-0.41,0.67-0.8,1.03-1.18h-3.16
		L388.24,421.95z"/>
	<path d="M397.67,423.52c-0.01-0.26-0.05-0.48-0.15-0.68c-0.09-0.2-0.22-0.37-0.38-0.5c-0.16-0.13-0.34-0.24-0.55-0.3
		c-0.21-0.07-0.44-0.1-0.68-0.1c-0.43,0-0.82,0.1-1.16,0.29c-0.34,0.19-0.63,0.44-0.86,0.75s-0.42,0.66-0.54,1.06
		s-0.19,0.79-0.19,1.19c0,0.35,0.05,0.66,0.14,0.92s0.23,0.48,0.41,0.65c0.18,0.17,0.38,0.3,0.62,0.39s0.5,0.13,0.79,0.13
		c0.27,0,0.52-0.05,0.76-0.14c0.24-0.09,0.46-0.22,0.66-0.39c0.2-0.17,0.37-0.36,0.51-0.58c0.14-0.22,0.24-0.46,0.31-0.71h0.35
		c-0.06,0.3-0.18,0.59-0.34,0.85c-0.17,0.26-0.37,0.49-0.6,0.67c-0.24,0.19-0.5,0.33-0.79,0.44c-0.29,0.11-0.59,0.16-0.9,0.16
		c-0.28,0-0.56-0.04-0.84-0.12c-0.27-0.08-0.52-0.22-0.74-0.41c-0.22-0.19-0.39-0.44-0.52-0.75c-0.13-0.31-0.2-0.68-0.2-1.13
		c0-0.27,0.03-0.55,0.09-0.83c0.06-0.28,0.15-0.56,0.26-0.82c0.12-0.26,0.26-0.51,0.44-0.74c0.17-0.23,0.38-0.43,0.6-0.61
		c0.23-0.17,0.49-0.31,0.77-0.41c0.29-0.1,0.6-0.15,0.93-0.15c0.33,0,0.63,0.04,0.89,0.14s0.49,0.22,0.67,0.39s0.32,0.37,0.42,0.6
		c0.1,0.23,0.14,0.49,0.14,0.77H397.67z"/>
	<path d="M400.4,421.95h2.86l-0.08,0.26h-2.6l-0.74,2.13l0.02,0.02c0.14-0.18,0.33-0.32,0.58-0.43s0.5-0.16,0.75-0.16
		c0.5,0,0.89,0.13,1.18,0.4c0.29,0.27,0.44,0.66,0.44,1.18c0,0.31-0.05,0.61-0.14,0.88c-0.1,0.27-0.23,0.5-0.41,0.7
		s-0.4,0.36-0.65,0.47c-0.25,0.11-0.53,0.17-0.84,0.17c-0.29,0-0.54-0.04-0.74-0.12c-0.21-0.08-0.38-0.19-0.52-0.32
		c-0.14-0.13-0.24-0.27-0.3-0.42c-0.07-0.16-0.1-0.31-0.11-0.46c-0.01-0.11-0.01-0.19,0-0.26c0-0.07,0.01-0.13,0.02-0.2h0.3
		c-0.01,0.07-0.02,0.13-0.02,0.19c0,0.06,0,0.12,0,0.2c0,0.11,0.02,0.23,0.07,0.36c0.05,0.13,0.12,0.25,0.23,0.37
		c0.11,0.12,0.25,0.21,0.42,0.29c0.17,0.08,0.39,0.12,0.64,0.12c0.27,0,0.52-0.05,0.73-0.16c0.22-0.1,0.4-0.24,0.55-0.42
		c0.15-0.18,0.26-0.38,0.34-0.6s0.12-0.47,0.12-0.72c0-0.21-0.04-0.4-0.1-0.57s-0.16-0.31-0.28-0.43c-0.12-0.12-0.26-0.21-0.42-0.28
		c-0.16-0.06-0.33-0.1-0.51-0.1c-0.63,0-1.11,0.25-1.43,0.74l-0.33-0.02L400.4,421.95z"/>
	<path d="M407.66,427.47h-3.62c0.02-0.27,0.08-0.5,0.19-0.72s0.25-0.4,0.42-0.57s0.36-0.32,0.56-0.46c0.21-0.14,0.42-0.26,0.63-0.38
		c0.27-0.15,0.54-0.29,0.8-0.44c0.26-0.14,0.49-0.29,0.7-0.44c0.2-0.15,0.37-0.33,0.49-0.52s0.18-0.41,0.18-0.65
		c0-0.37-0.11-0.66-0.34-0.87s-0.52-0.32-0.89-0.32c-0.25,0-0.46,0.04-0.65,0.13c-0.19,0.08-0.35,0.2-0.49,0.35
		c-0.14,0.15-0.24,0.32-0.32,0.52c-0.08,0.2-0.12,0.42-0.14,0.66h-0.3c0.01-0.28,0.06-0.53,0.15-0.77s0.22-0.44,0.38-0.61
		s0.36-0.3,0.59-0.4c0.23-0.1,0.49-0.14,0.77-0.14c0.22,0,0.42,0.03,0.61,0.1c0.19,0.06,0.35,0.16,0.49,0.28
		c0.14,0.12,0.25,0.27,0.32,0.45s0.12,0.38,0.12,0.61c0,0.27-0.05,0.5-0.15,0.7s-0.23,0.37-0.4,0.53c-0.17,0.15-0.35,0.29-0.57,0.42
		c-0.21,0.12-0.43,0.24-0.65,0.36c-0.23,0.12-0.46,0.25-0.69,0.38s-0.44,0.27-0.64,0.42c-0.2,0.15-0.37,0.32-0.51,0.5
		c-0.14,0.18-0.25,0.39-0.3,0.62h3.3L407.66,427.47z"/>
	<path d="M412.34,421.76h0.37l1.06,5.71h-0.35l-0.33-1.83h-2.76l-1.1,1.83h-0.4L412.34,421.76z M410.52,425.34h2.52l-0.58-3.22
		L410.52,425.34z"/>
	<path d="M416.92,427.57c-0.32,0-0.58-0.06-0.79-0.17c-0.21-0.11-0.37-0.26-0.49-0.45c-0.12-0.18-0.2-0.39-0.25-0.61
		c-0.05-0.22-0.07-0.44-0.07-0.66c0-0.23,0.02-0.49,0.06-0.77c0.04-0.28,0.1-0.56,0.18-0.85s0.19-0.56,0.32-0.82
		c0.13-0.26,0.28-0.5,0.46-0.7c0.18-0.21,0.38-0.37,0.62-0.49c0.24-0.12,0.5-0.18,0.79-0.18c0.29,0,0.54,0.05,0.74,0.15
		s0.37,0.23,0.5,0.4s0.23,0.37,0.29,0.6s0.09,0.47,0.09,0.74c0,0.24-0.02,0.49-0.06,0.77s-0.1,0.56-0.18,0.84
		c-0.08,0.28-0.18,0.56-0.31,0.82s-0.28,0.5-0.46,0.71s-0.39,0.37-0.63,0.5S417.21,427.57,416.92,427.57z M416.85,427.3
		c0.27,0,0.52-0.06,0.73-0.18c0.22-0.12,0.41-0.28,0.57-0.47c0.16-0.19,0.3-0.42,0.42-0.67c0.12-0.25,0.21-0.51,0.28-0.77
		c0.08-0.26,0.13-0.52,0.16-0.78s0.05-0.49,0.05-0.7c0-0.22-0.02-0.43-0.06-0.63c-0.04-0.2-0.12-0.37-0.22-0.52
		c-0.1-0.15-0.23-0.26-0.4-0.34c-0.17-0.08-0.37-0.12-0.62-0.12c-0.34,0-0.64,0.1-0.9,0.3c-0.27,0.2-0.49,0.47-0.68,0.8
		c-0.18,0.33-0.32,0.71-0.42,1.14c-0.1,0.43-0.14,0.86-0.14,1.31c0,0.19,0.02,0.38,0.06,0.58c0.04,0.19,0.11,0.37,0.21,0.52
		c0.1,0.16,0.23,0.28,0.38,0.38C416.44,427.26,416.63,427.3,416.85,427.3z"/>
</g>
<g>
	<path d="M447.6,421.95h0.26l-0.25,1.76h1.35l0.25-1.76h0.26l-0.25,1.76h0.88l-0.04,0.26h-0.88l-0.19,1.38h0.89l-0.04,0.26h-0.89
		l-0.26,1.85h-0.26l0.26-1.85h-1.35l-0.26,1.85h-0.26l0.26-1.85h-0.94l0.04-0.26h0.94l0.19-1.38h-0.94l0.04-0.26h0.94L447.6,421.95z
		 M447.38,425.36h1.35l0.19-1.38h-1.35L447.38,425.36z"/>
	<path d="M452.3,421.76h3.73l-0.07,0.3h-3.37l-0.48,2.29h3.14l-0.06,0.3h-3.14l-0.53,2.51h3.47l-0.06,0.3h-3.82L452.3,421.76z"/>
	<path d="M461.53,423.52c0-0.26-0.05-0.48-0.15-0.68c-0.09-0.2-0.22-0.37-0.38-0.5c-0.16-0.13-0.34-0.24-0.55-0.3
		c-0.21-0.07-0.44-0.1-0.68-0.1c-0.43,0-0.82,0.1-1.16,0.29c-0.34,0.19-0.63,0.44-0.86,0.75c-0.24,0.31-0.42,0.66-0.54,1.06
		c-0.13,0.39-0.19,0.79-0.19,1.19c0,0.35,0.05,0.66,0.14,0.92c0.1,0.26,0.23,0.48,0.41,0.65c0.18,0.17,0.38,0.3,0.62,0.39
		c0.24,0.08,0.5,0.13,0.79,0.13c0.27,0,0.52-0.05,0.76-0.14c0.24-0.09,0.46-0.22,0.66-0.39c0.2-0.17,0.37-0.36,0.51-0.58
		c0.14-0.22,0.24-0.46,0.31-0.71h0.35c-0.06,0.3-0.18,0.59-0.34,0.85c-0.17,0.26-0.37,0.49-0.6,0.67s-0.5,0.33-0.79,0.44
		c-0.29,0.11-0.59,0.16-0.9,0.16c-0.28,0-0.56-0.04-0.84-0.12c-0.28-0.08-0.52-0.22-0.74-0.41c-0.22-0.19-0.39-0.44-0.52-0.75
		c-0.13-0.31-0.2-0.68-0.2-1.13c0-0.27,0.03-0.55,0.09-0.83c0.06-0.28,0.15-0.56,0.26-0.82c0.12-0.26,0.26-0.51,0.44-0.74
		c0.17-0.23,0.37-0.43,0.6-0.61c0.23-0.17,0.49-0.31,0.77-0.41c0.29-0.1,0.6-0.15,0.93-0.15c0.33,0,0.63,0.04,0.89,0.14
		c0.26,0.09,0.49,0.22,0.67,0.39c0.18,0.17,0.32,0.37,0.42,0.6c0.1,0.23,0.14,0.49,0.14,0.77H461.53z"/>
	<path d="M464,421.76h2.08c0.24,0,0.46,0.02,0.66,0.05c0.2,0.04,0.37,0.1,0.52,0.19c0.15,0.09,0.26,0.22,0.34,0.38
		s0.12,0.37,0.12,0.63c0,0.41-0.12,0.74-0.37,1c-0.25,0.26-0.58,0.42-1,0.47v0.02c0.71,0.11,1.06,0.53,1.06,1.25
		c0,0.2-0.04,0.4-0.11,0.6c-0.08,0.2-0.19,0.39-0.36,0.55c-0.16,0.17-0.38,0.3-0.64,0.41c-0.26,0.11-0.59,0.16-0.97,0.16h-2.55
		L464,421.76z M463.2,427.17h2.14c0.27,0,0.52-0.04,0.73-0.1s0.4-0.17,0.54-0.3s0.26-0.28,0.34-0.46s0.12-0.37,0.12-0.58
		c0-0.39-0.11-0.67-0.34-0.83c-0.22-0.16-0.58-0.24-1.08-0.24h-1.91L463.2,427.17z M463.8,424.35h1.91c0.51,0,0.92-0.11,1.21-0.34
		c0.3-0.23,0.44-0.55,0.44-0.96c0-0.22-0.03-0.39-0.1-0.52c-0.07-0.13-0.16-0.23-0.28-0.3s-0.26-0.11-0.42-0.13
		c-0.16-0.02-0.34-0.03-0.52-0.03h-1.76L463.8,424.35z"/>
	<path d="M473.81,423.52c-0.01-0.26-0.05-0.48-0.15-0.68c-0.09-0.2-0.22-0.37-0.38-0.5c-0.16-0.13-0.34-0.24-0.55-0.3
		c-0.21-0.07-0.44-0.1-0.68-0.1c-0.43,0-0.82,0.1-1.16,0.29c-0.34,0.19-0.63,0.44-0.86,0.75s-0.42,0.66-0.54,1.06
		s-0.19,0.79-0.19,1.19c0,0.35,0.05,0.66,0.14,0.92s0.23,0.48,0.41,0.65c0.18,0.17,0.38,0.3,0.62,0.39s0.5,0.13,0.79,0.13
		c0.27,0,0.52-0.05,0.76-0.14c0.24-0.09,0.46-0.22,0.66-0.39c0.2-0.17,0.37-0.36,0.51-0.58c0.14-0.22,0.24-0.46,0.31-0.71h0.35
		c-0.06,0.3-0.18,0.59-0.34,0.85c-0.17,0.26-0.37,0.49-0.6,0.67c-0.24,0.19-0.5,0.33-0.79,0.44c-0.29,0.11-0.59,0.16-0.9,0.16
		c-0.28,0-0.56-0.04-0.84-0.12c-0.27-0.08-0.52-0.22-0.74-0.41c-0.22-0.19-0.39-0.44-0.52-0.75c-0.13-0.31-0.2-0.68-0.2-1.13
		c0-0.27,0.03-0.55,0.09-0.83c0.06-0.28,0.15-0.56,0.26-0.82c0.12-0.26,0.26-0.51,0.44-0.74c0.17-0.23,0.38-0.43,0.6-0.61
		c0.23-0.17,0.49-0.31,0.77-0.41c0.29-0.1,0.6-0.15,0.93-0.15c0.33,0,0.63,0.04,0.89,0.14s0.49,0.22,0.67,0.39s0.32,0.37,0.42,0.6
		c0.1,0.23,0.14,0.49,0.14,0.77H473.81z"/>
	<path d="M476.25,421.76h3.58l-0.06,0.3h-3.23l-0.48,2.29h2.9l-0.06,0.3h-2.9l-0.58,2.82h-0.35L476.25,421.76z"/>
	<path d="M481.21,421.76h1.85c0.38,0,0.71,0.05,0.98,0.15c0.27,0.1,0.48,0.25,0.65,0.45c0.17,0.2,0.29,0.44,0.37,0.72
		s0.12,0.61,0.12,0.98c0,0.41-0.07,0.82-0.2,1.22c-0.13,0.41-0.33,0.77-0.59,1.1s-0.58,0.59-0.96,0.79s-0.82,0.3-1.31,0.3H480
		L481.21,421.76z M480.42,427.17h1.65c0.33,0,0.63-0.05,0.89-0.14c0.26-0.09,0.5-0.21,0.7-0.37c0.2-0.16,0.38-0.34,0.52-0.55
		c0.15-0.21,0.27-0.43,0.36-0.66c0.09-0.23,0.16-0.46,0.21-0.7s0.07-0.47,0.07-0.69c0-0.33-0.03-0.61-0.1-0.86
		c-0.06-0.25-0.17-0.46-0.31-0.63c-0.14-0.17-0.33-0.29-0.57-0.38c-0.23-0.08-0.52-0.13-0.86-0.13h-1.48L480.42,427.17z"/>
</g>
<rect x="504.37" y="366.84" class="st22" width="49.56" height="48.09"/>
<g>
	<path d="M511.81,421.95h0.26l-0.25,1.76h1.35l0.25-1.76h0.26l-0.25,1.76h0.88l-0.04,0.26h-0.88l-0.19,1.38h0.89l-0.04,0.26h-0.89
		l-0.26,1.85h-0.26l0.26-1.85h-1.35l-0.26,1.85h-0.26l0.26-1.85h-0.94l0.04-0.26h0.94l0.19-1.38h-0.94l0.04-0.26h0.94L511.81,421.95
		z M511.59,425.36h1.35l0.19-1.38h-1.35L511.59,425.36z"/>
	<path d="M516.79,421.95h2.86l-0.08,0.26h-2.6l-0.74,2.13l0.02,0.02c0.14-0.18,0.33-0.32,0.58-0.43s0.5-0.16,0.75-0.16
		c0.5,0,0.89,0.13,1.18,0.4c0.29,0.27,0.44,0.66,0.44,1.18c0,0.31-0.05,0.61-0.14,0.88c-0.1,0.27-0.23,0.5-0.41,0.7
		s-0.4,0.36-0.65,0.47c-0.25,0.11-0.53,0.17-0.84,0.17c-0.29,0-0.54-0.04-0.74-0.12c-0.21-0.08-0.38-0.19-0.52-0.32
		c-0.14-0.13-0.24-0.27-0.3-0.42c-0.07-0.16-0.1-0.31-0.11-0.46c-0.01-0.11-0.01-0.19,0-0.26c0-0.07,0.01-0.13,0.02-0.2h0.3
		c-0.01,0.07-0.02,0.13-0.02,0.19c0,0.06,0,0.12,0,0.2c0,0.11,0.02,0.23,0.07,0.36c0.05,0.13,0.12,0.25,0.23,0.37
		c0.11,0.12,0.25,0.21,0.42,0.29c0.17,0.08,0.39,0.12,0.64,0.12c0.27,0,0.52-0.05,0.73-0.16c0.22-0.1,0.4-0.24,0.55-0.42
		c0.15-0.18,0.26-0.38,0.34-0.6s0.12-0.47,0.12-0.72c0-0.21-0.04-0.4-0.1-0.57s-0.16-0.31-0.28-0.43c-0.12-0.12-0.26-0.21-0.42-0.28
		c-0.16-0.06-0.33-0.1-0.51-0.1c-0.63,0-1.11,0.25-1.43,0.74l-0.33-0.02L516.79,421.95z"/>
	<path d="M521.56,421.95h3.5l-0.07,0.3c-0.74,0.75-1.38,1.56-1.92,2.43c-0.55,0.87-0.98,1.8-1.3,2.79h-0.35
		c0.14-0.49,0.33-0.97,0.55-1.44c0.22-0.47,0.48-0.92,0.76-1.36c0.28-0.44,0.58-0.87,0.91-1.28c0.33-0.41,0.67-0.8,1.03-1.18h-3.16
		L521.56,421.95z"/>
	<path d="M526.57,423.61c0.04-0.26,0.11-0.49,0.2-0.7c0.1-0.21,0.23-0.4,0.38-0.56c0.16-0.16,0.34-0.28,0.56-0.36
		c0.21-0.08,0.45-0.13,0.72-0.13c0.2,0,0.4,0.03,0.59,0.09s0.36,0.15,0.5,0.26c0.14,0.11,0.26,0.26,0.34,0.42
		c0.08,0.17,0.13,0.36,0.13,0.58c0,0.19-0.03,0.37-0.1,0.53c-0.06,0.16-0.15,0.3-0.27,0.42c-0.12,0.12-0.25,0.22-0.41,0.29
		c-0.16,0.07-0.33,0.12-0.52,0.13v0.02c0.29,0.05,0.51,0.18,0.67,0.41c0.16,0.22,0.24,0.48,0.24,0.78c0,0.29-0.05,0.54-0.15,0.76
		s-0.24,0.4-0.42,0.55c-0.18,0.15-0.39,0.26-0.64,0.34c-0.24,0.08-0.51,0.12-0.79,0.13c-0.51,0-0.92-0.14-1.23-0.42
		c-0.31-0.27-0.46-0.68-0.46-1.22c0-0.05,0-0.1,0.01-0.15c0.01-0.05,0.01-0.1,0.02-0.15h0.3c-0.02,0.1-0.02,0.19-0.02,0.3
		c0,0.43,0.12,0.77,0.37,1.01c0.25,0.24,0.6,0.36,1.07,0.36c0.22,0,0.44-0.03,0.64-0.1c0.2-0.07,0.37-0.17,0.52-0.29
		c0.15-0.12,0.26-0.28,0.35-0.46s0.13-0.38,0.13-0.6c0-0.24-0.04-0.43-0.12-0.58c-0.08-0.15-0.19-0.26-0.33-0.34
		c-0.14-0.08-0.31-0.13-0.51-0.16s-0.42-0.04-0.66-0.04l0.06-0.26c0.21,0,0.42-0.01,0.65-0.04c0.23-0.02,0.44-0.08,0.63-0.16
		c0.19-0.08,0.35-0.2,0.48-0.36c0.12-0.16,0.19-0.37,0.19-0.64c0-0.19-0.03-0.35-0.1-0.49s-0.16-0.26-0.28-0.36
		c-0.12-0.1-0.25-0.17-0.41-0.22c-0.16-0.05-0.32-0.07-0.5-0.07c-0.22,0-0.42,0.04-0.59,0.12c-0.17,0.08-0.32,0.18-0.45,0.32
		c-0.13,0.13-0.23,0.29-0.32,0.47c-0.08,0.18-0.14,0.38-0.18,0.58H526.57z"/>
	<path d="M534.55,427.47h-3.62c0.02-0.27,0.08-0.5,0.19-0.72s0.25-0.4,0.42-0.57s0.36-0.32,0.56-0.46c0.21-0.14,0.42-0.26,0.63-0.38
		c0.27-0.15,0.54-0.29,0.8-0.44c0.26-0.14,0.49-0.29,0.7-0.44c0.2-0.15,0.37-0.33,0.49-0.52c0.12-0.19,0.18-0.41,0.18-0.65
		c0-0.37-0.11-0.66-0.34-0.87s-0.52-0.32-0.89-0.32c-0.25,0-0.46,0.04-0.65,0.13c-0.19,0.08-0.35,0.2-0.49,0.35
		s-0.24,0.32-0.32,0.52c-0.08,0.2-0.12,0.42-0.14,0.66h-0.3c0.01-0.28,0.06-0.53,0.15-0.77s0.22-0.44,0.38-0.61
		c0.17-0.17,0.36-0.3,0.59-0.4c0.23-0.1,0.49-0.14,0.77-0.14c0.22,0,0.42,0.03,0.61,0.1c0.19,0.06,0.35,0.16,0.49,0.28
		c0.14,0.12,0.25,0.27,0.32,0.45c0.08,0.18,0.12,0.38,0.12,0.61c0,0.27-0.05,0.5-0.15,0.7c-0.1,0.2-0.24,0.37-0.4,0.53
		s-0.35,0.29-0.57,0.42c-0.21,0.12-0.43,0.24-0.65,0.36c-0.23,0.12-0.46,0.25-0.69,0.38s-0.44,0.27-0.64,0.42
		c-0.2,0.15-0.37,0.32-0.51,0.5c-0.14,0.18-0.25,0.39-0.3,0.62h3.3L534.55,427.47z"/>
	<path d="M538.12,427.57c-0.32,0-0.58-0.06-0.79-0.17c-0.21-0.11-0.37-0.26-0.49-0.45c-0.12-0.18-0.2-0.39-0.25-0.61
		c-0.04-0.22-0.07-0.44-0.07-0.66c0-0.23,0.02-0.49,0.06-0.77c0.04-0.28,0.1-0.56,0.18-0.85c0.08-0.29,0.19-0.56,0.32-0.82
		c0.13-0.26,0.28-0.5,0.46-0.7c0.18-0.21,0.39-0.37,0.62-0.49c0.23-0.12,0.5-0.18,0.79-0.18c0.29,0,0.53,0.05,0.74,0.15
		c0.21,0.1,0.37,0.23,0.5,0.4s0.23,0.37,0.29,0.6c0.06,0.23,0.09,0.47,0.09,0.74c0,0.24-0.02,0.49-0.06,0.77
		c-0.04,0.28-0.1,0.56-0.18,0.84c-0.08,0.28-0.18,0.56-0.31,0.82s-0.28,0.5-0.46,0.71c-0.18,0.21-0.39,0.37-0.63,0.5
		C538.69,427.51,538.42,427.57,538.12,427.57z M538.06,427.3c0.27,0,0.52-0.06,0.73-0.18s0.41-0.28,0.57-0.47
		c0.16-0.19,0.3-0.42,0.42-0.67c0.11-0.25,0.21-0.51,0.28-0.77c0.07-0.26,0.13-0.52,0.16-0.78c0.03-0.26,0.05-0.49,0.05-0.7
		c0-0.22-0.02-0.43-0.06-0.63s-0.11-0.37-0.22-0.52s-0.24-0.26-0.4-0.34c-0.17-0.08-0.37-0.12-0.62-0.12c-0.34,0-0.64,0.1-0.9,0.3
		c-0.27,0.2-0.49,0.47-0.68,0.8c-0.18,0.33-0.32,0.71-0.42,1.14c-0.1,0.43-0.14,0.86-0.14,1.31c0,0.19,0.02,0.38,0.06,0.58
		c0.04,0.19,0.11,0.37,0.21,0.52c0.1,0.16,0.23,0.28,0.38,0.38C537.64,427.26,537.83,427.3,538.06,427.3z"/>
	<path d="M543.37,427.57c-0.32,0-0.58-0.06-0.79-0.17c-0.21-0.11-0.37-0.26-0.49-0.45c-0.12-0.18-0.2-0.39-0.25-0.61
		c-0.04-0.22-0.07-0.44-0.07-0.66c0-0.23,0.02-0.49,0.06-0.77c0.04-0.28,0.1-0.56,0.18-0.85c0.08-0.29,0.19-0.56,0.32-0.82
		c0.13-0.26,0.28-0.5,0.46-0.7c0.18-0.21,0.39-0.37,0.62-0.49c0.23-0.12,0.5-0.18,0.79-0.18c0.29,0,0.53,0.05,0.74,0.15
		c0.21,0.1,0.37,0.23,0.5,0.4s0.23,0.37,0.29,0.6c0.06,0.23,0.09,0.47,0.09,0.74c0,0.24-0.02,0.49-0.06,0.77
		c-0.04,0.28-0.1,0.56-0.18,0.84c-0.08,0.28-0.18,0.56-0.31,0.82s-0.28,0.5-0.46,0.71c-0.18,0.21-0.39,0.37-0.63,0.5
		C543.94,427.51,543.67,427.57,543.37,427.57z M543.3,427.3c0.27,0,0.52-0.06,0.73-0.18s0.41-0.28,0.57-0.47
		c0.16-0.19,0.3-0.42,0.42-0.67c0.11-0.25,0.21-0.51,0.28-0.77c0.07-0.26,0.13-0.52,0.16-0.78c0.03-0.26,0.05-0.49,0.05-0.7
		c0-0.22-0.02-0.43-0.06-0.63s-0.11-0.37-0.22-0.52s-0.24-0.26-0.4-0.34c-0.17-0.08-0.37-0.12-0.62-0.12c-0.34,0-0.64,0.1-0.9,0.3
		c-0.27,0.2-0.49,0.47-0.68,0.8c-0.18,0.33-0.32,0.71-0.42,1.14c-0.1,0.43-0.14,0.86-0.14,1.31c0,0.19,0.02,0.38,0.06,0.58
		c0.04,0.19,0.11,0.37,0.21,0.52c0.1,0.16,0.23,0.28,0.38,0.38C542.89,427.26,543.08,427.3,543.3,427.3z"/>
</g>
<g>
	<path d="M575.92,421.95h0.26l-0.25,1.76h1.35l0.25-1.76h0.26l-0.25,1.76h0.88l-0.04,0.26h-0.88l-0.19,1.38h0.89l-0.04,0.26h-0.89
		l-0.26,1.85h-0.26l0.26-1.85h-1.35l-0.26,1.85h-0.26l0.26-1.85h-0.94l0.04-0.26h0.94l0.19-1.38h-0.94l0.04-0.26h0.94L575.92,421.95
		z M575.71,425.36h1.35l0.19-1.38h-1.35L575.71,425.36z"/>
	<path d="M580.64,421.76h1.85c0.38,0,0.71,0.05,0.98,0.15c0.27,0.1,0.48,0.25,0.65,0.45s0.29,0.44,0.37,0.72s0.12,0.61,0.12,0.98
		c0,0.41-0.07,0.82-0.2,1.22c-0.13,0.41-0.33,0.77-0.59,1.1c-0.26,0.33-0.58,0.59-0.96,0.79c-0.38,0.2-0.82,0.3-1.31,0.3h-2.1
		L580.64,421.76z M579.84,427.17h1.65c0.33,0,0.63-0.05,0.89-0.14c0.26-0.09,0.5-0.21,0.7-0.37c0.2-0.16,0.38-0.34,0.52-0.55
		s0.27-0.43,0.36-0.66c0.09-0.23,0.16-0.46,0.21-0.7c0.04-0.24,0.07-0.47,0.07-0.69c0-0.33-0.03-0.61-0.1-0.86
		c-0.06-0.25-0.17-0.46-0.31-0.63c-0.14-0.17-0.33-0.29-0.57-0.38c-0.24-0.08-0.52-0.13-0.86-0.13h-1.48L579.84,427.17z"/>
	<path d="M585.78,425.75l3.49-3.8h0.34l-0.82,3.85h0.9l-0.06,0.26h-0.89l-0.3,1.41h-0.32l0.3-1.41h-2.69L585.78,425.75z
		 M588.46,425.8l0.74-3.35h-0.02l-3.06,3.35H588.46z"/>
	<path d="M593.88,421.76h0.37l1.06,5.71h-0.35l-0.33-1.83h-2.76l-1.1,1.83h-0.4L593.88,421.76z M592.06,425.34h2.52l-0.58-3.22
		L592.06,425.34z"/>
	<path d="M597.84,422.96c0.36-0.05,0.68-0.17,0.94-0.35s0.53-0.4,0.78-0.66h0.3l-1.18,5.52h-0.35l1.06-4.95l-0.02-0.02
		c-0.26,0.22-0.52,0.39-0.8,0.5c-0.27,0.11-0.54,0.19-0.8,0.23L597.84,422.96z"/>
	<path d="M602.89,421.95h3.5l-0.07,0.3c-0.74,0.75-1.38,1.56-1.92,2.43c-0.55,0.87-0.98,1.8-1.3,2.79h-0.35
		c0.14-0.49,0.33-0.97,0.55-1.44c0.22-0.47,0.48-0.92,0.76-1.36c0.28-0.44,0.58-0.87,0.91-1.28c0.33-0.41,0.67-0.8,1.03-1.18h-3.16
		L602.89,421.95z"/>
	<path d="M611.05,423.35c0-0.42-0.11-0.73-0.32-0.93c-0.21-0.2-0.52-0.3-0.93-0.3c-0.23,0-0.43,0.04-0.62,0.12
		c-0.18,0.08-0.34,0.19-0.48,0.34c-0.14,0.14-0.26,0.3-0.37,0.48c-0.11,0.18-0.2,0.37-0.27,0.57c-0.08,0.2-0.14,0.4-0.19,0.6
		c-0.05,0.2-0.1,0.39-0.14,0.56l0.02,0.02c0.16-0.32,0.38-0.56,0.66-0.73c0.28-0.17,0.6-0.25,0.96-0.25c0.24,0,0.46,0.04,0.66,0.12
		s0.37,0.19,0.52,0.34c0.14,0.14,0.26,0.32,0.34,0.52s0.12,0.42,0.12,0.66c0,0.28-0.04,0.55-0.14,0.8s-0.22,0.48-0.39,0.67
		s-0.37,0.35-0.61,0.46c-0.24,0.12-0.51,0.17-0.8,0.17c-0.3,0-0.56-0.05-0.77-0.14c-0.22-0.09-0.39-0.22-0.53-0.39
		c-0.14-0.17-0.24-0.36-0.31-0.6c-0.07-0.23-0.1-0.48-0.1-0.76c0-0.24,0.02-0.5,0.06-0.78c0.04-0.28,0.1-0.56,0.18-0.85
		c0.08-0.28,0.19-0.56,0.32-0.82c0.13-0.26,0.29-0.5,0.47-0.7c0.18-0.21,0.4-0.37,0.64-0.49c0.24-0.12,0.52-0.18,0.82-0.18
		c0.47,0,0.84,0.13,1.1,0.38c0.27,0.26,0.4,0.63,0.4,1.11H611.05z M609.08,427.3c0.26,0,0.49-0.05,0.7-0.16
		c0.2-0.1,0.37-0.24,0.51-0.42c0.14-0.17,0.24-0.37,0.31-0.59c0.07-0.22,0.11-0.45,0.11-0.69c0-0.21-0.04-0.4-0.11-0.57
		c-0.07-0.17-0.17-0.31-0.3-0.43c-0.12-0.12-0.27-0.21-0.45-0.27c-0.17-0.06-0.36-0.09-0.56-0.09c-0.24,0-0.46,0.05-0.66,0.15
		s-0.37,0.23-0.52,0.4c-0.14,0.17-0.25,0.36-0.33,0.57c-0.08,0.22-0.12,0.44-0.12,0.67c0,0.21,0.03,0.41,0.1,0.58
		c0.07,0.18,0.16,0.33,0.28,0.45c0.12,0.13,0.27,0.22,0.44,0.29C608.66,427.27,608.86,427.3,609.08,427.3z"/>
</g>
<g>
	<path d="M509.9,215.15h0.26l-0.25,1.76h1.35l0.25-1.76h0.26l-0.25,1.76h0.88l-0.04,0.26h-0.88l-0.19,1.38h0.89l-0.04,0.26h-0.89
		l-0.26,1.85h-0.26l0.26-1.85h-1.35l-0.26,1.85h-0.26l0.26-1.85h-0.94l0.04-0.26h0.94l0.19-1.38h-0.94l0.04-0.26h0.94L509.9,215.15z
		 M509.68,218.56h1.35l0.19-1.38h-1.35L509.68,218.56z"/>
	<path d="M514.59,214.96h3.58l-0.06,0.3h-3.23l-0.48,2.29h2.9l-0.06,0.3h-2.9l-0.58,2.82h-0.35L514.59,214.96z"/>
	<path d="M518.42,218.95l3.49-3.8h0.34l-0.82,3.85h0.9l-0.06,0.26h-0.89l-0.3,1.41h-0.32l0.3-1.41h-2.69L518.42,218.95z M521.1,219
		l0.74-3.35h-0.02l-3.06,3.35H521.1z"/>
	<path d="M526.53,214.96h0.37l1.06,5.71h-0.35l-0.33-1.83h-2.76l-1.1,1.83h-0.4L526.53,214.96z M524.7,218.54h2.52l-0.58-3.22
		L524.7,218.54z"/>
	<path d="M532.78,220.67h-3.62c0.02-0.27,0.08-0.5,0.19-0.72s0.25-0.4,0.42-0.57s0.36-0.32,0.56-0.46c0.21-0.14,0.42-0.26,0.63-0.38
		c0.27-0.15,0.54-0.29,0.8-0.44c0.26-0.14,0.49-0.29,0.7-0.44c0.2-0.15,0.37-0.33,0.49-0.52c0.12-0.19,0.18-0.41,0.18-0.65
		c0-0.37-0.11-0.66-0.34-0.87s-0.52-0.32-0.89-0.32c-0.25,0-0.46,0.04-0.65,0.13c-0.19,0.08-0.35,0.2-0.49,0.35
		s-0.24,0.32-0.32,0.52c-0.08,0.2-0.12,0.42-0.14,0.66H530c0.01-0.28,0.06-0.53,0.15-0.77s0.22-0.44,0.38-0.61
		c0.17-0.17,0.36-0.3,0.59-0.4c0.23-0.1,0.49-0.14,0.77-0.14c0.22,0,0.42,0.03,0.61,0.1c0.19,0.06,0.35,0.16,0.49,0.28
		c0.14,0.12,0.25,0.27,0.32,0.45c0.08,0.18,0.12,0.38,0.12,0.61c0,0.27-0.05,0.5-0.15,0.7c-0.1,0.2-0.24,0.37-0.4,0.53
		s-0.35,0.29-0.57,0.42c-0.21,0.12-0.43,0.24-0.65,0.36c-0.23,0.12-0.46,0.25-0.69,0.38s-0.44,0.27-0.64,0.42
		c-0.2,0.15-0.37,0.32-0.51,0.5c-0.14,0.18-0.25,0.39-0.3,0.62h3.3L532.78,220.67z"/>
	<path d="M538.45,216.55c0-0.42-0.11-0.73-0.32-0.93c-0.21-0.2-0.52-0.3-0.93-0.3c-0.23,0-0.43,0.04-0.62,0.12
		c-0.18,0.08-0.34,0.19-0.48,0.34c-0.14,0.14-0.26,0.3-0.37,0.48c-0.11,0.18-0.2,0.37-0.27,0.57c-0.08,0.2-0.14,0.4-0.19,0.6
		c-0.05,0.2-0.1,0.39-0.14,0.56l0.02,0.02c0.16-0.32,0.38-0.56,0.66-0.73c0.28-0.17,0.6-0.25,0.96-0.25c0.24,0,0.46,0.04,0.66,0.12
		s0.37,0.19,0.52,0.34c0.14,0.14,0.26,0.32,0.34,0.52s0.12,0.42,0.12,0.66c0,0.28-0.04,0.55-0.14,0.8s-0.22,0.48-0.39,0.67
		s-0.37,0.35-0.61,0.46c-0.24,0.12-0.51,0.17-0.8,0.17c-0.3,0-0.56-0.05-0.77-0.14c-0.22-0.09-0.39-0.22-0.53-0.39
		c-0.14-0.17-0.24-0.36-0.31-0.6c-0.07-0.23-0.1-0.48-0.1-0.76c0-0.24,0.02-0.5,0.06-0.78c0.04-0.28,0.1-0.56,0.18-0.85
		c0.08-0.28,0.19-0.56,0.32-0.82c0.13-0.26,0.29-0.5,0.47-0.7c0.18-0.21,0.4-0.37,0.64-0.49c0.24-0.12,0.52-0.18,0.82-0.18
		c0.47,0,0.84,0.13,1.1,0.38c0.27,0.26,0.4,0.63,0.4,1.11H538.45z M536.47,220.5c0.26,0,0.49-0.05,0.7-0.16
		c0.2-0.1,0.37-0.24,0.51-0.42c0.14-0.17,0.24-0.37,0.31-0.59c0.07-0.22,0.11-0.45,0.11-0.69c0-0.21-0.04-0.4-0.11-0.57
		c-0.07-0.17-0.17-0.31-0.3-0.43c-0.12-0.12-0.27-0.21-0.45-0.27c-0.17-0.06-0.36-0.09-0.56-0.09c-0.24,0-0.46,0.05-0.66,0.15
		s-0.37,0.23-0.52,0.4c-0.14,0.17-0.25,0.36-0.33,0.57c-0.08,0.22-0.12,0.44-0.12,0.67c0,0.21,0.03,0.41,0.1,0.58
		c0.07,0.18,0.16,0.33,0.28,0.45c0.12,0.13,0.27,0.22,0.44,0.29C536.06,220.47,536.25,220.5,536.47,220.5z"/>
	<path d="M541.6,220.77c-0.32,0-0.58-0.06-0.79-0.17c-0.21-0.11-0.37-0.26-0.49-0.45c-0.12-0.18-0.2-0.39-0.25-0.61
		c-0.04-0.22-0.07-0.44-0.07-0.66c0-0.23,0.02-0.49,0.06-0.77c0.04-0.28,0.1-0.56,0.18-0.85c0.08-0.29,0.19-0.56,0.32-0.82
		c0.13-0.26,0.28-0.5,0.46-0.7c0.18-0.21,0.39-0.37,0.62-0.49c0.23-0.12,0.5-0.18,0.79-0.18c0.29,0,0.53,0.05,0.74,0.15
		c0.21,0.1,0.37,0.23,0.5,0.4s0.23,0.37,0.29,0.6c0.06,0.23,0.09,0.47,0.09,0.74c0,0.24-0.02,0.49-0.06,0.77
		c-0.04,0.28-0.1,0.56-0.18,0.84c-0.08,0.28-0.18,0.56-0.31,0.82s-0.28,0.5-0.46,0.71c-0.18,0.21-0.39,0.37-0.63,0.5
		C542.17,220.7,541.9,220.77,541.6,220.77z M541.54,220.5c0.27,0,0.52-0.06,0.73-0.18s0.41-0.28,0.57-0.47
		c0.16-0.19,0.3-0.42,0.42-0.67c0.11-0.25,0.21-0.51,0.28-0.77c0.07-0.26,0.13-0.52,0.16-0.78c0.03-0.26,0.05-0.49,0.05-0.7
		c0-0.22-0.02-0.43-0.06-0.63s-0.11-0.37-0.22-0.52s-0.24-0.26-0.4-0.34c-0.17-0.08-0.37-0.12-0.62-0.12c-0.34,0-0.64,0.1-0.9,0.3
		c-0.27,0.2-0.49,0.47-0.68,0.8c-0.18,0.33-0.32,0.71-0.42,1.14c-0.1,0.43-0.14,0.86-0.14,1.31c0,0.19,0.02,0.38,0.06,0.58
		c0.04,0.19,0.11,0.37,0.21,0.52c0.1,0.16,0.23,0.28,0.38,0.38C541.12,220.46,541.31,220.5,541.54,220.5z"/>
</g>
<rect x="568.21" y="158.25" class="st23" width="49.56" height="48.09"/>
<rect x="568.21" y="262.54" class="st24" width="49.56" height="48.09"/>
<g>
	<path d="M575.64,318.9h0.26l-0.25,1.76h1.35l0.25-1.76h0.26l-0.25,1.76h0.88l-0.04,0.26h-0.88l-0.19,1.38h0.89l-0.04,0.26H577
		l-0.26,1.85h-0.26l0.26-1.85h-1.35l-0.26,1.85h-0.26l0.26-1.85h-0.94l0.04-0.26h0.94l0.19-1.38h-0.94l0.04-0.26h0.94L575.64,318.9z
		 M575.43,322.31h1.35l0.19-1.38h-1.35L575.43,322.31z"/>
	<path d="M580.34,318.71h3.58l-0.06,0.3h-3.23l-0.48,2.29h2.9l-0.06,0.3h-2.9l-0.58,2.82h-0.35L580.34,318.71z"/>
	<path d="M584.65,323.03c0,0.42,0.11,0.72,0.33,0.92c0.22,0.2,0.53,0.3,0.92,0.3c0.33,0,0.61-0.09,0.84-0.28
		c0.24-0.18,0.44-0.41,0.6-0.68s0.3-0.56,0.4-0.87c0.1-0.31,0.19-0.6,0.25-0.85l-0.02-0.02c-0.18,0.32-0.41,0.57-0.7,0.74
		c-0.28,0.17-0.6,0.26-0.96,0.26c-0.24,0-0.46-0.04-0.66-0.12c-0.2-0.08-0.37-0.19-0.52-0.33c-0.14-0.14-0.26-0.31-0.34-0.51
		s-0.12-0.42-0.12-0.66c0-0.28,0.05-0.54,0.14-0.8s0.22-0.49,0.39-0.68c0.17-0.2,0.37-0.35,0.61-0.47c0.24-0.12,0.5-0.18,0.8-0.18
		s0.56,0.05,0.77,0.14c0.22,0.1,0.39,0.23,0.53,0.4s0.24,0.37,0.31,0.6c0.07,0.23,0.1,0.48,0.1,0.76c0,0.24-0.02,0.5-0.06,0.78
		c-0.04,0.28-0.1,0.56-0.18,0.85c-0.08,0.28-0.19,0.56-0.32,0.82c-0.13,0.26-0.29,0.5-0.47,0.7c-0.18,0.2-0.4,0.36-0.64,0.48
		c-0.24,0.12-0.52,0.18-0.82,0.18c-0.47,0-0.84-0.13-1.1-0.4c-0.27-0.27-0.4-0.63-0.4-1.08H584.65z M586.63,319.07
		c-0.26,0-0.49,0.05-0.7,0.16c-0.2,0.11-0.37,0.25-0.51,0.42c-0.14,0.18-0.24,0.38-0.31,0.6c-0.07,0.22-0.11,0.45-0.11,0.69
		c0,0.21,0.04,0.4,0.11,0.56c0.07,0.17,0.17,0.31,0.3,0.42c0.13,0.12,0.28,0.2,0.45,0.26c0.17,0.06,0.36,0.09,0.56,0.09
		c0.24,0,0.46-0.05,0.66-0.15s0.37-0.23,0.51-0.4c0.14-0.17,0.26-0.35,0.34-0.57c0.08-0.21,0.12-0.43,0.12-0.66
		c0-0.21-0.03-0.4-0.1-0.58c-0.07-0.18-0.16-0.33-0.28-0.46c-0.12-0.13-0.27-0.23-0.45-0.3S586.84,319.07,586.63,319.07z"/>
	<path d="M590.55,318.71h3.73l-0.07,0.3h-3.37l-0.48,2.29h3.14l-0.06,0.3h-3.14l-0.53,2.51h3.47l-0.06,0.3h-3.82L590.55,318.71z"/>
	<path d="M595.8,319.91c0.36-0.05,0.68-0.17,0.94-0.35c0.27-0.18,0.53-0.4,0.78-0.66h0.3l-1.18,5.52h-0.35l1.06-4.95l-0.02-0.02
		c-0.26,0.22-0.52,0.39-0.8,0.5c-0.28,0.11-0.54,0.19-0.8,0.23L595.8,319.91z"/>
	<path d="M605.03,320.47c0-0.26-0.05-0.48-0.15-0.68c-0.09-0.2-0.22-0.37-0.38-0.5c-0.16-0.13-0.34-0.24-0.55-0.3
		c-0.21-0.07-0.44-0.1-0.68-0.1c-0.43,0-0.82,0.1-1.16,0.29c-0.34,0.19-0.63,0.44-0.86,0.75c-0.24,0.31-0.42,0.66-0.54,1.06
		c-0.13,0.39-0.19,0.79-0.19,1.19c0,0.35,0.05,0.66,0.14,0.92c0.1,0.26,0.23,0.48,0.41,0.65c0.18,0.17,0.38,0.3,0.62,0.39
		c0.24,0.08,0.5,0.13,0.79,0.13c0.27,0,0.52-0.05,0.76-0.14c0.24-0.09,0.46-0.22,0.66-0.39c0.2-0.17,0.37-0.36,0.51-0.58
		c0.14-0.22,0.24-0.46,0.31-0.71h0.35c-0.06,0.3-0.18,0.59-0.34,0.85c-0.17,0.26-0.37,0.49-0.6,0.67s-0.5,0.33-0.79,0.44
		c-0.29,0.11-0.59,0.16-0.9,0.16c-0.28,0-0.56-0.04-0.84-0.12c-0.28-0.08-0.52-0.22-0.74-0.41c-0.22-0.19-0.39-0.44-0.52-0.75
		c-0.13-0.31-0.2-0.68-0.2-1.13c0-0.27,0.03-0.55,0.09-0.83c0.06-0.28,0.15-0.56,0.26-0.82c0.12-0.26,0.26-0.51,0.44-0.74
		c0.17-0.23,0.37-0.43,0.6-0.61c0.23-0.17,0.49-0.31,0.77-0.41c0.29-0.1,0.6-0.15,0.93-0.15c0.33,0,0.63,0.04,0.89,0.14
		c0.26,0.09,0.49,0.22,0.67,0.39c0.18,0.17,0.32,0.37,0.42,0.6c0.1,0.23,0.14,0.49,0.14,0.77H605.03z"/>
	<path d="M608.09,324.51c-0.32,0-0.58-0.06-0.79-0.17c-0.21-0.11-0.37-0.26-0.49-0.45c-0.12-0.18-0.2-0.39-0.25-0.61
		c-0.05-0.22-0.07-0.44-0.07-0.66c0-0.23,0.02-0.49,0.06-0.77c0.04-0.28,0.1-0.56,0.18-0.85s0.19-0.56,0.32-0.82
		c0.13-0.26,0.28-0.5,0.46-0.7c0.18-0.21,0.38-0.37,0.62-0.49c0.24-0.12,0.5-0.18,0.79-0.18c0.29,0,0.54,0.05,0.74,0.15
		s0.37,0.23,0.5,0.4s0.23,0.37,0.29,0.6s0.09,0.47,0.09,0.74c0,0.24-0.02,0.49-0.06,0.77s-0.1,0.56-0.18,0.84
		c-0.08,0.28-0.18,0.56-0.31,0.82s-0.28,0.5-0.46,0.71s-0.39,0.37-0.63,0.5S608.39,324.51,608.09,324.51z M608.03,324.25
		c0.27,0,0.52-0.06,0.73-0.18c0.22-0.12,0.41-0.28,0.57-0.47c0.16-0.19,0.3-0.42,0.42-0.67c0.12-0.25,0.21-0.51,0.28-0.77
		c0.08-0.26,0.13-0.52,0.16-0.78s0.05-0.49,0.05-0.7c0-0.22-0.02-0.43-0.06-0.63c-0.04-0.2-0.12-0.37-0.22-0.52
		c-0.1-0.15-0.23-0.26-0.4-0.34c-0.17-0.08-0.37-0.12-0.62-0.12c-0.34,0-0.64,0.1-0.9,0.3c-0.27,0.2-0.49,0.47-0.68,0.8
		c-0.18,0.33-0.32,0.71-0.42,1.14c-0.1,0.43-0.14,0.86-0.14,1.31c0,0.19,0.02,0.38,0.06,0.58c0.04,0.19,0.11,0.37,0.21,0.52
		c0.1,0.16,0.23,0.28,0.38,0.38C607.61,324.2,607.8,324.25,608.03,324.25z"/>
</g>
<rect x="568.21" y="366.84" class="st25" width="49.56" height="48.09"/>
<g>
	<path d="M573.73,215.15H574l-0.25,1.76h1.35l0.25-1.76h0.26l-0.25,1.76h0.88l-0.04,0.26h-0.88l-0.19,1.38h0.89l-0.04,0.26h-0.89
		l-0.26,1.85h-0.26l0.26-1.85h-1.35l-0.26,1.85h-0.26l0.26-1.85h-0.94l0.04-0.26h0.94l0.19-1.38h-0.94l0.04-0.26h0.94L573.73,215.15
		z M573.52,218.56h1.35l0.19-1.38h-1.35L573.52,218.56z"/>
	<path d="M578.43,214.96h3.58l-0.06,0.3h-3.23l-0.48,2.29h2.9l-0.06,0.3h-2.9l-0.58,2.82h-0.35L578.43,214.96z"/>
	<path d="M585.69,220.67h-3.62c0.02-0.27,0.08-0.5,0.19-0.72s0.25-0.4,0.42-0.57s0.36-0.32,0.56-0.46c0.21-0.14,0.42-0.26,0.63-0.38
		c0.27-0.15,0.54-0.29,0.8-0.44c0.26-0.14,0.49-0.29,0.7-0.44c0.2-0.15,0.37-0.33,0.49-0.52s0.18-0.41,0.18-0.65
		c0-0.37-0.11-0.66-0.34-0.87s-0.52-0.32-0.89-0.32c-0.25,0-0.46,0.04-0.65,0.13c-0.19,0.08-0.35,0.2-0.49,0.35
		c-0.14,0.15-0.24,0.32-0.32,0.52c-0.08,0.2-0.12,0.42-0.14,0.66h-0.3c0.01-0.28,0.06-0.53,0.15-0.77s0.22-0.44,0.38-0.61
		s0.36-0.3,0.59-0.4c0.23-0.1,0.49-0.14,0.77-0.14c0.22,0,0.42,0.03,0.61,0.1c0.19,0.06,0.35,0.16,0.49,0.28
		c0.14,0.12,0.25,0.27,0.32,0.45s0.12,0.38,0.12,0.61c0,0.27-0.05,0.5-0.15,0.7s-0.23,0.37-0.4,0.53c-0.17,0.15-0.35,0.29-0.57,0.42
		c-0.21,0.12-0.43,0.24-0.65,0.36c-0.23,0.12-0.46,0.25-0.69,0.38s-0.44,0.27-0.64,0.42c-0.2,0.15-0.37,0.32-0.51,0.5
		c-0.14,0.18-0.25,0.39-0.3,0.62h3.3L585.69,220.67z"/>
	<path d="M592.62,216.72c-0.01-0.26-0.05-0.48-0.15-0.68c-0.09-0.2-0.22-0.37-0.38-0.5c-0.16-0.13-0.34-0.24-0.55-0.3
		c-0.21-0.07-0.44-0.1-0.68-0.1c-0.43,0-0.82,0.1-1.16,0.29c-0.34,0.19-0.63,0.44-0.86,0.75s-0.42,0.66-0.54,1.06
		s-0.19,0.79-0.19,1.19c0,0.35,0.05,0.66,0.14,0.92s0.23,0.48,0.41,0.65c0.18,0.17,0.38,0.3,0.62,0.39s0.5,0.13,0.79,0.13
		c0.27,0,0.52-0.05,0.76-0.14c0.24-0.09,0.46-0.22,0.66-0.39c0.2-0.17,0.37-0.36,0.51-0.58c0.14-0.22,0.24-0.46,0.31-0.71h0.35
		c-0.06,0.3-0.18,0.59-0.34,0.85c-0.17,0.26-0.37,0.49-0.6,0.67c-0.24,0.19-0.5,0.33-0.79,0.44c-0.29,0.11-0.59,0.16-0.9,0.16
		c-0.28,0-0.56-0.04-0.84-0.12c-0.27-0.08-0.52-0.22-0.74-0.41c-0.22-0.19-0.39-0.44-0.52-0.75c-0.13-0.31-0.2-0.68-0.2-1.13
		c0-0.27,0.03-0.55,0.09-0.83c0.06-0.28,0.15-0.56,0.26-0.82c0.12-0.26,0.26-0.51,0.44-0.74c0.17-0.23,0.38-0.43,0.6-0.61
		c0.23-0.17,0.49-0.31,0.77-0.41c0.29-0.1,0.6-0.15,0.93-0.15c0.33,0,0.63,0.04,0.89,0.14s0.49,0.22,0.67,0.39s0.32,0.37,0.42,0.6
		c0.1,0.23,0.14,0.49,0.14,0.77H592.62z"/>
	<path d="M594.87,215.15h3.5l-0.07,0.3c-0.74,0.75-1.38,1.56-1.92,2.43c-0.55,0.87-0.98,1.8-1.3,2.79h-0.35
		c0.14-0.49,0.33-0.97,0.55-1.44c0.22-0.47,0.48-0.92,0.76-1.36c0.28-0.44,0.58-0.87,0.91-1.28c0.33-0.41,0.67-0.8,1.03-1.18h-3.16
		L594.87,215.15z"/>
	<path d="M599.67,219.29c0,0.42,0.11,0.72,0.33,0.92c0.22,0.2,0.53,0.3,0.92,0.3c0.33,0,0.61-0.09,0.84-0.28
		c0.24-0.18,0.44-0.41,0.6-0.68s0.3-0.56,0.4-0.87c0.1-0.31,0.19-0.6,0.25-0.85l-0.02-0.02c-0.18,0.32-0.41,0.57-0.7,0.74
		c-0.28,0.17-0.6,0.26-0.96,0.26c-0.24,0-0.46-0.04-0.66-0.12c-0.2-0.08-0.37-0.19-0.52-0.33c-0.14-0.14-0.26-0.31-0.34-0.51
		s-0.12-0.42-0.12-0.66c0-0.28,0.05-0.54,0.14-0.8s0.22-0.49,0.39-0.68c0.17-0.2,0.37-0.35,0.61-0.47c0.24-0.12,0.5-0.18,0.8-0.18
		s0.56,0.05,0.77,0.14c0.22,0.1,0.39,0.23,0.53,0.4s0.24,0.37,0.31,0.6c0.07,0.23,0.1,0.48,0.1,0.76c0,0.24-0.02,0.5-0.06,0.78
		c-0.04,0.28-0.1,0.56-0.18,0.85c-0.08,0.28-0.19,0.56-0.32,0.82c-0.13,0.26-0.29,0.5-0.47,0.7c-0.18,0.2-0.4,0.36-0.64,0.48
		c-0.24,0.12-0.52,0.18-0.82,0.18c-0.47,0-0.84-0.13-1.1-0.4c-0.27-0.27-0.4-0.63-0.4-1.08H599.67z M601.65,215.32
		c-0.26,0-0.49,0.05-0.7,0.16c-0.2,0.11-0.37,0.25-0.51,0.42c-0.14,0.18-0.24,0.38-0.31,0.6c-0.07,0.22-0.11,0.45-0.11,0.69
		c0,0.21,0.04,0.4,0.11,0.56c0.07,0.17,0.17,0.31,0.3,0.42c0.13,0.12,0.28,0.2,0.45,0.26c0.17,0.06,0.36,0.09,0.56,0.09
		c0.24,0,0.46-0.05,0.66-0.15s0.37-0.23,0.51-0.4c0.14-0.17,0.26-0.35,0.34-0.57c0.08-0.21,0.12-0.43,0.12-0.66
		c0-0.21-0.03-0.4-0.1-0.58c-0.07-0.18-0.16-0.33-0.28-0.46c-0.12-0.13-0.27-0.23-0.45-0.3S601.86,215.32,601.65,215.32z"/>
	<path d="M604.92,219.29c0,0.42,0.11,0.72,0.33,0.92c0.22,0.2,0.53,0.3,0.92,0.3c0.33,0,0.61-0.09,0.84-0.28
		c0.24-0.18,0.44-0.41,0.6-0.68s0.3-0.56,0.4-0.87c0.1-0.31,0.19-0.6,0.25-0.85l-0.02-0.02c-0.18,0.32-0.41,0.57-0.7,0.74
		c-0.28,0.17-0.6,0.26-0.96,0.26c-0.24,0-0.46-0.04-0.66-0.12c-0.2-0.08-0.37-0.19-0.52-0.33c-0.14-0.14-0.26-0.31-0.34-0.51
		s-0.12-0.42-0.12-0.66c0-0.28,0.05-0.54,0.14-0.8s0.22-0.49,0.39-0.68c0.17-0.2,0.37-0.35,0.61-0.47c0.24-0.12,0.5-0.18,0.8-0.18
		s0.56,0.05,0.77,0.14c0.22,0.1,0.39,0.23,0.53,0.4s0.24,0.37,0.31,0.6c0.07,0.23,0.1,0.48,0.1,0.76c0,0.24-0.02,0.5-0.06,0.78
		c-0.04,0.28-0.1,0.56-0.18,0.85c-0.08,0.28-0.19,0.56-0.32,0.82c-0.13,0.26-0.29,0.5-0.47,0.7c-0.18,0.2-0.4,0.36-0.64,0.48
		c-0.24,0.12-0.52,0.18-0.82,0.18c-0.47,0-0.84-0.13-1.1-0.4c-0.27-0.27-0.4-0.63-0.4-1.08H604.92z M606.89,215.32
		c-0.26,0-0.49,0.05-0.7,0.16c-0.2,0.11-0.37,0.25-0.51,0.42c-0.14,0.18-0.24,0.38-0.31,0.6c-0.07,0.22-0.11,0.45-0.11,0.69
		c0,0.21,0.04,0.4,0.11,0.56c0.07,0.17,0.17,0.31,0.3,0.42c0.13,0.12,0.28,0.2,0.45,0.26c0.17,0.06,0.36,0.09,0.56,0.09
		c0.24,0,0.46-0.05,0.66-0.15s0.37-0.23,0.51-0.4c0.14-0.17,0.26-0.35,0.34-0.57c0.08-0.21,0.12-0.43,0.12-0.66
		c0-0.21-0.03-0.4-0.1-0.58c-0.07-0.18-0.16-0.33-0.28-0.46c-0.12-0.13-0.27-0.23-0.45-0.3S607.11,215.32,606.89,215.32z"/>
</g>
</svg>
