<?xml version="1.0" encoding="utf-8"?>
<!-- Generator: Adobe Illustrator 25.4.1, SVG Export Plug-In . SVG Version: 6.00 Build 0)  -->
<svg version="1.1" id="Calque_1" xmlns="http://www.w3.org/2000/svg" xmlns:xlink="http://www.w3.org/1999/xlink" x="0px" y="0px"
	 width="500px" height="500px" viewBox="0 0 500 500" style="enable-background:new 0 0 500 500;" xml:space="preserve">
<style type="text/css">
	.st0{fill:#026666;stroke:#1D1D1B;stroke-width:0.25;stroke-miterlimit:10;}
	.st1{fill:#FFFFFF;}
</style>
<rect x="0.7" y="0" class="st0" width="499.3" height="500"/>
<g>
	<g>
		<path class="st1" d="M233.73,363.52c-16.1,0-33.16-0.77-49.55-5.61c-32.56-9.6-56.34-28.19-70.68-55.23
			c-11.23-21.16-13.28-42.93-6.11-64.69c3.4-10.31,9.07-19.91,16.87-28.53c14.18-15.67,28.25-30.83,44.41-43.96
			c16.69-13.57,31.54-22.52,46.75-28.18c25.74-9.58,50.61-8.51,73.92,3.18c30.57,15.33,55.46,32.22,76.07,51.65
			c9.85,9.28,17.52,18.74,23.43,28.92c5.4,9.29,8.01,20.11,7.98,33.09c-0.03,14.82-2.39,27.65-7.21,39.23
			c-7.38,17.73-20.06,32.15-37.69,42.85c-21.03,12.77-43.83,20.77-67.75,23.77c-18.91,2.37-34.36,3.49-48.62,3.53l0,0
			C234.94,363.52,234.33,363.52,233.73,363.52z M249.56,131.85c-11.05,0-22.34,2.13-33.81,6.4c-15.1,5.62-29.86,14.52-46.46,28.02
			c-16.1,13.09-30.14,28.21-44.3,43.86c-7.7,8.51-13.31,17.99-16.66,28.17c-7.08,21.49-5.05,43,6.05,63.91
			c14.22,26.8,37.8,45.22,70.08,54.74c16.89,4.98,34.52,5.61,51.08,5.56h0c14.22-0.03,29.63-1.15,48.49-3.52
			c23.78-2.98,46.45-10.93,67.36-23.63c17.45-10.59,29.99-24.85,37.28-42.38c4.76-11.45,7.09-24.16,7.13-38.85
			c0.03-12.8-2.54-23.46-7.84-32.58c-5.87-10.09-13.47-19.47-23.25-28.69c-20.55-19.36-45.35-36.2-75.84-51.48
			C276.2,135.03,263.06,131.85,249.56,131.85z"/>
		<path class="st1" d="M254.45,306.07c-9.63,0-18.91-3.34-26.48-9.59c-8.6-7.11-13.91-17.1-14.96-28.13
			c-2.17-22.86,14.67-43.23,37.54-45.39l42.95-4.07c22.85-2.17,43.23,14.67,45.4,37.54c2.17,22.86-14.67,43.23-37.54,45.39
			l-0.05-0.56l0.05,0.56l-42.95,4.07C257.09,306,255.77,306.07,254.45,306.07z M297.47,219.82c-1.28,0-2.57,0.06-3.85,0.18
			l-42.95,4.07c-22.24,2.11-38.62,21.92-36.52,44.16c1.02,10.73,6.18,20.45,14.55,27.37c8.37,6.92,18.88,10.17,29.61,9.15
			l42.95-4.07c10.73-1.02,20.45-6.18,27.37-14.55c6.92-8.37,10.17-18.88,9.15-29.61c-1.02-10.73-6.18-20.45-14.55-27.37
			C315.87,223.07,306.84,219.82,297.47,219.82z"/>
	</g>
	<g>
		
			<rect x="32.92" y="244.44" transform="matrix(0.9952 -0.0976 0.0976 0.9952 -23.7119 4.5014)" class="st1" width="2.5" height="0.5"/>
		<path class="st1" d="M40.38,244.34l-0.05-0.5l4.94-0.48l0.05,0.5L40.38,244.34z M50.26,243.37l-0.05-0.5l4.94-0.48l0.05,0.5
			L50.26,243.37z M60.14,242.41l-0.05-0.5l4.94-0.48l0.05,0.5L60.14,242.41z M70.02,241.45l-0.05-0.5l4.94-0.48l0.05,0.5
			L70.02,241.45z M79.89,240.48l-0.05-0.5l4.94-0.48l0.05,0.5L79.89,240.48z M89.77,239.52l-0.05-0.5l4.94-0.48l0.05,0.5
			L89.77,239.52z M99.65,238.55l-0.05-0.5l4.94-0.48l0.05,0.5L99.65,238.55z M109.53,237.59l-0.05-0.5l4.94-0.48l0.05,0.5
			L109.53,237.59z M119.41,236.63l-0.05-0.5l4.94-0.48l0.05,0.5L119.41,236.63z M129.29,235.66l-0.05-0.5l4.94-0.48l0.05,0.5
			L129.29,235.66z M139.17,234.7l-0.05-0.5l4.94-0.48l0.05,0.5L139.17,234.7z M149.05,233.73l-0.05-0.5l4.94-0.48l0.05,0.5
			L149.05,233.73z M158.93,232.77l-0.05-0.5l4.94-0.48l0.05,0.5L158.93,232.77z M168.81,231.81l-0.05-0.5l4.94-0.48l0.05,0.5
			L168.81,231.81z M178.69,230.84l-0.05-0.5l4.94-0.48l0.05,0.5L178.69,230.84z M188.57,229.88l-0.05-0.5l4.94-0.48l0.05,0.5
			L188.57,229.88z M198.45,228.92l-0.05-0.5l4.94-0.48l0.05,0.5L198.45,228.92z M208.33,227.95l-0.05-0.5l4.94-0.48l0.05,0.5
			L208.33,227.95z M218.21,226.99l-0.05-0.5l4.94-0.48l0.05,0.5L218.21,226.99z M228.09,226.02l-0.05-0.5l4.94-0.48l0.05,0.5
			L228.09,226.02z M237.97,225.06l-0.05-0.5l4.94-0.48l0.05,0.5L237.97,225.06z M247.85,224.1l-0.05-0.5l4.94-0.48l0.05,0.5
			L247.85,224.1z M257.73,223.13l-0.05-0.5l4.94-0.48l0.05,0.5L257.73,223.13z M267.61,222.17l-0.05-0.5l4.94-0.48l0.05,0.5
			L267.61,222.17z M277.48,221.2l-0.05-0.5l4.94-0.48l0.05,0.5L277.48,221.2z M287.36,220.24l-0.05-0.5l4.94-0.48l0.05,0.5
			L287.36,220.24z M297.24,219.28l-0.05-0.5l4.94-0.48l0.05,0.5L297.24,219.28z M307.12,218.31l-0.05-0.5l4.94-0.48l0.05,0.5
			L307.12,218.31z M317,217.35l-0.05-0.5l4.94-0.48l0.05,0.5L317,217.35z M326.88,216.39l-0.05-0.5l4.94-0.48l0.05,0.5
			L326.88,216.39z M336.76,215.42l-0.05-0.5l4.94-0.48l0.05,0.5L336.76,215.42z M346.64,214.46l-0.05-0.5l4.94-0.48l0.05,0.5
			L346.64,214.46z M356.52,213.49l-0.05-0.5l4.94-0.48l0.05,0.5L356.52,213.49z M366.4,212.53l-0.05-0.5l4.94-0.48l0.05,0.5
			L366.4,212.53z M376.28,211.57l-0.05-0.5l4.94-0.48l0.05,0.5L376.28,211.57z M386.16,210.6l-0.05-0.5l4.94-0.48l0.05,0.5
			L386.16,210.6z M396.04,209.64l-0.05-0.5l4.94-0.48l0.05,0.5L396.04,209.64z M405.92,208.67l-0.05-0.5l4.94-0.48l0.05,0.5
			L405.92,208.67z M415.8,207.71l-0.05-0.5l4.94-0.48l0.05,0.5L415.8,207.71z M425.68,206.75l-0.05-0.5l4.94-0.48l0.05,0.5
			L425.68,206.75z M435.56,205.78l-0.05-0.5l4.94-0.48l0.05,0.5L435.56,205.78z M445.44,204.82l-0.05-0.5l4.94-0.48l0.05,0.5
			L445.44,204.82z M455.32,203.86l-0.05-0.5l4.94-0.48l0.05,0.5L455.32,203.86z"/>
		
			<rect x="465.17" y="202.27" transform="matrix(0.9952 -0.0976 0.0976 0.9952 -17.5348 46.4751)" class="st1" width="2.5" height="0.5"/>
	</g>
	<g>
		
			<rect x="32.63" y="327" transform="matrix(0.9952 -0.0976 0.0976 0.9952 -31.7689 4.8669)" class="st1" width="2.5" height="0.5"/>
		<path class="st1" d="M40.08,326.9l-0.05-0.5l4.94-0.48l0.05,0.5L40.08,326.9z M49.96,325.93l-0.05-0.5l4.94-0.48l0.05,0.5
			L49.96,325.93z M59.84,324.97l-0.05-0.5l4.94-0.48l0.05,0.5L59.84,324.97z M69.72,324.01l-0.05-0.5l4.94-0.48l0.05,0.5
			L69.72,324.01z M79.6,323.04l-0.05-0.5l4.94-0.48l0.05,0.5L79.6,323.04z M89.48,322.08l-0.05-0.5l4.94-0.48l0.05,0.5L89.48,322.08
			z M99.36,321.12l-0.05-0.5l4.94-0.48l0.05,0.5L99.36,321.12z M109.24,320.15l-0.05-0.5l4.94-0.48l0.05,0.5L109.24,320.15z
			 M119.12,319.19l-0.05-0.5l4.94-0.48l0.05,0.5L119.12,319.19z M129,318.22l-0.05-0.5l4.94-0.48l0.05,0.5L129,318.22z
			 M138.88,317.26l-0.05-0.5l4.94-0.48l0.05,0.5L138.88,317.26z M148.76,316.3l-0.05-0.5l4.94-0.48l0.05,0.5L148.76,316.3z
			 M158.64,315.33l-0.05-0.5l4.94-0.48l0.05,0.5L158.64,315.33z M168.52,314.37l-0.05-0.5l4.94-0.48l0.05,0.5L168.52,314.37z
			 M178.4,313.4l-0.05-0.5l4.94-0.48l0.05,0.5L178.4,313.4z M188.28,312.44l-0.05-0.5l4.94-0.48l0.05,0.5L188.28,312.44z
			 M198.16,311.48l-0.05-0.5l4.94-0.48l0.05,0.5L198.16,311.48z M208.04,310.51l-0.05-0.5l4.94-0.48l0.05,0.5L208.04,310.51z
			 M217.92,309.55l-0.05-0.5l4.94-0.48l0.05,0.5L217.92,309.55z M227.8,308.59l-0.05-0.5l4.94-0.48l0.05,0.5L227.8,308.59z
			 M237.68,307.62l-0.05-0.5l4.94-0.48l0.05,0.5L237.68,307.62z M247.55,306.66l-0.05-0.5l4.94-0.48l0.05,0.5L247.55,306.66z
			 M257.43,305.69l-0.05-0.5l4.94-0.48l0.05,0.5L257.43,305.69z M267.31,304.73l-0.05-0.5l4.94-0.48l0.05,0.5L267.31,304.73z
			 M277.19,303.77l-0.05-0.5l4.94-0.48l0.05,0.5L277.19,303.77z M287.07,302.8l-0.05-0.5l4.94-0.48l0.05,0.5L287.07,302.8z
			 M296.95,301.84l-0.05-0.5l4.94-0.48l0.05,0.5L296.95,301.84z M306.83,300.87l-0.05-0.5l4.94-0.48l0.05,0.5L306.83,300.87z
			 M316.71,299.91l-0.05-0.5l4.94-0.48l0.05,0.5L316.71,299.91z M326.59,298.95l-0.05-0.5l4.94-0.48l0.05,0.5L326.59,298.95z
			 M336.47,297.98l-0.05-0.5l4.94-0.48l0.05,0.5L336.47,297.98z M346.35,297.02l-0.05-0.5l4.94-0.48l0.05,0.5L346.35,297.02z
			 M356.23,296.06l-0.05-0.5l4.94-0.48l0.05,0.5L356.23,296.06z M366.11,295.09l-0.05-0.5l4.94-0.48l0.05,0.5L366.11,295.09z
			 M375.99,294.13l-0.05-0.5l4.94-0.48l0.05,0.5L375.99,294.13z M385.87,293.16l-0.05-0.5l4.94-0.48l0.05,0.5L385.87,293.16z
			 M395.75,292.2l-0.05-0.5l4.94-0.48l0.05,0.5L395.75,292.2z M405.63,291.24l-0.05-0.5l4.94-0.48l0.05,0.5L405.63,291.24z
			 M415.51,290.27l-0.05-0.5l4.94-0.48l0.05,0.5L415.51,290.27z M425.39,289.31l-0.05-0.5l4.94-0.48l0.05,0.5L425.39,289.31z
			 M435.27,288.34l-0.05-0.5l4.94-0.48l0.05,0.5L435.27,288.34z M445.14,287.38l-0.05-0.5l4.94-0.48l0.05,0.5L445.14,287.38z
			 M455.02,286.42l-0.05-0.5l4.94-0.48l0.05,0.5L455.02,286.42z"/>
		
			<rect x="464.87" y="284.83" transform="matrix(0.9952 -0.0976 0.0976 0.9952 -25.5918 46.8406)" class="st1" width="2.5" height="0.5"/>
	</g>
	<g>
		
			<rect x="192.44" y="52.8" transform="matrix(0.9953 -0.0973 0.0973 0.9953 -4.3441 19.0008)" class="st1" width="0.5" height="2.5"/>
		<path class="st1" d="M233.04,470.26l-0.48-4.94l0.5-0.05l0.48,4.94L233.04,470.26z M232.08,460.38l-0.48-4.94l0.5-0.05l0.48,4.94
			L232.08,460.38z M231.11,450.5l-0.48-4.94l0.5-0.05l0.48,4.94L231.11,450.5z M230.15,440.62l-0.48-4.94l0.5-0.05l0.48,4.94
			L230.15,440.62z M229.19,430.74l-0.48-4.94l0.5-0.05l0.48,4.94L229.19,430.74z M228.22,420.86l-0.48-4.94l0.5-0.05l0.48,4.94
			L228.22,420.86z M227.26,410.98l-0.48-4.94l0.5-0.05l0.48,4.94L227.26,410.98z M226.29,401.1l-0.48-4.94l0.5-0.05l0.48,4.94
			L226.29,401.1z M225.33,391.22l-0.48-4.94l0.5-0.05l0.48,4.94L225.33,391.22z M224.37,381.34l-0.48-4.94l0.5-0.05l0.48,4.94
			L224.37,381.34z M223.4,371.46l-0.48-4.94l0.5-0.05l0.48,4.94L223.4,371.46z M222.44,361.58l-0.48-4.94l0.5-0.05l0.48,4.94
			L222.44,361.58z M221.47,351.7l-0.48-4.94l0.5-0.05l0.48,4.94L221.47,351.7z M220.51,341.83l-0.48-4.94l0.5-0.05l0.48,4.94
			L220.51,341.83z M219.55,331.95l-0.48-4.94l0.5-0.05l0.48,4.94L219.55,331.95z M218.58,322.07l-0.48-4.94l0.5-0.05l0.48,4.94
			L218.58,322.07z M217.62,312.19l-0.48-4.94l0.5-0.05l0.48,4.94L217.62,312.19z M216.66,302.31l-0.48-4.94l0.5-0.05l0.48,4.94
			L216.66,302.31z M215.69,292.43l-0.48-4.94l0.5-0.05l0.48,4.94L215.69,292.43z M214.73,282.55l-0.48-4.94l0.5-0.05l0.48,4.94
			L214.73,282.55z M213.76,272.67l-0.48-4.94l0.5-0.05l0.48,4.94L213.76,272.67z M212.8,262.79l-0.48-4.94l0.5-0.05l0.48,4.94
			L212.8,262.79z M211.84,252.91l-0.48-4.94l0.5-0.05l0.48,4.94L211.84,252.91z M210.87,243.03l-0.48-4.94l0.5-0.05l0.48,4.94
			L210.87,243.03z M209.91,233.15l-0.48-4.94l0.5-0.05l0.48,4.94L209.91,233.15z M208.94,223.27l-0.48-4.94l0.5-0.05l0.48,4.94
			L208.94,223.27z M207.98,213.39l-0.48-4.94l0.5-0.05l0.48,4.94L207.98,213.39z M207.02,203.51l-0.48-4.94l0.5-0.05l0.48,4.94
			L207.02,203.51z M206.05,193.63l-0.48-4.94l0.5-0.05l0.48,4.94L206.05,193.63z M205.09,183.75l-0.48-4.94l0.5-0.05l0.48,4.94
			L205.09,183.75z M204.13,173.87l-0.48-4.94l0.5-0.05l0.48,4.94L204.13,173.87z M203.16,163.99l-0.48-4.94l0.5-0.05l0.48,4.94
			L203.16,163.99z M202.2,154.11l-0.48-4.94l0.5-0.05l0.48,4.94L202.2,154.11z M201.23,144.23l-0.48-4.94l0.5-0.05l0.48,4.94
			L201.23,144.23z M200.27,134.36l-0.48-4.94l0.5-0.05l0.48,4.94L200.27,134.36z M199.31,124.48l-0.48-4.94l0.5-0.05l0.48,4.94
			L199.31,124.48z M198.34,114.6l-0.48-4.94l0.5-0.05l0.48,4.94L198.34,114.6z M197.38,104.72l-0.48-4.94l0.5-0.05l0.48,4.94
			L197.38,104.72z M196.41,94.84l-0.48-4.94l0.5-0.05l0.48,4.94L196.41,94.84z M195.45,84.96l-0.48-4.94l0.5-0.05l0.48,4.94
			L195.45,84.96z M194.49,75.08L194,70.14l0.5-0.05l0.48,4.94L194.49,75.08z M193.52,65.2l-0.48-4.94l0.5-0.05l0.48,4.94
			L193.52,65.2z"/>
	</g>
	<g>
		
			<rect x="318.08" y="52.8" transform="matrix(0.9953 -0.0973 0.0973 0.9953 -3.7482 31.2233)" class="st1" width="0.5" height="2.5"/>
		<path class="st1" d="M357.72,460.38l-0.48-4.94l0.5-0.05l0.48,4.94L357.72,460.38z M356.76,450.5l-0.48-4.94l0.5-0.05l0.48,4.94
			L356.76,450.5z M355.79,440.62l-0.48-4.94l0.5-0.05l0.48,4.94L355.79,440.62z M354.83,430.74l-0.48-4.94l0.5-0.05l0.48,4.94
			L354.83,430.74z M353.87,420.86l-0.48-4.94l0.5-0.05l0.48,4.94L353.87,420.86z M352.9,410.98l-0.48-4.94l0.5-0.05l0.48,4.94
			L352.9,410.98z M351.94,401.1l-0.48-4.94l0.5-0.05l0.48,4.94L351.94,401.1z M350.97,391.22l-0.48-4.94l0.5-0.05l0.48,4.94
			L350.97,391.22z M350.01,381.34l-0.48-4.94l0.5-0.05l0.48,4.94L350.01,381.34z M349.05,371.46l-0.48-4.94l0.5-0.05l0.48,4.94
			L349.05,371.46z M348.08,361.58l-0.48-4.94l0.5-0.05l0.48,4.94L348.08,361.58z M347.12,351.7l-0.48-4.94l0.5-0.05l0.48,4.94
			L347.12,351.7z M346.15,341.83l-0.48-4.94l0.5-0.05l0.48,4.94L346.15,341.83z M345.19,331.95l-0.48-4.94l0.5-0.05l0.48,4.94
			L345.19,331.95z M344.23,322.07l-0.48-4.94l0.5-0.05l0.48,4.94L344.23,322.07z M343.26,312.19l-0.48-4.94l0.5-0.05l0.48,4.94
			L343.26,312.19z M342.3,302.31l-0.48-4.94l0.5-0.05l0.48,4.94L342.3,302.31z M341.33,292.43l-0.48-4.94l0.5-0.05l0.48,4.94
			L341.33,292.43z M340.37,282.55l-0.48-4.94l0.5-0.05l0.48,4.94L340.37,282.55z M339.41,272.67l-0.48-4.94l0.5-0.05l0.48,4.94
			L339.41,272.67z M338.44,262.79l-0.48-4.94l0.5-0.05l0.48,4.94L338.44,262.79z M337.48,252.91l-0.48-4.94l0.5-0.05l0.48,4.94
			L337.48,252.91z M336.52,243.03l-0.48-4.94l0.5-0.05l0.48,4.94L336.52,243.03z M335.55,233.15l-0.48-4.94l0.5-0.05l0.48,4.94
			L335.55,233.15z M334.59,223.27l-0.48-4.94l0.5-0.05l0.48,4.94L334.59,223.27z M333.62,213.39l-0.48-4.94l0.5-0.05l0.48,4.94
			L333.62,213.39z M332.66,203.51l-0.48-4.94l0.5-0.05l0.48,4.94L332.66,203.51z M331.7,193.63l-0.48-4.94l0.5-0.05l0.48,4.94
			L331.7,193.63z M330.73,183.75l-0.48-4.94l0.5-0.05l0.48,4.94L330.73,183.75z M329.77,173.87l-0.48-4.94l0.5-0.05l0.48,4.94
			L329.77,173.87z M328.8,163.99l-0.48-4.94l0.5-0.05l0.48,4.94L328.8,163.99z M327.84,154.11l-0.48-4.94l0.5-0.05l0.48,4.94
			L327.84,154.11z M326.88,144.23l-0.48-4.94l0.5-0.05l0.48,4.94L326.88,144.23z M325.91,134.36l-0.48-4.94l0.5-0.05l0.48,4.94
			L325.91,134.36z M324.95,124.48l-0.48-4.94l0.5-0.05l0.48,4.94L324.95,124.48z M323.99,114.6l-0.48-4.94l0.5-0.05l0.48,4.94
			L323.99,114.6z M323.02,104.72l-0.48-4.94l0.5-0.05l0.48,4.94L323.02,104.72z M322.06,94.84l-0.48-4.94l0.5-0.05l0.48,4.94
			L322.06,94.84z M321.09,84.96l-0.48-4.94l0.5-0.05l0.48,4.94L321.09,84.96z M320.13,75.08l-0.48-4.94l0.5-0.05l0.48,4.94
			L320.13,75.08z M319.17,65.2l-0.48-4.94l0.5-0.05l0.48,4.94L319.17,65.2z"/>
	</g>
	<path class="st1" d="M249.45,313.88c-0.68,0-1.35-0.01-2.02-0.02l0.01-0.5c1.65,0.04,3.32,0.03,4.99-0.03l0.02,0.5
		C251.45,313.86,250.44,313.88,249.45,313.88z M242.42,313.61c-1.66-0.13-3.34-0.3-4.98-0.52l0.07-0.5
		c1.64,0.22,3.31,0.39,4.96,0.51L242.42,313.61z M257.44,313.53l-0.04-0.5c1.65-0.14,3.31-0.33,4.95-0.57l0.07,0.5
		C260.77,313.2,259.1,313.39,257.44,313.53z M232.49,312.3c-1.63-0.31-3.28-0.66-4.9-1.06l0.12-0.49c1.61,0.4,3.25,0.75,4.87,1.06
		L232.49,312.3z M267.36,312.12l-0.1-0.49c1.62-0.32,3.26-0.69,4.86-1.11l0.12,0.48C270.64,311.42,268.99,311.79,267.36,312.12z
		 M222.76,309.91c-1.59-0.49-3.19-1.02-4.76-1.6l0.17-0.47c1.56,0.57,3.15,1.11,4.74,1.59L222.76,309.91z M277.06,309.62l-0.15-0.48
		c1.58-0.5,3.16-1.05,4.71-1.64l0.18,0.47C280.24,308.57,278.65,309.12,277.06,309.62z M213.34,306.45
		c-1.53-0.66-3.06-1.37-4.55-2.11l0.22-0.45c1.49,0.74,3.01,1.45,4.53,2.1L213.34,306.45z M286.42,306.07l-0.2-0.46
		c1.51-0.67,3.02-1.39,4.49-2.14l0.23,0.45C289.46,304.67,287.94,305.4,286.42,306.07z M204.36,301.97c-1.45-0.83-2.89-1.7-4.29-2.6
		l0.27-0.42c1.39,0.9,2.83,1.77,4.27,2.59L204.36,301.97z M295.33,301.52l-0.25-0.43c1.43-0.83,2.85-1.72,4.23-2.63l0.28,0.42
		C298.2,299.79,296.77,300.68,295.33,301.52z M195.93,296.54c-1.34-0.97-2.68-2-3.98-3.05l0.32-0.39c1.29,1.05,2.62,2.07,3.96,3.04
		L195.93,296.54z M303.69,296.01l-0.3-0.4c1.33-0.98,2.64-2.02,3.92-3.07l0.32,0.38C306.35,293.98,305.02,295.02,303.69,296.01z
		 M188.15,290.22c-1.23-1.11-2.44-2.28-3.62-3.47l0.36-0.35c1.17,1.18,2.38,2.34,3.6,3.45L188.15,290.22z M311.4,289.62l-0.34-0.37
		c1.21-1.12,2.41-2.3,3.56-3.48l0.36,0.35C313.83,287.31,312.62,288.49,311.4,289.62z M181.11,283.09c-1.1-1.24-2.18-2.53-3.22-3.84
		l0.39-0.31c1.03,1.3,2.11,2.58,3.2,3.82L181.11,283.09z M318.38,282.42l-0.38-0.33c1.08-1.25,2.15-2.55,3.16-3.85l0.39,0.31
		C320.54,279.86,319.47,281.16,318.38,282.42z M174.89,275.24c-0.96-1.36-1.9-2.76-2.78-4.17l0.42-0.27
		c0.88,1.4,1.81,2.79,2.76,4.14L174.89,275.24z M324.52,274.5l-0.41-0.28c0.94-1.36,1.86-2.77,2.73-4.18l0.43,0.26
		C326.39,271.72,325.47,273.13,324.52,274.5z M169.57,266.76c-0.8-1.45-1.58-2.95-2.3-4.44l0.45-0.22c0.72,1.49,1.49,2.97,2.29,4.42
		L169.57,266.76z M329.77,265.95l-0.44-0.24c0.79-1.46,1.55-2.96,2.25-4.45l0.45,0.21C331.33,262.98,330.56,264.48,329.77,265.95z
		 M165.21,257.75c-0.64-1.53-1.24-3.1-1.8-4.67l0.47-0.17c0.55,1.56,1.15,3.12,1.79,4.64L165.21,257.75z M334.05,256.87l-0.46-0.19
		c0.62-1.53,1.21-3.11,1.75-4.68l0.47,0.16C335.26,253.75,334.67,255.33,334.05,256.87z M161.88,248.32
		c-0.47-1.59-0.9-3.22-1.27-4.85l0.49-0.11c0.38,1.61,0.8,3.24,1.27,4.82L161.88,248.32z M337.29,247.39l-0.48-0.14
		c0.45-1.59,0.86-3.22,1.22-4.83l0.49,0.11C338.15,244.15,337.74,245.79,337.29,247.39z M159.6,238.56
		c-0.29-1.63-0.53-3.3-0.73-4.96l0.5-0.06c0.2,1.65,0.44,3.3,0.73,4.93L159.6,238.56z M339.47,237.61l-0.49-0.08
		c0.27-1.63,0.5-3.3,0.68-4.94l0.5,0.05C339.97,234.29,339.74,235.96,339.47,237.61z M158.4,228.61c-0.11-1.65-0.17-3.33-0.19-5.01
		l0.5-0.01c0.02,1.67,0.08,3.34,0.19,4.98L158.4,228.61z M340.55,227.65l-0.5-0.03c0.09-1.65,0.13-3.33,0.13-4.98
		c0-0.64-0.01-1.29-0.02-1.93l0.5-0.01c0.01,0.64,0.02,1.29,0.02,1.94C340.69,224.3,340.64,225.99,340.55,227.65z M158.8,218.61
		l-0.5-0.02c0.07-1.67,0.19-3.35,0.35-5l0.5,0.05C158.99,215.28,158.87,216.96,158.8,218.61z M339.93,215.73
		c-0.12-1.65-0.3-3.32-0.51-4.96l0.5-0.06c0.22,1.65,0.39,3.33,0.51,4.98L339.93,215.73z M159.77,208.7l-0.49-0.08
		c0.25-1.65,0.56-3.3,0.9-4.93l0.49,0.1C160.33,205.41,160.03,207.06,159.77,208.7z M338.64,205.85c-0.3-1.63-0.66-3.27-1.05-4.87
		l0.49-0.12c0.4,1.61,0.75,3.26,1.06,4.9L338.64,205.85z M161.83,198.95l-0.48-0.13c0.43-1.6,0.92-3.22,1.44-4.8l0.47,0.16
		C162.74,195.75,162.26,197.35,161.83,198.95z M336.27,196.17c-0.48-1.58-1.01-3.17-1.58-4.73l0.47-0.17
		c0.57,1.56,1.11,3.16,1.59,4.75L336.27,196.17z M164.96,189.48l-0.47-0.18c0.61-1.55,1.27-3.1,1.96-4.62l0.46,0.21
		C166.22,186.39,165.57,187.94,164.96,189.48z M332.85,186.83c-0.65-1.52-1.36-3.04-2.09-4.52l0.45-0.22
		c0.74,1.49,1.45,3.01,2.1,4.54L332.85,186.83z M169.12,180.41l-0.44-0.23c0.77-1.47,1.6-2.94,2.46-4.37l0.43,0.26
		C170.71,177.48,169.89,178.94,169.12,180.41z M328.42,177.92c-0.82-1.44-1.68-2.87-2.58-4.26l0.42-0.27
		c0.9,1.4,1.77,2.84,2.59,4.28L328.42,177.92z M174.24,171.85l-0.41-0.28c0.93-1.38,1.91-2.75,2.92-4.08l0.4,0.3
		C176.15,169.12,175.17,170.48,174.24,171.85z M323.04,169.54c-0.96-1.33-1.98-2.67-3.03-3.96l0.39-0.31
		c1.05,1.3,2.07,2.64,3.04,3.98L323.04,169.54z M180.28,163.91l-0.38-0.32c1.08-1.27,2.21-2.52,3.35-3.73l0.36,0.34
		C182.47,161.4,181.35,162.65,180.28,163.91z M316.77,161.8c-1.11-1.22-2.26-2.44-3.44-3.6l0.35-0.36c1.18,1.17,2.35,2.39,3.46,3.62
		L316.77,161.8z M187.13,156.68l-0.34-0.36c1.21-1.15,2.47-2.27,3.73-3.34l0.32,0.38C189.59,154.42,188.34,155.54,187.13,156.68z
		 M309.69,154.78c-1.23-1.1-2.52-2.18-3.82-3.21l0.31-0.39c1.31,1.04,2.6,2.13,3.84,3.23L309.69,154.78z M194.74,150.24l-0.3-0.4
		c1.33-1,2.7-1.98,4.07-2.91l0.28,0.42C197.42,148.27,196.06,149.24,194.74,150.24z M301.89,148.58c-1.35-0.96-2.75-1.89-4.15-2.77
		l0.27-0.42c1.41,0.89,2.81,1.82,4.17,2.79L301.89,148.58z M202.99,144.68l-0.26-0.43c1.42-0.85,2.89-1.67,4.37-2.45l0.23,0.44
		C205.87,143.01,204.41,143.83,202.99,144.68z M293.45,143.26c-1.45-0.8-2.94-1.58-4.43-2.3l0.22-0.45c1.5,0.73,3,1.51,4.45,2.31
		L293.45,143.26z M211.81,140.05l-0.21-0.46c1.51-0.69,3.06-1.34,4.61-1.95l0.18,0.47C214.85,138.71,213.3,139.37,211.81,140.05z
		 M284.47,138.9c-1.53-0.64-3.1-1.25-4.66-1.8l0.17-0.47c1.57,0.56,3.14,1.17,4.68,1.81L284.47,138.9z M221.08,136.42l-0.16-0.47
		c1.58-0.52,3.2-1,4.8-1.43l0.13,0.48C224.26,135.43,222.65,135.91,221.08,136.42z M275.08,135.57c-1.59-0.47-3.21-0.89-4.82-1.27
		l0.11-0.49c1.62,0.38,3.25,0.81,4.85,1.28L275.08,135.57z M230.7,133.84l-0.1-0.49c1.63-0.34,3.29-0.64,4.93-0.89l0.08,0.49
		C233.97,133.2,232.32,133.5,230.7,133.84z M265.37,133.29c-1.63-0.29-3.29-0.53-4.93-0.73l0.06-0.5c1.65,0.2,3.32,0.45,4.96,0.74
		L265.37,133.29z M240.55,132.33l-0.05-0.5c1.65-0.16,3.34-0.28,5-0.35l0.02,0.5C243.86,132.05,242.19,132.17,240.55,132.33z
		 M255.48,132.1c-1.65-0.11-3.32-0.17-4.98-0.19l0.01-0.5c1.66,0.02,3.35,0.08,5.01,0.19L255.48,132.1z"/>
	<path class="st1" d="M306.5,345.37c-1.29,0-2.59-0.03-3.88-0.08l0.02-0.5c1.65,0.07,3.33,0.09,4.98,0.07l0.01,0.5
		C307.25,345.37,306.88,345.37,306.5,345.37z M312.64,345.17l-0.03-0.5c1.65-0.11,3.32-0.27,4.96-0.47l0.06,0.5
		C315.98,344.9,314.3,345.06,312.64,345.17z M297.62,344.94c-1.66-0.16-3.33-0.37-4.97-0.63l0.08-0.49
		c1.63,0.25,3.29,0.46,4.94,0.62L297.62,344.94z M322.58,343.94l-0.09-0.49c1.63-0.29,3.27-0.64,4.88-1.02l0.12,0.49
		C325.87,343.3,324.22,343.65,322.58,343.94z M287.72,343.41c-1.63-0.35-3.27-0.74-4.87-1.18l0.13-0.48
		c1.6,0.43,3.23,0.83,4.84,1.17L287.72,343.41z M332.33,341.62l-0.14-0.48c1.59-0.47,3.18-1,4.73-1.56l0.17,0.47
		C335.52,340.61,333.92,341.14,332.33,341.62z M278.05,340.79c-1.58-0.52-3.17-1.1-4.72-1.72l0.18-0.46
		c1.54,0.61,3.12,1.19,4.69,1.71L278.05,340.79z M341.74,338.22l-0.2-0.46c1.52-0.65,3.04-1.35,4.52-2.08l0.22,0.45
		C344.8,336.86,343.27,337.56,341.74,338.22z M268.72,337.09c-1.51-0.7-3.02-1.45-4.49-2.23l0.24-0.44
		c1.46,0.78,2.97,1.53,4.47,2.22L268.72,337.09z M350.71,333.79l-0.25-0.44c1.44-0.81,2.87-1.68,4.27-2.57l0.27,0.42
		C353.6,332.1,352.16,332.97,350.71,333.79z M259.86,332.38c-1.42-0.86-2.84-1.78-4.21-2.72l0.28-0.41c1.37,0.94,2.78,1.85,4.19,2.7
		L259.86,332.38z M359.15,328.39l-0.29-0.41c1.34-0.97,2.67-1.98,3.96-3.03l0.31,0.39C361.83,326.39,360.49,327.42,359.15,328.39z
		 M251.59,326.71c-1.32-1.02-2.63-2.08-3.89-3.17l0.33-0.38c1.25,1.08,2.55,2.14,3.86,3.15L251.59,326.71z M366.93,322.09
		l-0.34-0.37c1.23-1.11,2.44-2.27,3.6-3.45l0.36,0.35C369.38,319.8,368.17,320.97,366.93,322.09z M244,320.16
		c-1.2-1.15-2.38-2.36-3.51-3.58l0.37-0.34c1.13,1.21,2.3,2.41,3.49,3.56L244,320.16z M373.97,314.96l-0.38-0.33
		c1.1-1.24,2.18-2.53,3.2-3.82l0.39,0.31C376.16,312.42,375.08,313.71,373.97,314.96z M237.18,312.82c-1.06-1.28-2.1-2.61-3.09-3.94
		l0.4-0.3c0.98,1.33,2.02,2.65,3.08,3.92L237.18,312.82z M380.19,307.1l-0.41-0.29c0.95-1.35,1.88-2.75,2.76-4.16l0.42,0.26
		C382.08,304.33,381.15,305.74,380.19,307.1z M231.22,304.77c-0.92-1.39-1.8-2.82-2.64-4.26l0.43-0.25
		c0.83,1.43,1.71,2.85,2.62,4.23L231.22,304.77z M385.5,298.59l-0.44-0.24c0.8-1.45,1.56-2.94,2.28-4.44l0.45,0.22
		C387.07,295.63,386.3,297.13,385.5,298.59z M226.19,296.12c-0.75-1.48-1.47-3-2.15-4.52l0.46-0.2c0.67,1.51,1.38,3.02,2.13,4.5
		L226.19,296.12z M389.83,289.53l-0.46-0.19c0.63-1.53,1.22-3.1,1.77-4.67l0.47,0.16C391.06,286.41,390.46,287.99,389.83,289.53z
		 M222.16,286.97c-0.59-1.56-1.13-3.15-1.63-4.74l0.48-0.15c0.49,1.58,1.04,3.16,1.62,4.71L222.16,286.97z M393.11,280.06
		l-0.48-0.14c0.45-1.59,0.87-3.22,1.23-4.83l0.49,0.11C393.99,276.82,393.57,278.46,393.11,280.06z M219.17,277.41
		c-0.41-1.61-0.77-3.26-1.09-4.89l0.49-0.09c0.31,1.62,0.68,3.26,1.08,4.86L219.17,277.41z M395.32,270.28l-0.49-0.08
		c0.27-1.63,0.5-3.29,0.68-4.94l0.5,0.05C395.82,266.97,395.59,268.64,395.32,270.28z M217.27,267.57
		c-0.22-1.65-0.41-3.33-0.54-4.98l0.5-0.04c0.13,1.65,0.31,3.31,0.53,4.95L217.27,267.57z M396.42,260.33l-0.5-0.03
		c0.09-1.65,0.14-3.32,0.14-4.98c0-1.49-0.04-3-0.11-4.48l0.5-0.02c0.07,1.49,0.11,3.01,0.11,4.51
		C396.55,256.98,396.51,258.67,396.42,260.33z M216.47,257.58c-0.02-0.75-0.03-1.51-0.03-2.26c0-0.92,0.01-1.83,0.04-2.75l0.5,0.01
		c-0.03,0.91-0.04,1.82-0.04,2.73c0,0.75,0.01,1.5,0.03,2.25L216.47,257.58z M217.27,247.61l-0.5-0.04
		c0.14-1.66,0.33-3.33,0.56-4.98l0.5,0.07C217.59,244.3,217.41,245.96,217.27,247.61z M395.56,245.86c-0.17-1.64-0.39-3.3-0.66-4.94
		l0.49-0.08c0.27,1.64,0.49,3.32,0.66,4.97L395.56,245.86z M218.66,237.74l-0.49-0.1c0.32-1.63,0.7-3.28,1.11-4.89l0.48,0.12
		C219.36,234.49,218.99,236.12,218.66,237.74z M393.97,236.03c-0.36-1.62-0.76-3.25-1.2-4.84l0.48-0.13
		c0.45,1.6,0.85,3.24,1.21,4.86L393.97,236.03z M221.15,228.1l-0.48-0.15c0.51-1.59,1.06-3.19,1.66-4.74l0.47,0.18
		C222.21,224.93,221.65,226.51,221.15,228.1z M391.29,226.43c-0.53-1.57-1.12-3.14-1.74-4.67l0.46-0.19
		c0.62,1.54,1.21,3.12,1.75,4.7L391.29,226.43z M224.71,218.77l-0.46-0.2c0.68-1.52,1.41-3.04,2.18-4.52l0.44,0.23
		C226.12,215.74,225.39,217.26,224.71,218.77z M387.56,217.2c-0.7-1.49-1.46-2.99-2.25-4.44l0.44-0.24
		c0.79,1.46,1.55,2.96,2.26,4.47L387.56,217.2z M229.29,209.91l-0.43-0.25c0.85-1.44,1.74-2.87,2.67-4.25l0.42,0.28
		C231.02,207.06,230.13,208.48,229.29,209.91z M382.83,208.45c-0.87-1.41-1.78-2.81-2.73-4.17l0.41-0.29
		c0.95,1.36,1.87,2.77,2.74,4.19L382.83,208.45z M234.82,201.61l-0.4-0.3c1-1.33,2.05-2.65,3.12-3.93l0.38,0.32
		C236.86,198.97,235.82,200.29,234.82,201.61z M377.15,200.27c-1.02-1.3-2.08-2.59-3.17-3.84l0.38-0.33
		c1.1,1.25,2.17,2.55,3.19,3.86L377.15,200.27z M241.24,193.98l-0.36-0.34c1.14-1.21,2.33-2.41,3.53-3.56l0.34,0.36
		C243.55,191.59,242.37,192.78,241.24,193.98z M370.59,192.77c-1.16-1.18-2.36-2.35-3.58-3.47l0.34-0.37
		c1.23,1.12,2.44,2.3,3.6,3.49L370.59,192.77z M248.46,187.11l-0.32-0.38c1.27-1.08,2.58-2.14,3.9-3.14l0.3,0.4
		C251.02,184.99,249.72,186.04,248.46,187.11z M363.25,186.03c-1.28-1.05-2.61-2.08-3.94-3.05l0.29-0.4
		c1.34,0.98,2.68,2.02,3.96,3.07L363.25,186.03z M256.38,181.08l-0.28-0.41c1.38-0.93,2.8-1.84,4.22-2.69l0.26,0.43
		C259.17,179.26,257.75,180.16,256.38,181.08z M355.2,180.15c-1.39-0.9-2.82-1.78-4.26-2.6l0.25-0.43c1.45,0.83,2.89,1.71,4.28,2.61
		L355.2,180.15z M264.93,175.97l-0.23-0.44c1.47-0.77,2.98-1.51,4.49-2.2l0.21,0.46C267.89,174.47,266.39,175.2,264.93,175.97z
		 M346.54,175.19c-1.48-0.74-3-1.45-4.52-2.11l0.2-0.46c1.53,0.66,3.06,1.38,4.55,2.12L346.54,175.19z M273.98,171.85l-0.18-0.47
		c1.55-0.61,3.14-1.17,4.72-1.69l0.16,0.48C277.1,170.68,275.52,171.24,273.98,171.85z M337.38,171.23
		c-1.56-0.57-3.15-1.11-4.73-1.59l0.15-0.48c1.59,0.49,3.19,1.02,4.76,1.6L337.38,171.23z M283.45,168.75l-0.13-0.48
		c1.61-0.43,3.25-0.81,4.88-1.15l0.1,0.49C286.68,167.94,285.04,168.33,283.45,168.75z M327.84,168.32
		c-1.61-0.39-3.25-0.75-4.87-1.05l0.09-0.49c1.63,0.3,3.28,0.66,4.9,1.05L327.84,168.32z M293.21,166.74l-0.07-0.49
		c1.64-0.25,3.32-0.45,4.98-0.6l0.05,0.5C296.5,166.29,294.84,166.5,293.21,166.74z M318.05,166.5c-1.64-0.21-3.31-0.38-4.96-0.5
		l0.04-0.5c1.66,0.12,3.33,0.29,4.99,0.5L318.05,166.5z M303.13,165.82l-0.02-0.5c1.12-0.04,2.24-0.06,3.35-0.06
		c0.58,0.01,1.11,0,1.66,0.01l-0.01,0.5c-0.55-0.01-1.09-0.03-1.65-0.01C305.36,165.76,304.24,165.78,303.13,165.82z"/>
	<path class="st1" d="M193.5,352.43c-1.29,0-2.59-0.03-3.88-0.08l0.02-0.5c1.65,0.07,3.33,0.09,4.98,0.07l0.01,0.5
		C194.26,352.43,193.88,352.43,193.5,352.43z M199.65,352.23l-0.03-0.5c1.65-0.11,3.32-0.27,4.96-0.47l0.06,0.5
		C202.99,351.96,201.31,352.12,199.65,352.23z M184.63,352c-1.66-0.16-3.33-0.37-4.97-0.63l0.08-0.49c1.63,0.25,3.29,0.46,4.94,0.62
		L184.63,352z M209.59,351l-0.09-0.49c1.63-0.29,3.27-0.64,4.88-1.02l0.12,0.49C212.88,350.36,211.23,350.71,209.59,351z
		 M174.73,350.47c-1.63-0.35-3.27-0.74-4.87-1.18l0.13-0.48c1.6,0.43,3.23,0.83,4.84,1.17L174.73,350.47z M219.33,348.68l-0.14-0.48
		c1.59-0.47,3.18-1,4.73-1.56l0.17,0.47C222.53,347.67,220.93,348.2,219.33,348.68z M165.06,347.85c-1.58-0.52-3.17-1.1-4.72-1.72
		l0.18-0.46c1.54,0.61,3.12,1.19,4.69,1.71L165.06,347.85z M228.75,345.28l-0.2-0.46c1.52-0.65,3.04-1.35,4.52-2.08l0.22,0.45
		C231.81,343.92,230.28,344.63,228.75,345.28z M155.73,344.15c-1.51-0.7-3.02-1.45-4.49-2.23l0.24-0.44
		c1.46,0.78,2.97,1.53,4.47,2.22L155.73,344.15z M237.72,340.85l-0.25-0.44c1.44-0.81,2.87-1.68,4.27-2.57l0.27,0.42
		C240.61,339.17,239.17,340.03,237.72,340.85z M146.87,339.44c-1.43-0.86-2.84-1.78-4.22-2.72l0.28-0.41
		c1.36,0.94,2.77,1.84,4.19,2.7L146.87,339.44z M246.15,335.45l-0.29-0.41c1.34-0.97,2.67-1.98,3.96-3.03l0.31,0.39
		C248.84,333.45,247.5,334.48,246.15,335.45z M138.6,333.77c-1.32-1.02-2.63-2.08-3.89-3.17l0.33-0.38
		c1.25,1.08,2.55,2.14,3.86,3.15L138.6,333.77z M253.94,329.15l-0.34-0.37c1.23-1.11,2.44-2.27,3.6-3.45l0.36,0.35
		C256.39,326.86,255.17,328.03,253.94,329.15z M131.01,327.22c-1.2-1.15-2.38-2.36-3.51-3.58l0.37-0.34
		c1.13,1.21,2.3,2.41,3.49,3.56L131.01,327.22z M260.98,322.02l-0.38-0.33c1.1-1.24,2.18-2.53,3.2-3.82l0.39,0.31
		C263.17,319.48,262.09,320.77,260.98,322.02z M124.19,319.88c-1.06-1.28-2.1-2.61-3.09-3.94l0.4-0.3c0.98,1.33,2.02,2.65,3.08,3.92
		L124.19,319.88z M267.2,314.16l-0.41-0.29c0.95-1.35,1.88-2.75,2.76-4.16l0.42,0.26C269.09,311.39,268.15,312.8,267.2,314.16z
		 M118.23,311.83c-0.92-1.39-1.8-2.82-2.64-4.26l0.43-0.25c0.83,1.43,1.71,2.85,2.62,4.23L118.23,311.83z M272.5,305.65l-0.44-0.24
		c0.8-1.45,1.56-2.94,2.28-4.44l0.45,0.22C274.08,302.69,273.3,304.19,272.5,305.65z M113.2,303.18c-0.75-1.48-1.47-3-2.15-4.52
		l0.46-0.2c0.67,1.51,1.38,3.02,2.13,4.5L113.2,303.18z M276.83,296.59l-0.46-0.19c0.63-1.53,1.22-3.1,1.77-4.67l0.47,0.16
		C278.06,293.47,277.47,295.05,276.83,296.59z M109.17,294.03c-0.59-1.56-1.13-3.15-1.63-4.74l0.48-0.15
		c0.49,1.58,1.04,3.16,1.62,4.71L109.17,294.03z M280.12,287.12l-0.48-0.14c0.45-1.59,0.87-3.22,1.23-4.83l0.49,0.11
		C280.99,283.88,280.58,285.52,280.12,287.12z M106.17,284.47c-0.41-1.61-0.77-3.26-1.09-4.89l0.49-0.09
		c0.31,1.62,0.68,3.26,1.08,4.86L106.17,284.47z M282.32,277.34l-0.49-0.08c0.27-1.63,0.5-3.29,0.68-4.94l0.5,0.05
		C282.83,274.03,282.6,275.7,282.32,277.34z M104.27,274.63c-0.22-1.65-0.41-3.33-0.54-4.98l0.5-0.04c0.13,1.65,0.31,3.31,0.53,4.95
		L104.27,274.63z M283.42,267.39l-0.5-0.03c0.09-1.65,0.14-3.32,0.14-4.98c0-1.49-0.04-3-0.11-4.48l0.5-0.02
		c0.07,1.49,0.11,3.01,0.11,4.51C283.56,264.04,283.52,265.73,283.42,267.39z M103.47,264.64c-0.02-0.75-0.03-1.51-0.03-2.27
		c0-0.92,0.01-1.83,0.04-2.75l0.5,0.01c-0.03,0.91-0.04,1.82-0.04,2.73c0,0.75,0.01,1.5,0.03,2.25L103.47,264.64z M104.27,254.67
		l-0.5-0.04c0.14-1.66,0.33-3.33,0.56-4.98l0.5,0.07C104.6,251.36,104.41,253.02,104.27,254.67z M282.57,252.93
		c-0.17-1.64-0.39-3.3-0.66-4.94l0.49-0.08c0.27,1.64,0.49,3.32,0.66,4.97L282.57,252.93z M105.67,244.8l-0.49-0.1
		c0.33-1.63,0.7-3.28,1.12-4.89l0.48,0.12C106.37,241.54,105.99,243.18,105.67,244.8z M280.98,243.09c-0.36-1.62-0.76-3.25-1.2-4.84
		l0.48-0.13c0.45,1.6,0.85,3.24,1.21,4.86L280.98,243.09z M108.16,235.16l-0.48-0.15c0.51-1.59,1.06-3.19,1.66-4.74l0.47,0.18
		C109.22,231.99,108.66,233.58,108.16,235.16z M278.3,233.49c-0.53-1.57-1.12-3.14-1.74-4.67l0.46-0.19
		c0.62,1.54,1.21,3.12,1.75,4.7L278.3,233.49z M111.72,225.83l-0.46-0.2c0.68-1.51,1.41-3.04,2.18-4.52l0.44,0.23
		C113.12,222.81,112.39,224.33,111.72,225.83z M274.57,224.26c-0.7-1.49-1.46-2.99-2.25-4.44l0.44-0.24
		c0.79,1.46,1.55,2.96,2.26,4.47L274.57,224.26z M116.3,216.97l-0.43-0.25c0.85-1.44,1.74-2.87,2.67-4.25l0.42,0.28
		C118.03,214.12,117.14,215.54,116.3,216.97z M269.83,215.51c-0.87-1.41-1.78-2.81-2.73-4.17l0.41-0.29
		c0.95,1.36,1.87,2.77,2.74,4.19L269.83,215.51z M121.83,208.67l-0.4-0.3c1-1.33,2.05-2.65,3.12-3.93l0.38,0.32
		C123.87,206.04,122.82,207.35,121.83,208.67z M264.15,207.33c-1.02-1.3-2.08-2.59-3.17-3.84l0.38-0.33
		c1.1,1.25,2.17,2.55,3.19,3.86L264.15,207.33z M128.25,201.04l-0.36-0.34c1.14-1.21,2.33-2.41,3.53-3.56l0.34,0.36
		C130.56,198.65,129.38,199.84,128.25,201.04z M257.6,199.83c-1.16-1.18-2.36-2.35-3.58-3.47l0.34-0.37c1.23,1.12,2.44,2.3,3.6,3.49
		L257.6,199.83z M135.46,194.17l-0.32-0.38c1.27-1.08,2.58-2.14,3.9-3.14l0.3,0.4C138.03,192.05,136.72,193.1,135.46,194.17z
		 M250.26,193.09c-1.28-1.05-2.61-2.08-3.94-3.05l0.29-0.4c1.34,0.98,2.68,2.02,3.96,3.07L250.26,193.09z M143.39,188.14l-0.28-0.41
		c1.38-0.93,2.8-1.84,4.22-2.69l0.26,0.43C146.17,186.32,144.76,187.22,143.39,188.14z M242.21,187.21c-1.39-0.9-2.82-1.77-4.26-2.6
		l0.25-0.43c1.45,0.83,2.89,1.71,4.28,2.61L242.21,187.21z M151.93,183.03l-0.23-0.44c1.47-0.77,2.98-1.51,4.49-2.2l0.21,0.46
		C154.9,181.53,153.4,182.26,151.93,183.03z M233.55,182.25c-1.48-0.74-3-1.45-4.52-2.11l0.2-0.46c1.53,0.66,3.06,1.38,4.55,2.12
		L233.55,182.25z M160.98,178.91l-0.18-0.47c1.55-0.61,3.14-1.17,4.72-1.69l0.16,0.48C164.11,177.74,162.53,178.3,160.98,178.91z
		 M224.39,178.29c-1.56-0.57-3.15-1.11-4.73-1.59l0.15-0.48c1.59,0.49,3.19,1.02,4.76,1.6L224.39,178.29z M170.46,175.81l-0.13-0.48
		c1.61-0.43,3.25-0.81,4.88-1.15l0.1,0.49C173.68,175,172.05,175.39,170.46,175.81z M214.85,175.38c-1.61-0.39-3.25-0.75-4.87-1.05
		l0.09-0.49c1.63,0.3,3.28,0.66,4.9,1.05L214.85,175.38z M180.21,173.8l-0.07-0.49c1.64-0.25,3.32-0.45,4.98-0.6l0.05,0.5
		C183.51,173.35,181.85,173.56,180.21,173.8z M205.05,173.56c-1.64-0.21-3.31-0.38-4.96-0.5l0.04-0.5c1.66,0.12,3.33,0.29,4.99,0.5
		L205.05,173.56z M190.13,172.88l-0.02-0.5c1.67-0.06,3.35-0.08,5.01-0.05l-0.01,0.5C193.47,172.81,191.79,172.82,190.13,172.88z"/>
	<path class="st1" d="M285.08,313.83c-0.42,0-0.83,0-1.25-0.01l0.01-0.5c1.65,0.04,3.33,0,4.97-0.12l0.03,0.5
		C287.61,313.78,286.34,313.83,285.08,313.83z M278.83,313.47c-1.66-0.19-3.33-0.47-4.95-0.81l0.1-0.49
		c1.61,0.34,3.26,0.61,4.91,0.81L278.83,313.47z M293.84,313.12l-0.08-0.49c1.63-0.27,3.27-0.62,4.86-1.04l0.13,0.48
		C297.13,312.49,295.48,312.85,293.84,313.12z M269.02,311.37c-1.59-0.5-3.18-1.08-4.71-1.73l0.19-0.46
		c1.52,0.64,3.09,1.22,4.67,1.71L269.02,311.37z M303.54,310.56l-0.17-0.47c1.55-0.57,3.09-1.22,4.58-1.93l0.22,0.45
		C306.65,309.33,305.1,309.99,303.54,310.56z M259.77,307.48c-1.47-0.79-2.92-1.66-4.31-2.58l0.28-0.42
		c1.38,0.92,2.81,1.78,4.27,2.56L259.77,307.48z M312.58,306.24l-0.26-0.43c1.42-0.85,2.81-1.78,4.14-2.76l0.3,0.4
		C315.42,304.44,314.01,305.38,312.58,306.24z M251.42,301.93c-1.3-1.05-2.56-2.17-3.75-3.34l0.35-0.36
		c1.18,1.15,2.43,2.27,3.72,3.31L251.42,301.93z M320.67,300.3l-0.33-0.37c1.23-1.1,2.43-2.27,3.56-3.48l0.37,0.34
		C323.12,298.01,321.91,299.19,320.67,300.3z M244.24,294.92c-1.08-1.27-2.11-2.61-3.07-3.97l0.41-0.29
		c0.95,1.35,1.97,2.68,3.04,3.94L244.24,294.92z M327.51,292.96l-0.4-0.31c1.01-1.31,1.97-2.68,2.85-4.08l0.42,0.27
		C329.49,290.25,328.52,291.64,327.51,292.96z M238.5,286.7c-0.83-1.45-1.59-2.96-2.27-4.48l0.46-0.21c0.68,1.5,1.43,3,2.25,4.43
		L238.5,286.7z M332.86,284.48l-0.45-0.23c0.75-1.48,1.44-3,2.04-4.54l0.46,0.18C334.31,281.45,333.62,282.99,332.86,284.48z
		 M234.38,277.55c-0.54-1.58-1.01-3.2-1.39-4.82l0.49-0.12c0.38,1.6,0.85,3.21,1.38,4.78L234.38,277.55z M336.54,275.15l-0.48-0.14
		c0.46-1.59,0.84-3.21,1.15-4.84l0.49,0.09C337.39,271.9,337,273.55,336.54,275.15z M232.06,267.8c-0.23-1.65-0.39-3.33-0.47-5
		l0.5-0.02c0.08,1.65,0.23,3.32,0.46,4.95L232.06,267.8z M338.4,265.29l-0.5-0.05c0.15-1.64,0.23-3.31,0.23-4.97h0.5
		C338.63,261.95,338.55,263.64,338.4,265.29z M338.13,260.26c0-1.66-0.08-3.33-0.23-4.97l0.5-0.05c0.15,1.66,0.23,3.34,0.23,5.01
		H338.13z M232.09,257.8l-0.5-0.02c0.08-1.67,0.23-3.35,0.46-5l0.5,0.07C232.32,254.48,232.17,256.14,232.09,257.8z M337.21,250.37
		c-0.31-1.63-0.7-3.25-1.15-4.84l0.48-0.14c0.46,1.6,0.85,3.24,1.16,4.88L337.21,250.37z M233.47,247.96l-0.49-0.12
		c0.39-1.62,0.85-3.25,1.39-4.82l0.47,0.16C234.32,244.75,233.85,246.35,233.47,247.96z M334.45,240.82
		c-0.61-1.54-1.29-3.06-2.04-4.54l0.45-0.23c0.76,1.49,1.45,3.03,2.06,4.58L334.45,240.82z M236.67,238.56l-0.46-0.21
		c0.68-1.52,1.45-3.03,2.27-4.48l0.43,0.25C238.11,235.56,237.35,237.05,236.67,238.56z M329.95,231.97
		c-0.88-1.4-1.84-2.77-2.85-4.07l0.4-0.31c1.02,1.32,1.99,2.7,2.88,4.11L329.95,231.97z M241.58,229.91l-0.41-0.29
		c0.95-1.37,1.99-2.7,3.07-3.98l0.38,0.32C243.55,227.24,242.52,228.56,241.58,229.91z M323.88,224.1
		c-1.13-1.21-2.32-2.38-3.56-3.47l0.33-0.37c1.25,1.11,2.46,2.29,3.59,3.51L323.88,224.1z M248.01,222.34l-0.35-0.36
		c1.19-1.17,2.46-2.29,3.75-3.34l0.31,0.39C250.44,220.07,249.19,221.18,248.01,222.34z M316.45,217.5
		c-1.33-0.98-2.73-1.91-4.14-2.75l0.26-0.43c1.43,0.86,2.84,1.79,4.18,2.78L316.45,217.5z M255.73,216.08l-0.28-0.42
		c1.39-0.93,2.84-1.79,4.31-2.58l0.24,0.44C258.54,214.31,257.11,215.17,255.73,216.08z M307.93,212.39
		c-1.49-0.71-3.03-1.36-4.58-1.93l0.17-0.47c1.57,0.57,3.12,1.23,4.63,1.95L307.93,212.39z M264.48,211.38l-0.19-0.46
		c1.54-0.65,3.12-1.23,4.71-1.73l0.15,0.48C267.57,210.16,266,210.74,264.48,211.38z M298.6,208.97c-1.6-0.42-3.23-0.77-4.86-1.04
		l0.08-0.49c1.65,0.27,3.3,0.62,4.91,1.04L298.6,208.97z M273.96,208.4l-0.1-0.49c1.63-0.35,3.3-0.62,4.95-0.82l0.06,0.5
		C277.23,207.78,275.57,208.05,273.96,208.4z M288.8,207.36c-1.65-0.11-3.33-0.15-4.97-0.11l-0.01-0.5c1.66-0.04,3.35,0,5.02,0.11
		L288.8,207.36z"/>
	<path class="st1" d="M267.07,318.52c-0.42,0-0.83,0-1.25-0.01l0.01-0.5c1.65,0.04,3.33,0,4.97-0.12l0.03,0.5
		C269.59,318.48,268.32,318.52,267.07,318.52z M260.81,318.16c-1.66-0.19-3.33-0.47-4.95-0.81l0.1-0.49
		c1.61,0.34,3.26,0.61,4.91,0.81L260.81,318.16z M275.82,317.81l-0.08-0.49c1.63-0.27,3.27-0.62,4.86-1.04l0.13,0.48
		C279.12,317.19,277.47,317.54,275.82,317.81z M251,316.07c-1.59-0.5-3.18-1.08-4.71-1.73l0.19-0.46c1.52,0.64,3.09,1.22,4.67,1.71
		L251,316.07z M285.52,315.26l-0.17-0.47c1.55-0.57,3.09-1.22,4.58-1.93l0.22,0.45C288.64,314.03,287.09,314.69,285.52,315.26z
		 M241.76,312.18c-1.47-0.79-2.92-1.66-4.31-2.58l0.28-0.42c1.38,0.92,2.81,1.78,4.27,2.56L241.76,312.18z M294.57,310.93
		l-0.26-0.43c1.42-0.85,2.81-1.78,4.14-2.76l0.3,0.4C297.41,309.14,296,310.07,294.57,310.93z M233.41,306.62
		c-1.3-1.05-2.56-2.17-3.75-3.34l0.35-0.36c1.18,1.15,2.43,2.27,3.72,3.31L233.41,306.62z M302.65,304.99l-0.33-0.37
		c1.23-1.1,2.43-2.27,3.56-3.48l0.37,0.34C305.11,302.7,303.9,303.88,302.65,304.99z M226.23,299.61c-1.08-1.27-2.11-2.61-3.07-3.97
		l0.41-0.29c0.95,1.35,1.97,2.68,3.04,3.94L226.23,299.61z M309.49,297.66l-0.4-0.31c1.01-1.31,1.97-2.68,2.85-4.08l0.42,0.27
		C311.48,294.95,310.51,296.33,309.49,297.66z M220.48,291.39c-0.83-1.45-1.59-2.96-2.27-4.48l0.46-0.21c0.68,1.5,1.43,3,2.25,4.43
		L220.48,291.39z M314.85,289.18l-0.45-0.23c0.75-1.48,1.44-3,2.04-4.54l0.46,0.18C316.3,286.14,315.61,287.68,314.85,289.18z
		 M216.37,282.25c-0.54-1.58-1.01-3.2-1.39-4.82l0.49-0.12c0.38,1.6,0.85,3.21,1.38,4.78L216.37,282.25z M318.53,279.84l-0.48-0.14
		c0.46-1.59,0.84-3.21,1.15-4.84l0.49,0.09C319.38,276.6,318.99,278.24,318.53,279.84z M214.04,272.49c-0.23-1.65-0.39-3.33-0.47-5
		l0.5-0.02c0.08,1.65,0.23,3.32,0.46,4.95L214.04,272.49z M320.39,269.99l-0.5-0.05c0.15-1.64,0.23-3.31,0.23-4.97h0.5
		C320.62,266.64,320.54,268.33,320.39,269.99z M320.12,264.96c0-1.66-0.08-3.33-0.23-4.97l0.5-0.05c0.15,1.66,0.23,3.34,0.23,5.01
		H320.12z M214.08,262.5l-0.5-0.02c0.08-1.67,0.23-3.35,0.46-5l0.5,0.07C214.31,259.17,214.15,260.84,214.08,262.5z M319.19,255.06
		c-0.31-1.63-0.7-3.25-1.15-4.84l0.48-0.14c0.46,1.6,0.85,3.24,1.16,4.88L319.19,255.06z M215.46,252.66l-0.49-0.12
		c0.39-1.62,0.85-3.25,1.39-4.82l0.47,0.16C216.3,249.44,215.84,251.05,215.46,252.66z M316.44,245.52
		c-0.61-1.54-1.29-3.06-2.04-4.54l0.45-0.23c0.76,1.49,1.45,3.03,2.06,4.58L316.44,245.52z M218.66,243.25l-0.46-0.21
		c0.68-1.52,1.45-3.03,2.27-4.48l0.43,0.25C220.09,240.25,219.34,241.75,218.66,243.25z M311.94,236.66
		c-0.88-1.4-1.84-2.77-2.85-4.07l0.4-0.31c1.02,1.32,1.99,2.7,2.88,4.11L311.94,236.66z M223.57,234.61l-0.41-0.29
		c0.95-1.37,1.99-2.7,3.07-3.98l0.38,0.32C225.53,231.93,224.51,233.26,223.57,234.61z M305.87,228.79
		c-1.13-1.21-2.32-2.38-3.56-3.47l0.33-0.37c1.25,1.11,2.46,2.29,3.59,3.51L305.87,228.79z M230,227.03l-0.35-0.36
		c1.19-1.17,2.46-2.29,3.75-3.34l0.31,0.39C232.43,224.76,231.18,225.88,230,227.03z M298.44,222.19c-1.33-0.98-2.73-1.91-4.14-2.75
		l0.26-0.43c1.43,0.86,2.84,1.79,4.18,2.78L298.44,222.19z M237.72,220.78l-0.28-0.42c1.39-0.93,2.84-1.79,4.31-2.58l0.24,0.44
		C240.53,219,239.1,219.86,237.72,220.78z M289.92,217.08c-1.49-0.71-3.03-1.36-4.58-1.93l0.17-0.47c1.57,0.57,3.12,1.23,4.63,1.95
		L289.92,217.08z M246.47,216.07l-0.19-0.46c1.54-0.65,3.12-1.23,4.71-1.73l0.15,0.48C249.56,214.86,247.99,215.43,246.47,216.07z
		 M280.59,213.66c-1.6-0.42-3.23-0.77-4.86-1.04l0.08-0.49c1.65,0.27,3.3,0.62,4.91,1.04L280.59,213.66z M255.95,213.09l-0.1-0.49
		c1.63-0.35,3.3-0.62,4.95-0.82l0.06,0.5C259.21,212.48,257.56,212.75,255.95,213.09z M270.78,212.05
		c-1.65-0.11-3.33-0.15-4.97-0.11l-0.01-0.5c1.66-0.04,3.35,0,5.02,0.11L270.78,212.05z"/>
</g>
</svg>
