<?xml version="1.0" encoding="utf-8"?>
<!-- Generator: Adobe Illustrator 25.4.1, SVG Export Plug-In . SVG Version: 6.00 Build 0)  -->
<svg version="1.1" id="Calque_1" xmlns="http://www.w3.org/2000/svg" xmlns:xlink="http://www.w3.org/1999/xlink" x="0px" y="0px"
	 width="1000px" height="550px" viewBox="0 0 1000 550" style="enable-background:new 0 0 1000 550;" xml:space="preserve">
<style type="text/css">
	.st0{fill:#F9F6F2;stroke:#1D1D1B;stroke-miterlimit:10;}
	.st1{fill:#17271A;}
	.st2{fill:#242323;stroke:#1D1D1B;stroke-width:0.25;stroke-miterlimit:10;}
	.st3{fill:#EFDABB;stroke:#1D1D1B;stroke-width:0.25;stroke-miterlimit:10;}
	.st4{fill:#DBD6CB;stroke:#1D1D1B;stroke-width:0.25;stroke-miterlimit:10;}
	.st5{fill:#F7F0E4;stroke:#1D1D1B;stroke-width:0.25;stroke-miterlimit:10;}
	.st6{fill:#EF6507;stroke:#1D1D1B;stroke-width:0.25;stroke-miterlimit:10;}
	.st7{fill:#17271A;stroke:#1D1D1B;stroke-width:0.25;stroke-miterlimit:10;}
	.st8{fill:#908384;stroke:#1D1D1B;stroke-width:0.25;stroke-miterlimit:10;}
	.st9{fill:#FFFEFD;}
	.st10{fill:none;stroke:#1D1D1B;stroke-width:0.5;stroke-miterlimit:10;}
	.st11{fill:#EAE0D8;stroke:#1D1D1B;stroke-width:0.25;stroke-miterlimit:10;}
	.st12{fill:#F4EEEA;stroke:#1D1D1B;stroke-width:0.25;stroke-miterlimit:10;}
	.st13{fill:#3C4156;stroke:#1D1D1B;stroke-width:0.25;stroke-miterlimit:10;}
	.st14{fill:#161515;stroke:#1D1D1B;stroke-width:0.25;stroke-miterlimit:10;}
	.st15{fill:#ECBCFD;stroke:#1D1D1B;stroke-width:0.25;stroke-miterlimit:10;}
	.st16{fill:#F4A260;stroke:#1D1D1B;stroke-width:0.25;stroke-miterlimit:10;}
	.st17{fill:#026666;stroke:#1D1D1B;stroke-width:0.25;stroke-miterlimit:10;}
	.st18{fill:#88D4AB;stroke:#1D1D1B;stroke-width:0.25;stroke-miterlimit:10;}
	.st19{fill:#7C52A0;stroke:#1D1D1B;stroke-width:0.25;stroke-miterlimit:10;}
	.st20{fill:#EFBD59;stroke:#1D1D1B;stroke-width:0.25;stroke-miterlimit:10;}
	.st21{fill:#E55D42;stroke:#1D1D1B;stroke-width:0.25;stroke-miterlimit:10;}
	.st22{fill:#573200;stroke:#1D1D1B;stroke-width:0.25;stroke-miterlimit:10;}
	.st23{fill:#F2C799;stroke:#1D1D1B;stroke-width:0.25;stroke-miterlimit:10;}
	.st24{fill:#F9E1C0;stroke:#1D1D1B;stroke-width:0.25;stroke-miterlimit:10;}
	.st25{fill:#D4A176;stroke:#1D1D1B;stroke-width:0.25;stroke-miterlimit:10;}
	.st26{fill:#D9BF66;stroke:#1D1D1B;stroke-width:0.25;stroke-miterlimit:10;}
	.st27{fill:#131310;stroke:#1D1D1B;stroke-width:0.25;stroke-miterlimit:10;}
	.st28{fill:#0A5063;}
	.st29{fill:#69A59F;stroke:#1D1D1B;stroke-width:0.25;stroke-miterlimit:10;}
	.st30{fill:#398582;stroke:#1D1D1B;stroke-width:0.25;stroke-miterlimit:10;}
	.st31{fill:#9D9268;stroke:#1D1D1B;stroke-width:0.25;stroke-miterlimit:10;}
	.st32{fill:#5D94BD;stroke:#1D1D1B;stroke-width:0.25;stroke-miterlimit:10;}
	.st33{fill:#F6F5F6;stroke:#1D1D1B;stroke-width:0.25;stroke-miterlimit:10;}
</style>
<rect y="0" class="st9" width="1000" height="550"/>
<g>
	<path d="M52.18,35.77c-0.44-0.3-0.95-0.46-1.55-0.46c-0.51,0-0.95,0.1-1.31,0.29c-0.36,0.19-0.66,0.45-0.9,0.77
		c-0.24,0.32-0.41,0.69-0.52,1.11c-0.11,0.42-0.17,0.85-0.17,1.3c0,0.49,0.06,0.95,0.17,1.39c0.11,0.44,0.29,0.82,0.52,1.14
		c0.24,0.32,0.54,0.58,0.91,0.77c0.37,0.19,0.81,0.29,1.32,0.29c0.38,0,0.71-0.06,1-0.19s0.54-0.3,0.76-0.52s0.38-0.48,0.5-0.79
		s0.19-0.63,0.22-0.98h1.14c-0.11,1.08-0.48,1.92-1.12,2.52c-0.63,0.6-1.5,0.9-2.59,0.9c-0.66,0-1.24-0.11-1.74-0.34
		c-0.5-0.23-0.91-0.54-1.24-0.94c-0.33-0.4-0.57-0.87-0.74-1.42c-0.16-0.54-0.25-1.13-0.25-1.75c0-0.62,0.09-1.21,0.26-1.76
		c0.18-0.55,0.43-1.03,0.77-1.43c0.34-0.41,0.76-0.73,1.27-0.97c0.51-0.24,1.09-0.35,1.75-0.35c0.45,0,0.87,0.06,1.27,0.18
		c0.4,0.12,0.76,0.3,1.07,0.53c0.31,0.23,0.57,0.52,0.78,0.87s0.34,0.75,0.41,1.21h-1.14C52.89,36.53,52.61,36.07,52.18,35.77z"/>
	<path d="M56.64,37.15c0.17-0.54,0.43-1.02,0.77-1.43s0.77-0.75,1.28-1c0.51-0.25,1.11-0.37,1.79-0.37c0.68,0,1.28,0.12,1.79,0.37
		c0.51,0.25,0.94,0.58,1.28,1c0.34,0.42,0.6,0.89,0.77,1.43c0.17,0.54,0.26,1.1,0.26,1.69s-0.09,1.15-0.26,1.69
		s-0.43,1.02-0.77,1.43c-0.34,0.42-0.77,0.75-1.28,0.99c-0.51,0.24-1.11,0.37-1.79,0.37c-0.68,0-1.28-0.12-1.79-0.37
		c-0.51-0.24-0.94-0.57-1.28-0.99s-0.6-0.89-0.77-1.43s-0.26-1.1-0.26-1.69S56.47,37.69,56.64,37.15z M57.69,40.12
		c0.11,0.42,0.29,0.8,0.53,1.13s0.55,0.61,0.92,0.81s0.82,0.31,1.34,0.31c0.52,0,0.97-0.1,1.34-0.31s0.68-0.47,0.92-0.81
		s0.42-0.71,0.53-1.13c0.11-0.42,0.17-0.85,0.17-1.28s-0.06-0.86-0.17-1.28c-0.11-0.42-0.29-0.8-0.53-1.13s-0.55-0.61-0.92-0.81
		s-0.82-0.31-1.34-0.31c-0.52,0-0.97,0.1-1.34,0.31s-0.68,0.47-0.92,0.81s-0.42,0.71-0.53,1.13c-0.11,0.42-0.17,0.85-0.17,1.28
		S57.58,39.7,57.69,40.12z"/>
	<path d="M68.32,34.55v7.61h4.54v0.96h-5.68v-8.57H68.32z"/>
	<path d="M74.83,37.15c0.17-0.54,0.43-1.02,0.77-1.43c0.34-0.42,0.77-0.75,1.28-1s1.11-0.37,1.79-0.37s1.28,0.12,1.79,0.37
		s0.94,0.58,1.28,1s0.6,0.89,0.77,1.43c0.17,0.54,0.26,1.1,0.26,1.69s-0.09,1.15-0.26,1.69c-0.17,0.54-0.43,1.02-0.77,1.43
		s-0.77,0.75-1.28,0.99c-0.51,0.24-1.11,0.37-1.79,0.37s-1.28-0.12-1.79-0.37c-0.51-0.24-0.94-0.57-1.28-0.99
		c-0.34-0.42-0.6-0.89-0.77-1.43s-0.26-1.1-0.26-1.69S74.66,37.69,74.83,37.15z M75.88,40.12c0.11,0.42,0.29,0.8,0.53,1.13
		s0.55,0.61,0.92,0.81s0.82,0.31,1.34,0.31c0.52,0,0.97-0.1,1.34-0.31s0.68-0.47,0.92-0.81c0.24-0.34,0.42-0.71,0.53-1.13
		s0.17-0.85,0.17-1.28s-0.06-0.86-0.17-1.28s-0.29-0.8-0.53-1.13c-0.24-0.34-0.55-0.61-0.92-0.81s-0.82-0.31-1.34-0.31
		c-0.52,0-0.97,0.1-1.34,0.31s-0.68,0.47-0.92,0.81s-0.42,0.71-0.53,1.13s-0.17,0.85-0.17,1.28S75.77,39.7,75.88,40.12z"/>
	<path d="M89.41,34.55c0.82,0,1.45,0.2,1.91,0.6c0.46,0.4,0.69,0.95,0.69,1.64c0,0.52-0.12,0.98-0.35,1.37
		c-0.24,0.39-0.61,0.66-1.13,0.8v0.02c0.25,0.05,0.45,0.13,0.61,0.24c0.16,0.11,0.28,0.25,0.37,0.4c0.09,0.16,0.16,0.33,0.2,0.52
		c0.04,0.19,0.08,0.39,0.1,0.6c0.02,0.21,0.03,0.42,0.04,0.64s0.03,0.43,0.06,0.64c0.03,0.21,0.08,0.41,0.14,0.59
		c0.06,0.19,0.15,0.35,0.27,0.5h-1.27c-0.08-0.09-0.13-0.21-0.16-0.36c-0.03-0.15-0.05-0.32-0.05-0.51
		c-0.01-0.19-0.02-0.39-0.02-0.61c-0.01-0.22-0.03-0.43-0.07-0.64c-0.03-0.21-0.07-0.41-0.12-0.59c-0.05-0.19-0.12-0.35-0.23-0.49
		c-0.1-0.14-0.24-0.25-0.41-0.34s-0.39-0.13-0.67-0.13h-2.78v3.66h-1.14v-8.57H89.41z M89.65,38.44c0.24-0.04,0.45-0.12,0.63-0.23
		c0.18-0.12,0.32-0.27,0.43-0.47c0.11-0.2,0.16-0.45,0.16-0.76c0-0.43-0.12-0.78-0.36-1.06c-0.24-0.27-0.63-0.41-1.16-0.41h-2.83
		v2.99h2.38C89.15,38.5,89.41,38.48,89.65,38.44z"/>
	<path d="M95.98,34.55v8.57h-1.14v-8.57H95.98z"/>
	<path d="M100.69,34.55l2.7,7.2l2.71-7.2h1.56v8.57h-1.08v-7.13h-0.02l-2.68,7.13h-0.97l-2.68-7.13h-0.02v7.13h-1.08v-8.57H100.69z"
		/>
	<path d="M116.67,34.55v0.96h-4.78v2.72h4.45v0.96h-4.45v2.96h4.81v0.96h-5.95v-8.57H116.67z M113.91,32l-1.15,1.94h0.77l1.69-1.94
		H113.91z"/>
	<path d="M118.37,35.51v-0.96h6.85v0.96h-2.86v7.61h-1.14v-7.61H118.37z"/>
	<path d="M131.4,34.55c0.82,0,1.45,0.2,1.91,0.6c0.46,0.4,0.69,0.95,0.69,1.64c0,0.52-0.12,0.98-0.35,1.37
		c-0.24,0.39-0.61,0.66-1.13,0.8v0.02c0.25,0.05,0.45,0.13,0.61,0.24c0.16,0.11,0.28,0.25,0.37,0.4c0.09,0.16,0.16,0.33,0.2,0.52
		c0.04,0.19,0.08,0.39,0.1,0.6c0.02,0.21,0.03,0.42,0.04,0.64s0.03,0.43,0.06,0.64c0.03,0.21,0.08,0.41,0.14,0.59
		c0.06,0.19,0.15,0.35,0.27,0.5h-1.27c-0.08-0.09-0.13-0.21-0.16-0.36c-0.03-0.15-0.05-0.32-0.05-0.51
		c-0.01-0.19-0.02-0.39-0.02-0.61c-0.01-0.22-0.03-0.43-0.07-0.64c-0.03-0.21-0.07-0.41-0.12-0.59c-0.05-0.19-0.12-0.35-0.23-0.49
		c-0.1-0.14-0.24-0.25-0.41-0.34s-0.39-0.13-0.67-0.13h-2.78v3.66h-1.14v-8.57H131.4z M131.64,38.44c0.24-0.04,0.45-0.12,0.63-0.23
		c0.18-0.12,0.32-0.27,0.43-0.47c0.11-0.2,0.16-0.45,0.16-0.76c0-0.43-0.12-0.78-0.36-1.06c-0.24-0.27-0.63-0.41-1.16-0.41h-2.83
		v2.99h2.38C131.15,38.5,131.4,38.48,131.64,38.44z"/>
	<path d="M137.98,34.55v8.57h-1.14v-8.57H137.98z"/>
	<path d="M147.02,34.55v0.96h-4.78v2.72h4.45v0.96h-4.45v2.96h4.81v0.96h-5.95v-8.57H147.02z"/>
</g>
<line class="st10" x1="46.06" y1="55.22" x2="951.9" y2="55.22"/>
<rect x="439.16" y="366.84" class="st26" width="49.56" height="48.09"/>
<rect x="439.16" y="158.25" class="st27" width="49.56" height="48.09"/>
<rect x="503.37" y="158.25" class="st28" width="49.56" height="48.09"/>
<rect x="374.95" y="262.54" class="st29" width="49.56" height="48.09"/>
<rect x="439.16" y="262.54" class="st30" width="49.56" height="48.09"/>
<rect x="374.95" y="366.84" class="st31" width="49.56" height="48.09"/>
<rect x="503.37" y="262.54" class="st32" width="49.56" height="48.09"/>
<g>
	<path d="M445.94,215.15h0.26l-0.25,1.76h1.35l0.25-1.76h0.26l-0.25,1.76h0.88l-0.04,0.26h-0.88l-0.19,1.38h0.89l-0.04,0.26h-0.89
		l-0.26,1.85h-0.26l0.26-1.85h-1.35l-0.26,1.85h-0.26l0.26-1.85h-0.94l0.04-0.26h0.94l0.19-1.38h-0.94l0.04-0.26h0.94L445.94,215.15
		z M445.72,218.56h1.35l0.19-1.38h-1.35L445.72,218.56z"/>
	<path d="M450.64,216.16c0.36-0.05,0.68-0.17,0.94-0.35c0.27-0.18,0.53-0.4,0.78-0.66h0.3l-1.18,5.52h-0.35l1.06-4.95l-0.02-0.02
		c-0.26,0.22-0.52,0.39-0.79,0.5c-0.28,0.11-0.54,0.19-0.8,0.23L450.64,216.16z"/>
	<path d="M455.46,216.81c0.04-0.26,0.11-0.49,0.2-0.7c0.1-0.21,0.23-0.4,0.38-0.56c0.16-0.16,0.34-0.28,0.56-0.36
		c0.21-0.08,0.45-0.13,0.72-0.13c0.2,0,0.4,0.03,0.59,0.09s0.36,0.15,0.5,0.26c0.14,0.11,0.26,0.26,0.34,0.42s0.13,0.36,0.13,0.58
		c0,0.19-0.03,0.37-0.1,0.53c-0.06,0.16-0.15,0.3-0.27,0.42c-0.11,0.12-0.25,0.22-0.41,0.29c-0.16,0.07-0.33,0.12-0.52,0.13v0.02
		c0.29,0.05,0.51,0.18,0.67,0.41c0.16,0.22,0.24,0.48,0.24,0.78c0,0.29-0.05,0.54-0.15,0.76c-0.1,0.22-0.24,0.4-0.42,0.55
		s-0.39,0.26-0.64,0.34c-0.24,0.08-0.51,0.12-0.79,0.13c-0.51,0-0.92-0.14-1.23-0.42c-0.31-0.27-0.46-0.68-0.46-1.22
		c0-0.05,0-0.1,0.01-0.15c0.01-0.05,0.01-0.1,0.02-0.15h0.3c-0.02,0.1-0.02,0.19-0.02,0.3c0,0.43,0.12,0.77,0.37,1.01
		c0.25,0.24,0.6,0.36,1.07,0.36c0.22,0,0.44-0.03,0.64-0.1c0.2-0.07,0.37-0.17,0.52-0.29c0.15-0.12,0.26-0.28,0.35-0.46
		s0.13-0.38,0.13-0.6c0-0.24-0.04-0.43-0.12-0.58c-0.08-0.15-0.19-0.26-0.33-0.34c-0.14-0.08-0.31-0.13-0.51-0.16
		c-0.2-0.03-0.42-0.04-0.66-0.04l0.06-0.26c0.21,0,0.43-0.01,0.65-0.04c0.23-0.02,0.44-0.08,0.63-0.16c0.19-0.08,0.35-0.2,0.48-0.36
		s0.19-0.37,0.19-0.64c0-0.19-0.03-0.35-0.1-0.49s-0.16-0.26-0.28-0.36c-0.12-0.1-0.25-0.17-0.41-0.22s-0.32-0.07-0.5-0.07
		c-0.22,0-0.42,0.04-0.59,0.12c-0.17,0.08-0.32,0.18-0.45,0.32c-0.13,0.13-0.23,0.29-0.32,0.47c-0.08,0.18-0.14,0.38-0.18,0.58
		H455.46z"/>
	<path d="M461.14,216.16c0.36-0.05,0.68-0.17,0.94-0.35s0.53-0.4,0.78-0.66h0.3l-1.18,5.52h-0.35l1.06-4.95l-0.02-0.02
		c-0.26,0.22-0.52,0.39-0.8,0.5s-0.54,0.19-0.8,0.23L461.14,216.16z"/>
	<path d="M465.96,216.81c0.04-0.26,0.11-0.49,0.2-0.7c0.1-0.21,0.23-0.4,0.38-0.56c0.16-0.16,0.34-0.28,0.56-0.36
		c0.21-0.08,0.45-0.13,0.72-0.13c0.2,0,0.4,0.03,0.59,0.09s0.36,0.15,0.5,0.26c0.14,0.11,0.26,0.26,0.34,0.42
		c0.08,0.17,0.13,0.36,0.13,0.58c0,0.19-0.03,0.37-0.1,0.53c-0.06,0.16-0.15,0.3-0.27,0.42c-0.12,0.12-0.25,0.22-0.41,0.29
		c-0.16,0.07-0.33,0.12-0.52,0.13v0.02c0.29,0.05,0.51,0.18,0.67,0.41c0.16,0.22,0.24,0.48,0.24,0.78c0,0.29-0.05,0.54-0.15,0.76
		s-0.24,0.4-0.42,0.55c-0.18,0.15-0.39,0.26-0.64,0.34c-0.24,0.08-0.5,0.12-0.79,0.13c-0.51,0-0.92-0.14-1.23-0.42
		c-0.31-0.27-0.46-0.68-0.46-1.22c0-0.05,0-0.1,0.01-0.15c0-0.05,0.01-0.1,0.02-0.15h0.3c-0.02,0.1-0.02,0.19-0.02,0.3
		c0,0.43,0.12,0.77,0.37,1.01c0.25,0.24,0.6,0.36,1.07,0.36c0.22,0,0.44-0.03,0.64-0.1c0.2-0.07,0.37-0.17,0.52-0.29
		c0.15-0.12,0.26-0.28,0.35-0.46s0.13-0.38,0.13-0.6c0-0.24-0.04-0.43-0.12-0.58c-0.08-0.15-0.19-0.26-0.33-0.34
		s-0.31-0.13-0.51-0.16s-0.42-0.04-0.66-0.04l0.06-0.26c0.21,0,0.43-0.01,0.65-0.04c0.23-0.02,0.44-0.08,0.63-0.16
		s0.35-0.2,0.48-0.36c0.13-0.16,0.19-0.37,0.19-0.64c0-0.19-0.03-0.35-0.1-0.49c-0.07-0.14-0.16-0.26-0.28-0.36
		c-0.12-0.1-0.25-0.17-0.41-0.22s-0.32-0.07-0.5-0.07c-0.22,0-0.41,0.04-0.59,0.12c-0.17,0.08-0.32,0.18-0.45,0.32
		c-0.13,0.13-0.23,0.29-0.32,0.47c-0.08,0.18-0.14,0.38-0.18,0.58H465.96z"/>
	<path d="M471.64,216.16c0.36-0.05,0.68-0.17,0.95-0.35c0.27-0.18,0.53-0.4,0.78-0.66h0.3l-1.18,5.52h-0.35l1.06-4.95l-0.02-0.02
		c-0.26,0.22-0.52,0.39-0.8,0.5c-0.27,0.11-0.54,0.19-0.8,0.23L471.64,216.16z"/>
	<path d="M477.5,220.77c-0.32,0-0.58-0.06-0.79-0.17c-0.21-0.11-0.37-0.26-0.49-0.45c-0.12-0.18-0.2-0.39-0.25-0.61
		c-0.04-0.22-0.07-0.44-0.07-0.66c0-0.23,0.02-0.49,0.06-0.77c0.04-0.28,0.1-0.56,0.18-0.85c0.08-0.29,0.19-0.56,0.32-0.82
		c0.13-0.26,0.28-0.5,0.46-0.7c0.18-0.21,0.38-0.37,0.62-0.49c0.23-0.12,0.5-0.18,0.79-0.18c0.29,0,0.53,0.05,0.74,0.15
		c0.21,0.1,0.37,0.23,0.5,0.4s0.23,0.37,0.29,0.6c0.06,0.23,0.09,0.47,0.09,0.74c0,0.24-0.02,0.49-0.06,0.77
		c-0.04,0.28-0.1,0.56-0.18,0.84c-0.08,0.28-0.18,0.56-0.31,0.82s-0.28,0.5-0.46,0.71s-0.39,0.37-0.63,0.5
		C478.07,220.7,477.8,220.77,477.5,220.77z M477.44,220.5c0.27,0,0.52-0.06,0.73-0.18c0.21-0.12,0.4-0.28,0.57-0.47
		c0.16-0.19,0.3-0.42,0.42-0.67c0.11-0.25,0.21-0.51,0.28-0.77c0.07-0.26,0.13-0.52,0.16-0.78c0.03-0.26,0.05-0.49,0.05-0.7
		c0-0.22-0.02-0.43-0.06-0.63c-0.04-0.2-0.12-0.37-0.22-0.52s-0.23-0.26-0.4-0.34c-0.17-0.08-0.37-0.12-0.62-0.12
		c-0.34,0-0.64,0.1-0.9,0.3c-0.27,0.2-0.49,0.47-0.68,0.8c-0.18,0.33-0.32,0.71-0.42,1.14c-0.1,0.43-0.14,0.86-0.14,1.31
		c0,0.19,0.02,0.38,0.06,0.58c0.04,0.19,0.11,0.37,0.21,0.52c0.1,0.16,0.23,0.28,0.38,0.38C477.02,220.46,477.21,220.5,477.44,220.5
		z"/>
</g>
<g>
	<path d="M446.94,318.9h0.26l-0.25,1.76h1.35l0.25-1.76h0.26l-0.25,1.76h0.88l-0.04,0.26h-0.88l-0.19,1.38h0.89l-0.04,0.26h-0.89
		l-0.26,1.85h-0.26l0.26-1.85h-1.35l-0.26,1.85h-0.26l0.26-1.85h-0.94l0.04-0.26h0.94l0.19-1.38h-0.94l0.04-0.26h0.94L446.94,318.9z
		 M446.72,322.31h1.35l0.19-1.38h-1.35L446.72,322.31z"/>
	<path d="M451.21,320.55c0.04-0.26,0.11-0.49,0.2-0.7c0.1-0.21,0.23-0.4,0.38-0.56c0.16-0.16,0.34-0.28,0.55-0.36
		c0.21-0.08,0.45-0.13,0.72-0.13c0.2,0,0.4,0.03,0.59,0.09s0.36,0.15,0.5,0.26c0.14,0.11,0.26,0.26,0.34,0.42
		c0.09,0.17,0.13,0.36,0.13,0.58c0,0.19-0.03,0.37-0.1,0.53c-0.06,0.16-0.15,0.3-0.27,0.42c-0.11,0.12-0.25,0.22-0.41,0.29
		c-0.16,0.07-0.33,0.12-0.52,0.13v0.02c0.29,0.05,0.51,0.18,0.67,0.41c0.16,0.22,0.24,0.48,0.24,0.78c0,0.29-0.05,0.54-0.15,0.76
		c-0.1,0.22-0.24,0.4-0.42,0.55c-0.18,0.15-0.39,0.26-0.63,0.34c-0.24,0.08-0.51,0.12-0.79,0.13c-0.51,0-0.92-0.14-1.23-0.42
		c-0.31-0.27-0.46-0.68-0.46-1.22c0-0.05,0-0.1,0.01-0.15c0.01-0.05,0.01-0.1,0.02-0.15h0.3c-0.02,0.1-0.02,0.19-0.02,0.3
		c0,0.43,0.12,0.77,0.37,1.01c0.25,0.24,0.6,0.36,1.07,0.36c0.22,0,0.44-0.03,0.64-0.1c0.2-0.07,0.37-0.17,0.52-0.29
		c0.15-0.12,0.26-0.28,0.35-0.46s0.13-0.38,0.13-0.6c0-0.24-0.04-0.43-0.12-0.58s-0.19-0.26-0.33-0.34
		c-0.14-0.08-0.31-0.13-0.51-0.16s-0.42-0.04-0.66-0.04l0.06-0.26c0.21,0,0.42-0.01,0.65-0.04c0.23-0.02,0.44-0.08,0.63-0.16
		c0.19-0.08,0.35-0.2,0.48-0.36c0.12-0.16,0.19-0.37,0.19-0.64c0-0.19-0.03-0.35-0.1-0.49s-0.16-0.26-0.28-0.36
		c-0.12-0.1-0.25-0.17-0.41-0.22c-0.16-0.05-0.32-0.07-0.5-0.07c-0.22,0-0.42,0.04-0.59,0.12c-0.17,0.08-0.32,0.18-0.45,0.32
		c-0.13,0.13-0.23,0.29-0.32,0.47c-0.08,0.18-0.14,0.38-0.18,0.58H451.21z"/>
	<path d="M456.24,323.03c0,0.42,0.11,0.72,0.33,0.92c0.22,0.2,0.53,0.3,0.92,0.3c0.33,0,0.61-0.09,0.84-0.28
		c0.24-0.18,0.44-0.41,0.6-0.68c0.16-0.27,0.3-0.56,0.4-0.87c0.1-0.31,0.19-0.6,0.25-0.85l-0.02-0.02c-0.18,0.32-0.41,0.57-0.7,0.74
		s-0.6,0.26-0.96,0.26c-0.24,0-0.46-0.04-0.66-0.12c-0.2-0.08-0.37-0.19-0.52-0.33c-0.14-0.14-0.26-0.31-0.34-0.51
		s-0.12-0.42-0.12-0.66c0-0.28,0.04-0.54,0.14-0.8s0.22-0.49,0.39-0.68c0.17-0.2,0.37-0.35,0.61-0.47c0.24-0.12,0.5-0.18,0.8-0.18
		s0.56,0.05,0.77,0.14c0.22,0.1,0.39,0.23,0.53,0.4s0.24,0.37,0.31,0.6c0.07,0.23,0.1,0.48,0.1,0.76c0,0.24-0.02,0.5-0.06,0.78
		c-0.04,0.28-0.1,0.56-0.18,0.85c-0.08,0.28-0.19,0.56-0.32,0.82c-0.13,0.26-0.29,0.5-0.47,0.7c-0.18,0.2-0.4,0.36-0.64,0.48
		c-0.24,0.12-0.52,0.18-0.82,0.18c-0.47,0-0.84-0.13-1.1-0.4s-0.4-0.63-0.4-1.08H456.24z M458.22,319.07c-0.26,0-0.49,0.05-0.7,0.16
		c-0.2,0.11-0.37,0.25-0.51,0.42c-0.14,0.18-0.24,0.38-0.31,0.6s-0.11,0.45-0.11,0.69c0,0.21,0.04,0.4,0.11,0.56
		s0.17,0.31,0.29,0.42c0.13,0.12,0.28,0.2,0.45,0.26c0.17,0.06,0.36,0.09,0.56,0.09c0.24,0,0.46-0.05,0.66-0.15s0.37-0.23,0.51-0.4
		c0.14-0.17,0.26-0.35,0.34-0.57c0.08-0.21,0.12-0.43,0.12-0.66c0-0.21-0.03-0.4-0.1-0.58c-0.07-0.18-0.16-0.33-0.29-0.46
		c-0.12-0.13-0.27-0.23-0.45-0.3S458.43,319.07,458.22,319.07z"/>
	<path d="M462.83,324.51c-0.23,0-0.45-0.03-0.66-0.09c-0.21-0.06-0.4-0.15-0.56-0.28c-0.16-0.12-0.29-0.28-0.39-0.46
		c-0.1-0.18-0.15-0.4-0.15-0.65s0.04-0.47,0.12-0.66c0.08-0.19,0.19-0.35,0.34-0.48c0.14-0.13,0.31-0.24,0.51-0.31
		c0.2-0.08,0.41-0.12,0.64-0.15v-0.02c-0.12-0.03-0.23-0.08-0.33-0.15c-0.1-0.07-0.2-0.15-0.27-0.25c-0.08-0.1-0.14-0.2-0.18-0.32
		c-0.04-0.12-0.07-0.24-0.07-0.37c0-0.26,0.05-0.48,0.14-0.67s0.23-0.35,0.39-0.47c0.17-0.12,0.36-0.22,0.57-0.28
		c0.21-0.06,0.44-0.1,0.67-0.1c0.2,0,0.39,0.03,0.58,0.08c0.19,0.06,0.35,0.14,0.5,0.24c0.14,0.11,0.26,0.24,0.35,0.41
		c0.09,0.17,0.13,0.35,0.13,0.57c0,0.19-0.03,0.37-0.1,0.53c-0.07,0.16-0.16,0.3-0.27,0.42c-0.11,0.12-0.25,0.22-0.41,0.29
		c-0.16,0.08-0.33,0.12-0.52,0.14v0.02c0.67,0.19,1,0.63,1,1.34c0,0.27-0.06,0.51-0.18,0.72s-0.27,0.38-0.46,0.52
		c-0.19,0.14-0.4,0.25-0.64,0.32C463.32,324.48,463.07,324.51,462.83,324.51z M462.84,324.25c0.22,0,0.44-0.03,0.64-0.09
		s0.39-0.16,0.54-0.28c0.15-0.12,0.28-0.28,0.37-0.46c0.09-0.18,0.14-0.39,0.14-0.63c0-0.21-0.05-0.39-0.14-0.54
		c-0.09-0.15-0.21-0.27-0.35-0.36c-0.14-0.09-0.31-0.16-0.49-0.2s-0.37-0.06-0.56-0.06c-0.21,0-0.42,0.03-0.61,0.09
		c-0.2,0.06-0.37,0.15-0.52,0.26c-0.15,0.12-0.27,0.26-0.36,0.43c-0.09,0.17-0.13,0.37-0.13,0.6c0,0.21,0.04,0.4,0.12,0.56
		s0.19,0.29,0.32,0.39c0.14,0.1,0.29,0.18,0.47,0.23C462.46,324.23,462.65,324.25,462.84,324.25z M463.58,319.07
		c-0.19,0-0.37,0.03-0.55,0.08c-0.18,0.05-0.34,0.13-0.47,0.23c-0.14,0.1-0.25,0.23-0.33,0.38c-0.08,0.16-0.12,0.33-0.12,0.54
		c0,0.19,0.03,0.35,0.1,0.48c0.07,0.13,0.16,0.24,0.28,0.32c0.12,0.09,0.25,0.15,0.4,0.19s0.31,0.06,0.48,0.07
		c0.19,0,0.38-0.02,0.55-0.07c0.18-0.05,0.33-0.12,0.46-0.22s0.24-0.23,0.32-0.38c0.08-0.15,0.12-0.34,0.12-0.56
		c0-0.18-0.03-0.33-0.1-0.46c-0.07-0.13-0.16-0.24-0.28-0.32c-0.12-0.09-0.25-0.15-0.4-0.19S463.74,319.07,463.58,319.07z"/>
	<path d="M467.67,318.9h2.86l-0.08,0.26h-2.6l-0.74,2.13l0.02,0.02c0.14-0.18,0.33-0.32,0.58-0.43s0.5-0.16,0.75-0.16
		c0.5,0,0.89,0.13,1.18,0.4c0.29,0.27,0.44,0.66,0.44,1.18c0,0.31-0.05,0.61-0.14,0.88s-0.23,0.5-0.41,0.7s-0.39,0.36-0.65,0.47
		c-0.25,0.11-0.53,0.17-0.84,0.17c-0.29,0-0.54-0.04-0.74-0.12c-0.21-0.08-0.38-0.19-0.52-0.32c-0.14-0.13-0.24-0.27-0.3-0.42
		c-0.07-0.16-0.1-0.31-0.11-0.46c-0.01-0.11-0.01-0.19,0-0.26c0.01-0.07,0.01-0.13,0.02-0.2h0.3c-0.01,0.07-0.02,0.13-0.02,0.19
		c0,0.06,0,0.12,0,0.2c0,0.11,0.02,0.23,0.07,0.36c0.05,0.13,0.13,0.25,0.23,0.37c0.11,0.12,0.25,0.21,0.42,0.29
		c0.17,0.08,0.39,0.12,0.64,0.12c0.27,0,0.52-0.05,0.73-0.16c0.22-0.1,0.4-0.24,0.55-0.42s0.26-0.38,0.34-0.6s0.12-0.47,0.12-0.72
		c0-0.21-0.04-0.4-0.1-0.57c-0.07-0.17-0.16-0.31-0.29-0.43c-0.12-0.12-0.26-0.21-0.42-0.28c-0.16-0.06-0.33-0.1-0.51-0.1
		c-0.63,0-1.11,0.25-1.43,0.74l-0.33-0.02L467.67,318.9z"/>
	<path d="M473.32,324.51c-0.23,0-0.45-0.03-0.66-0.09s-0.4-0.15-0.56-0.28c-0.16-0.12-0.29-0.28-0.39-0.46
		c-0.1-0.18-0.15-0.4-0.15-0.65s0.04-0.47,0.12-0.66s0.19-0.35,0.34-0.48c0.14-0.13,0.31-0.24,0.51-0.31
		c0.2-0.08,0.41-0.12,0.64-0.15v-0.02c-0.12-0.03-0.23-0.08-0.33-0.15s-0.2-0.15-0.27-0.25c-0.08-0.1-0.14-0.2-0.19-0.32
		c-0.04-0.12-0.07-0.24-0.07-0.37c0-0.26,0.05-0.48,0.14-0.67c0.1-0.19,0.23-0.35,0.39-0.47c0.17-0.12,0.36-0.22,0.57-0.28
		c0.21-0.06,0.44-0.1,0.67-0.1c0.2,0,0.39,0.03,0.58,0.08c0.19,0.06,0.35,0.14,0.5,0.24s0.26,0.24,0.35,0.41s0.13,0.35,0.13,0.57
		c0,0.19-0.03,0.37-0.1,0.53c-0.07,0.16-0.16,0.3-0.27,0.42c-0.11,0.12-0.25,0.22-0.41,0.29c-0.16,0.08-0.33,0.12-0.52,0.14v0.02
		c0.67,0.19,1,0.63,1,1.34c0,0.27-0.06,0.51-0.18,0.72s-0.27,0.38-0.46,0.52s-0.4,0.25-0.64,0.32
		C473.81,324.48,473.57,324.51,473.32,324.51z M473.34,324.25c0.22,0,0.44-0.03,0.64-0.09c0.21-0.06,0.39-0.16,0.54-0.28
		s0.28-0.28,0.37-0.46s0.14-0.39,0.14-0.63c0-0.21-0.04-0.39-0.14-0.54s-0.21-0.27-0.35-0.36c-0.14-0.09-0.31-0.16-0.49-0.2
		c-0.18-0.04-0.37-0.06-0.56-0.06c-0.21,0-0.42,0.03-0.61,0.09c-0.19,0.06-0.37,0.15-0.52,0.26c-0.15,0.12-0.27,0.26-0.36,0.43
		c-0.09,0.17-0.14,0.37-0.14,0.6c0,0.21,0.04,0.4,0.12,0.56s0.19,0.29,0.32,0.39c0.14,0.1,0.29,0.18,0.47,0.23
		S473.14,324.25,473.34,324.25z M474.08,319.07c-0.19,0-0.37,0.03-0.55,0.08c-0.18,0.05-0.34,0.13-0.47,0.23
		c-0.13,0.1-0.24,0.23-0.33,0.38c-0.08,0.16-0.12,0.33-0.12,0.54c0,0.19,0.04,0.35,0.1,0.48c0.07,0.13,0.16,0.24,0.28,0.32
		c0.12,0.09,0.25,0.15,0.4,0.19c0.15,0.04,0.31,0.06,0.48,0.07c0.19,0,0.38-0.02,0.55-0.07c0.18-0.05,0.33-0.12,0.46-0.22
		c0.13-0.1,0.24-0.23,0.32-0.38c0.08-0.15,0.12-0.34,0.12-0.56c0-0.18-0.03-0.33-0.1-0.46c-0.07-0.13-0.16-0.24-0.28-0.32
		c-0.12-0.09-0.25-0.15-0.4-0.19C474.39,319.09,474.24,319.07,474.08,319.07z"/>
	<path d="M480.18,324.42h-3.62c0.02-0.27,0.08-0.5,0.19-0.72s0.25-0.4,0.42-0.57s0.36-0.32,0.56-0.46c0.21-0.14,0.42-0.26,0.63-0.38
		c0.27-0.15,0.54-0.29,0.8-0.44c0.26-0.14,0.49-0.29,0.7-0.44s0.37-0.33,0.49-0.52s0.18-0.41,0.18-0.65c0-0.37-0.11-0.66-0.34-0.87
		s-0.52-0.32-0.89-0.32c-0.24,0-0.46,0.04-0.65,0.13c-0.19,0.08-0.35,0.2-0.49,0.35s-0.24,0.32-0.32,0.52
		c-0.08,0.2-0.12,0.42-0.14,0.66h-0.3c0.01-0.28,0.06-0.53,0.15-0.77c0.09-0.24,0.22-0.44,0.38-0.61c0.17-0.17,0.36-0.3,0.59-0.4
		c0.23-0.1,0.49-0.14,0.77-0.14c0.22,0,0.42,0.03,0.61,0.1c0.19,0.06,0.35,0.16,0.49,0.28c0.14,0.12,0.25,0.27,0.32,0.45
		c0.08,0.18,0.12,0.38,0.12,0.61c0,0.27-0.05,0.5-0.15,0.7s-0.23,0.37-0.4,0.53c-0.17,0.15-0.35,0.29-0.57,0.42
		c-0.21,0.12-0.43,0.24-0.65,0.36c-0.23,0.12-0.46,0.25-0.69,0.38c-0.23,0.13-0.44,0.27-0.64,0.42c-0.2,0.15-0.37,0.32-0.51,0.5
		c-0.14,0.18-0.25,0.39-0.3,0.62h3.3L480.18,324.42z"/>
</g>
<g>
	<path d="M381.95,318.9h0.26l-0.25,1.76h1.35l0.25-1.76h0.26l-0.25,1.76h0.88l-0.04,0.26h-0.88l-0.19,1.38h0.89l-0.04,0.26h-0.89
		l-0.26,1.85h-0.26l0.26-1.85h-1.35l-0.26,1.85h-0.26l0.26-1.85h-0.94l0.04-0.26h0.94l0.19-1.38h-0.94l0.04-0.26h0.94L381.95,318.9z
		 M381.73,322.31h1.35l0.19-1.38h-1.35L381.73,322.31z"/>
	<path d="M386.65,318.71h3.58l-0.06,0.3h-3.23l-0.48,2.29h2.9l-0.06,0.3h-2.9l-0.58,2.82h-0.35L386.65,318.71z"/>
	<path d="M391.41,318.9h3.5l-0.07,0.3c-0.74,0.75-1.38,1.56-1.92,2.43c-0.55,0.87-0.98,1.8-1.3,2.79h-0.35
		c0.14-0.49,0.33-0.97,0.55-1.44c0.22-0.47,0.48-0.92,0.76-1.36c0.28-0.44,0.58-0.87,0.91-1.28c0.33-0.41,0.67-0.8,1.03-1.18h-3.16
		L391.41,318.9z"/>
	<path d="M396.85,318.71h3.58l-0.06,0.3h-3.23l-0.48,2.29h2.9l-0.06,0.3h-2.9l-0.58,2.82h-0.35L396.85,318.71z"/>
	<path d="M402.42,324.51c-0.32,0-0.58-0.06-0.79-0.17c-0.21-0.11-0.37-0.26-0.49-0.45c-0.12-0.18-0.2-0.39-0.25-0.61
		c-0.05-0.22-0.07-0.44-0.07-0.66c0-0.23,0.02-0.49,0.06-0.77c0.04-0.28,0.1-0.56,0.18-0.85s0.19-0.56,0.32-0.82
		c0.13-0.26,0.28-0.5,0.46-0.7c0.18-0.21,0.38-0.37,0.62-0.49c0.24-0.12,0.5-0.18,0.79-0.18c0.29,0,0.54,0.05,0.74,0.15
		s0.37,0.23,0.5,0.4s0.23,0.37,0.29,0.6s0.09,0.47,0.09,0.74c0,0.24-0.02,0.49-0.06,0.77s-0.1,0.56-0.18,0.84
		c-0.08,0.28-0.18,0.56-0.31,0.82s-0.28,0.5-0.46,0.71s-0.39,0.37-0.63,0.5S402.72,324.51,402.42,324.51z M402.36,324.25
		c0.27,0,0.52-0.06,0.73-0.18c0.22-0.12,0.41-0.28,0.57-0.47c0.16-0.19,0.3-0.42,0.42-0.67c0.12-0.25,0.21-0.51,0.28-0.77
		c0.08-0.26,0.13-0.52,0.16-0.78s0.05-0.49,0.05-0.7c0-0.22-0.02-0.43-0.06-0.63c-0.04-0.2-0.12-0.37-0.22-0.52
		c-0.1-0.15-0.23-0.26-0.4-0.34c-0.17-0.08-0.37-0.12-0.62-0.12c-0.34,0-0.64,0.1-0.9,0.3c-0.27,0.2-0.49,0.47-0.68,0.8
		c-0.18,0.33-0.32,0.71-0.42,1.14c-0.1,0.43-0.14,0.86-0.14,1.31c0,0.19,0.02,0.38,0.06,0.58c0.04,0.19,0.11,0.37,0.21,0.52
		c0.1,0.16,0.23,0.28,0.38,0.38C401.94,324.2,402.13,324.25,402.36,324.25z"/>
	<path d="M407.05,318.71h3.73l-0.07,0.3h-3.37l-0.48,2.29H410l-0.06,0.3h-3.14l-0.53,2.51h3.47l-0.06,0.3h-3.82L407.05,318.71z"/>
	<path d="M411.17,322.7l3.49-3.8H415l-0.82,3.85h0.9l-0.06,0.26h-0.89l-0.3,1.41h-0.32l0.3-1.41h-2.69L411.17,322.7z M413.85,322.75
		l0.74-3.35h-0.02l-3.06,3.35H413.85z"/>
</g>
<g>
	<path d="M510.81,318.9h0.26l-0.25,1.76h1.35l0.25-1.76h0.26l-0.25,1.76h0.88l-0.04,0.26h-0.88l-0.19,1.38h0.89l-0.04,0.26h-0.89
		l-0.26,1.85h-0.26l0.26-1.85h-1.35l-0.26,1.85h-0.26l0.26-1.85h-0.94l0.04-0.26h0.94l0.19-1.38h-0.94l0.04-0.26h0.94L510.81,318.9z
		 M510.59,322.31h1.35l0.19-1.38h-1.35L510.59,322.31z"/>
	<path d="M515.79,318.9h2.86l-0.08,0.26h-2.6l-0.74,2.13l0.02,0.02c0.14-0.18,0.33-0.32,0.58-0.43s0.5-0.16,0.75-0.16
		c0.5,0,0.89,0.13,1.18,0.4c0.29,0.27,0.44,0.66,0.44,1.18c0,0.31-0.05,0.61-0.14,0.88c-0.1,0.27-0.23,0.5-0.41,0.7
		s-0.4,0.36-0.65,0.47c-0.25,0.11-0.53,0.17-0.84,0.17c-0.29,0-0.54-0.04-0.74-0.12c-0.21-0.08-0.38-0.19-0.52-0.32
		c-0.14-0.13-0.24-0.27-0.3-0.42c-0.07-0.16-0.1-0.31-0.11-0.46c-0.01-0.11-0.01-0.19,0-0.26c0-0.07,0.01-0.13,0.02-0.2h0.3
		c-0.01,0.07-0.02,0.13-0.02,0.19c0,0.06,0,0.12,0,0.2c0,0.11,0.02,0.23,0.07,0.36c0.05,0.13,0.12,0.25,0.23,0.37
		c0.11,0.12,0.25,0.21,0.42,0.29c0.17,0.08,0.39,0.12,0.64,0.12c0.27,0,0.52-0.05,0.73-0.16c0.22-0.1,0.4-0.24,0.55-0.42
		c0.15-0.18,0.26-0.38,0.34-0.6s0.12-0.47,0.12-0.72c0-0.21-0.04-0.4-0.1-0.57s-0.16-0.31-0.28-0.43c-0.12-0.12-0.26-0.21-0.42-0.28
		c-0.16-0.06-0.33-0.1-0.51-0.1c-0.63,0-1.11,0.25-1.43,0.74l-0.33-0.02L515.79,318.9z"/>
	<path d="M520.77,318.71h1.85c0.38,0,0.71,0.05,0.98,0.15c0.27,0.1,0.48,0.25,0.65,0.45c0.17,0.2,0.29,0.44,0.37,0.72
		s0.12,0.61,0.12,0.98c0,0.41-0.07,0.82-0.2,1.22c-0.13,0.41-0.33,0.77-0.59,1.1s-0.58,0.59-0.96,0.79s-0.82,0.3-1.31,0.3h-2.1
		L520.77,318.71z M519.97,324.11h1.65c0.33,0,0.63-0.05,0.89-0.14c0.26-0.09,0.5-0.21,0.7-0.37c0.2-0.16,0.38-0.34,0.52-0.55
		c0.15-0.21,0.27-0.43,0.36-0.66c0.09-0.23,0.16-0.46,0.21-0.7s0.07-0.47,0.07-0.69c0-0.33-0.03-0.61-0.1-0.86
		c-0.06-0.25-0.17-0.46-0.31-0.63c-0.14-0.17-0.33-0.29-0.57-0.38c-0.23-0.08-0.52-0.13-0.86-0.13h-1.48L519.97,324.11z"/>
	<path d="M526.39,323.03c0,0.42,0.11,0.72,0.33,0.92c0.22,0.2,0.53,0.3,0.92,0.3c0.33,0,0.61-0.09,0.84-0.28
		c0.24-0.18,0.44-0.41,0.6-0.68c0.17-0.27,0.3-0.56,0.4-0.87c0.1-0.31,0.19-0.6,0.25-0.85l-0.02-0.02c-0.18,0.32-0.41,0.57-0.7,0.74
		c-0.28,0.17-0.6,0.26-0.96,0.26c-0.24,0-0.46-0.04-0.66-0.12c-0.2-0.08-0.37-0.19-0.52-0.33c-0.14-0.14-0.26-0.31-0.34-0.51
		s-0.12-0.42-0.12-0.66c0-0.28,0.04-0.54,0.14-0.8s0.22-0.49,0.39-0.68c0.17-0.2,0.37-0.35,0.61-0.47c0.24-0.12,0.51-0.18,0.8-0.18
		c0.3,0,0.56,0.05,0.77,0.14c0.22,0.1,0.39,0.23,0.53,0.4s0.24,0.37,0.31,0.6c0.07,0.23,0.1,0.48,0.1,0.76
		c0,0.24-0.02,0.5-0.06,0.78c-0.04,0.28-0.1,0.56-0.18,0.85c-0.08,0.28-0.19,0.56-0.32,0.82c-0.13,0.26-0.29,0.5-0.47,0.7
		c-0.18,0.2-0.4,0.36-0.64,0.48c-0.24,0.12-0.52,0.18-0.82,0.18c-0.47,0-0.84-0.13-1.1-0.4s-0.4-0.63-0.4-1.08H526.39z
		 M528.37,319.07c-0.26,0-0.49,0.05-0.7,0.16c-0.2,0.11-0.37,0.25-0.51,0.42c-0.14,0.18-0.24,0.38-0.31,0.6s-0.11,0.45-0.11,0.69
		c0,0.21,0.04,0.4,0.11,0.56s0.17,0.31,0.3,0.42c0.12,0.12,0.27,0.2,0.45,0.26c0.17,0.06,0.36,0.09,0.56,0.09
		c0.24,0,0.46-0.05,0.66-0.15s0.37-0.23,0.51-0.4c0.14-0.17,0.26-0.35,0.34-0.57c0.08-0.21,0.12-0.43,0.12-0.66
		c0-0.21-0.03-0.4-0.1-0.58c-0.07-0.18-0.16-0.33-0.28-0.46c-0.12-0.13-0.27-0.23-0.45-0.3S528.58,319.07,528.37,319.07z"/>
	<path d="M531.16,322.7l3.49-3.8h0.34l-0.82,3.85h0.9l-0.06,0.26h-0.89l-0.3,1.41h-0.32l0.3-1.41h-2.69L531.16,322.7z
		 M533.84,322.75l0.74-3.35h-0.02l-3.06,3.35H533.84z"/>
	<path d="M537.55,318.71h2.08c0.24,0,0.46,0.02,0.66,0.05c0.2,0.04,0.37,0.1,0.52,0.19c0.15,0.09,0.26,0.22,0.34,0.38
		s0.12,0.37,0.12,0.63c0,0.41-0.12,0.74-0.37,1s-0.58,0.42-1,0.47v0.02c0.71,0.11,1.06,0.53,1.06,1.25c0,0.2-0.04,0.4-0.11,0.6
		c-0.08,0.2-0.19,0.39-0.36,0.55c-0.16,0.17-0.38,0.3-0.64,0.41s-0.59,0.16-0.97,0.16h-2.55L537.55,318.71z M536.75,324.11h2.14
		c0.27,0,0.52-0.04,0.73-0.1c0.22-0.07,0.4-0.17,0.54-0.3c0.15-0.13,0.26-0.28,0.34-0.46c0.08-0.18,0.12-0.37,0.12-0.58
		c0-0.39-0.11-0.67-0.34-0.83c-0.22-0.16-0.58-0.24-1.08-0.24h-1.91L536.75,324.11z M537.35,321.3h1.91c0.51,0,0.92-0.11,1.21-0.34
		s0.44-0.55,0.44-0.96c0-0.22-0.03-0.39-0.1-0.52s-0.16-0.23-0.28-0.3c-0.12-0.07-0.26-0.11-0.42-0.13
		c-0.16-0.02-0.34-0.03-0.52-0.03h-1.76L537.35,321.3z"/>
	<path d="M543.38,318.71h1.85c0.38,0,0.71,0.05,0.98,0.15c0.27,0.1,0.48,0.25,0.65,0.45s0.29,0.44,0.37,0.72s0.12,0.61,0.12,0.98
		c0,0.41-0.07,0.82-0.2,1.22c-0.13,0.41-0.33,0.77-0.59,1.1c-0.26,0.33-0.58,0.59-0.96,0.79c-0.38,0.2-0.82,0.3-1.31,0.3h-2.1
		L543.38,318.71z M542.59,324.11h1.65c0.33,0,0.63-0.05,0.89-0.14c0.26-0.09,0.5-0.21,0.7-0.37c0.2-0.16,0.38-0.34,0.52-0.55
		s0.27-0.43,0.36-0.66c0.09-0.23,0.16-0.46,0.21-0.7c0.04-0.24,0.07-0.47,0.07-0.69c0-0.33-0.03-0.61-0.1-0.86
		c-0.06-0.25-0.17-0.46-0.31-0.63c-0.14-0.17-0.33-0.29-0.57-0.38c-0.24-0.08-0.52-0.13-0.86-0.13h-1.48L542.59,324.11z"/>
</g>
<g>
	<path d="M382.73,421.95H383l-0.25,1.76h1.35l0.25-1.76h0.26l-0.25,1.76h0.88l-0.04,0.26h-0.88l-0.19,1.38h0.89l-0.04,0.26h-0.89
		l-0.26,1.85h-0.26l0.26-1.85h-1.35l-0.26,1.85h-0.26l0.26-1.85h-0.94l0.04-0.26h0.94l0.19-1.38h-0.94l0.04-0.26h0.94L382.73,421.95
		z M382.51,425.36h1.35l0.19-1.38h-1.35L382.51,425.36z"/>
	<path d="M386.79,426.09c0,0.42,0.11,0.72,0.33,0.92s0.53,0.3,0.92,0.3c0.33,0,0.61-0.09,0.84-0.28c0.24-0.18,0.44-0.41,0.6-0.68
		s0.3-0.56,0.4-0.87c0.1-0.31,0.19-0.6,0.25-0.85l-0.02-0.02c-0.18,0.32-0.41,0.57-0.7,0.74c-0.28,0.17-0.6,0.26-0.96,0.26
		c-0.24,0-0.46-0.04-0.66-0.12c-0.2-0.08-0.37-0.19-0.52-0.33c-0.14-0.14-0.26-0.31-0.34-0.51s-0.12-0.42-0.12-0.66
		c0-0.28,0.05-0.54,0.14-0.8c0.09-0.26,0.22-0.49,0.39-0.68c0.17-0.2,0.37-0.35,0.61-0.47c0.24-0.12,0.51-0.18,0.8-0.18
		s0.56,0.05,0.77,0.14c0.22,0.1,0.39,0.23,0.53,0.4s0.24,0.37,0.31,0.6c0.07,0.23,0.1,0.48,0.1,0.76c0,0.24-0.02,0.5-0.06,0.78
		c-0.04,0.28-0.1,0.56-0.18,0.85c-0.08,0.28-0.19,0.56-0.32,0.82c-0.13,0.26-0.29,0.5-0.47,0.7s-0.4,0.36-0.64,0.48
		c-0.24,0.12-0.52,0.18-0.82,0.18c-0.47,0-0.84-0.13-1.1-0.4c-0.27-0.27-0.4-0.63-0.4-1.08H386.79z M388.76,422.12
		c-0.26,0-0.49,0.05-0.7,0.16c-0.2,0.11-0.37,0.25-0.51,0.42c-0.13,0.18-0.24,0.38-0.31,0.6c-0.07,0.22-0.11,0.45-0.11,0.69
		c0,0.21,0.04,0.4,0.11,0.56c0.07,0.17,0.17,0.31,0.3,0.42c0.12,0.12,0.28,0.2,0.45,0.26c0.17,0.06,0.36,0.09,0.56,0.09
		c0.24,0,0.46-0.05,0.66-0.15s0.37-0.23,0.51-0.4c0.14-0.17,0.26-0.35,0.34-0.57c0.08-0.21,0.12-0.43,0.12-0.66
		c0-0.21-0.03-0.4-0.1-0.58c-0.07-0.18-0.16-0.33-0.28-0.46c-0.12-0.13-0.27-0.23-0.45-0.3S388.98,422.12,388.76,422.12z"/>
	<path d="M392.69,421.76h1.85c0.38,0,0.71,0.05,0.98,0.15c0.27,0.1,0.48,0.25,0.65,0.45s0.29,0.44,0.37,0.72
		c0.08,0.29,0.12,0.61,0.12,0.98c0,0.41-0.07,0.82-0.2,1.22c-0.13,0.41-0.33,0.77-0.59,1.1s-0.58,0.59-0.96,0.79
		c-0.38,0.2-0.82,0.3-1.31,0.3h-2.1L392.69,421.76z M391.9,427.17h1.65c0.33,0,0.63-0.05,0.89-0.14c0.26-0.09,0.5-0.21,0.7-0.37
		c0.2-0.16,0.38-0.34,0.52-0.55s0.27-0.43,0.36-0.66c0.09-0.23,0.16-0.46,0.21-0.7c0.04-0.24,0.07-0.47,0.07-0.69
		c0-0.33-0.03-0.61-0.1-0.86c-0.06-0.25-0.17-0.46-0.31-0.63s-0.33-0.29-0.57-0.38c-0.24-0.08-0.52-0.13-0.87-0.13h-1.48
		L391.9,427.17z"/>
	<path d="M398.31,426.09c0,0.42,0.11,0.72,0.33,0.92s0.53,0.3,0.92,0.3c0.33,0,0.61-0.09,0.84-0.28c0.24-0.18,0.44-0.41,0.6-0.68
		c0.17-0.27,0.3-0.56,0.4-0.87c0.1-0.31,0.19-0.6,0.25-0.85l-0.02-0.02c-0.18,0.32-0.41,0.57-0.7,0.74
		c-0.28,0.17-0.6,0.26-0.96,0.26c-0.24,0-0.46-0.04-0.66-0.12c-0.2-0.08-0.37-0.19-0.52-0.33c-0.14-0.14-0.26-0.31-0.34-0.51
		s-0.12-0.42-0.12-0.66c0-0.28,0.04-0.54,0.14-0.8c0.09-0.26,0.22-0.49,0.39-0.68c0.17-0.2,0.37-0.35,0.61-0.47
		c0.24-0.12,0.5-0.18,0.8-0.18c0.3,0,0.56,0.05,0.77,0.14c0.22,0.1,0.39,0.23,0.53,0.4s0.24,0.37,0.31,0.6
		c0.07,0.23,0.1,0.48,0.1,0.76c0,0.24-0.02,0.5-0.06,0.78c-0.04,0.28-0.1,0.56-0.18,0.85c-0.08,0.28-0.19,0.56-0.32,0.82
		c-0.13,0.26-0.29,0.5-0.47,0.7s-0.4,0.36-0.64,0.48c-0.24,0.12-0.52,0.18-0.82,0.18c-0.47,0-0.84-0.13-1.1-0.4
		c-0.27-0.27-0.4-0.63-0.4-1.08H398.31z M400.29,422.12c-0.26,0-0.49,0.05-0.7,0.16c-0.2,0.11-0.37,0.25-0.51,0.42
		c-0.14,0.18-0.24,0.38-0.31,0.6s-0.11,0.45-0.11,0.69c0,0.21,0.04,0.4,0.11,0.56s0.17,0.31,0.3,0.42c0.13,0.12,0.27,0.2,0.45,0.26
		c0.17,0.06,0.36,0.09,0.56,0.09c0.24,0,0.46-0.05,0.66-0.15s0.37-0.23,0.51-0.4c0.14-0.17,0.26-0.35,0.34-0.57
		c0.08-0.21,0.12-0.43,0.12-0.66c0-0.21-0.03-0.4-0.1-0.58c-0.07-0.18-0.16-0.33-0.28-0.46c-0.12-0.13-0.27-0.23-0.45-0.3
		S400.5,422.12,400.29,422.12z"/>
	<path d="M406.51,427.47h-3.62c0.02-0.27,0.08-0.5,0.19-0.72s0.25-0.4,0.42-0.57s0.36-0.32,0.56-0.46c0.21-0.14,0.42-0.26,0.63-0.38
		c0.27-0.15,0.54-0.29,0.8-0.44c0.26-0.14,0.49-0.29,0.7-0.44s0.37-0.33,0.49-0.52s0.18-0.41,0.18-0.65c0-0.37-0.11-0.66-0.34-0.87
		s-0.52-0.32-0.89-0.32c-0.24,0-0.46,0.04-0.65,0.13c-0.19,0.08-0.35,0.2-0.49,0.35s-0.24,0.32-0.32,0.52
		c-0.08,0.2-0.12,0.42-0.14,0.66h-0.3c0.01-0.28,0.06-0.53,0.15-0.77c0.09-0.24,0.22-0.44,0.38-0.61c0.17-0.17,0.36-0.3,0.59-0.4
		c0.23-0.1,0.49-0.14,0.77-0.14c0.22,0,0.42,0.03,0.61,0.1c0.19,0.06,0.35,0.16,0.49,0.28c0.14,0.12,0.25,0.27,0.32,0.45
		c0.08,0.18,0.12,0.38,0.12,0.61c0,0.27-0.05,0.5-0.15,0.7s-0.23,0.37-0.4,0.53c-0.17,0.15-0.35,0.29-0.57,0.42
		c-0.21,0.12-0.43,0.24-0.65,0.36c-0.23,0.12-0.46,0.25-0.69,0.38c-0.23,0.13-0.44,0.27-0.64,0.42c-0.2,0.15-0.37,0.32-0.51,0.5
		c-0.14,0.18-0.25,0.39-0.3,0.62h3.3L406.51,427.47z"/>
	<path d="M412.17,423.35c0-0.42-0.11-0.73-0.32-0.93c-0.21-0.2-0.52-0.3-0.93-0.3c-0.23,0-0.44,0.04-0.62,0.12
		c-0.18,0.08-0.34,0.19-0.48,0.34c-0.14,0.14-0.26,0.3-0.37,0.48c-0.11,0.18-0.2,0.37-0.27,0.57s-0.14,0.4-0.19,0.6
		c-0.05,0.2-0.1,0.39-0.14,0.56l0.02,0.02c0.16-0.32,0.38-0.56,0.66-0.73c0.28-0.17,0.6-0.25,0.96-0.25c0.24,0,0.46,0.04,0.66,0.12
		s0.37,0.19,0.52,0.34c0.14,0.14,0.26,0.32,0.34,0.52s0.12,0.42,0.12,0.66c0,0.28-0.04,0.55-0.13,0.8
		c-0.09,0.25-0.22,0.48-0.39,0.67s-0.37,0.35-0.61,0.46c-0.24,0.12-0.51,0.17-0.8,0.17c-0.3,0-0.56-0.05-0.77-0.14
		c-0.22-0.09-0.39-0.22-0.53-0.39c-0.14-0.17-0.24-0.36-0.31-0.6c-0.07-0.23-0.1-0.48-0.1-0.76c0-0.24,0.02-0.5,0.06-0.78
		c0.04-0.28,0.1-0.56,0.18-0.85c0.08-0.28,0.19-0.56,0.32-0.82c0.13-0.26,0.29-0.5,0.47-0.7c0.18-0.21,0.4-0.37,0.64-0.49
		c0.24-0.12,0.52-0.18,0.82-0.18c0.47,0,0.84,0.13,1.1,0.38c0.27,0.26,0.4,0.63,0.4,1.11H412.17z M410.19,427.3
		c0.26,0,0.49-0.05,0.7-0.16c0.2-0.1,0.37-0.24,0.51-0.42c0.14-0.17,0.24-0.37,0.31-0.59c0.07-0.22,0.11-0.45,0.11-0.69
		c0-0.21-0.04-0.4-0.11-0.57c-0.07-0.17-0.17-0.31-0.29-0.43c-0.13-0.12-0.28-0.21-0.45-0.27s-0.36-0.09-0.56-0.09
		c-0.24,0-0.46,0.05-0.66,0.15c-0.2,0.1-0.37,0.23-0.52,0.4s-0.25,0.36-0.33,0.57c-0.08,0.22-0.12,0.44-0.12,0.67
		c0,0.21,0.03,0.41,0.1,0.58c0.07,0.18,0.16,0.33,0.29,0.45c0.12,0.13,0.27,0.22,0.44,0.29C409.78,427.27,409.98,427.3,410.19,427.3
		z"/>
	<path d="M415.39,427.57c-0.23,0-0.45-0.03-0.66-0.09s-0.4-0.15-0.56-0.28c-0.16-0.12-0.29-0.28-0.39-0.46
		c-0.1-0.18-0.15-0.4-0.15-0.65s0.04-0.47,0.12-0.66s0.19-0.35,0.34-0.48c0.14-0.13,0.31-0.24,0.51-0.31
		c0.2-0.08,0.41-0.12,0.64-0.15v-0.02c-0.12-0.03-0.23-0.08-0.33-0.15s-0.2-0.15-0.27-0.25c-0.08-0.1-0.14-0.2-0.19-0.32
		c-0.04-0.12-0.07-0.24-0.07-0.37c0-0.26,0.05-0.48,0.14-0.67c0.1-0.19,0.23-0.35,0.39-0.47c0.17-0.12,0.36-0.22,0.57-0.28
		c0.21-0.06,0.44-0.1,0.67-0.1c0.2,0,0.39,0.03,0.58,0.08c0.19,0.06,0.35,0.14,0.5,0.24s0.26,0.24,0.35,0.41s0.13,0.35,0.13,0.57
		c0,0.19-0.03,0.37-0.1,0.53c-0.07,0.16-0.16,0.3-0.27,0.42c-0.11,0.12-0.25,0.22-0.41,0.29c-0.16,0.08-0.33,0.12-0.52,0.14v0.02
		c0.67,0.19,1,0.63,1,1.34c0,0.27-0.06,0.51-0.18,0.72s-0.27,0.38-0.46,0.52s-0.4,0.25-0.64,0.32
		C415.88,427.53,415.64,427.57,415.39,427.57z M415.41,427.3c0.22,0,0.44-0.03,0.64-0.09c0.21-0.06,0.39-0.16,0.54-0.28
		s0.28-0.28,0.37-0.46s0.14-0.39,0.14-0.63c0-0.21-0.04-0.39-0.14-0.54s-0.21-0.27-0.35-0.36c-0.14-0.09-0.31-0.16-0.49-0.2
		c-0.18-0.04-0.37-0.06-0.56-0.06c-0.21,0-0.42,0.03-0.61,0.09c-0.19,0.06-0.37,0.15-0.52,0.26c-0.15,0.12-0.27,0.26-0.36,0.43
		c-0.09,0.17-0.14,0.37-0.14,0.6c0,0.21,0.04,0.4,0.12,0.56s0.19,0.29,0.32,0.39c0.14,0.1,0.29,0.18,0.47,0.23
		S415.21,427.3,415.41,427.3z M416.15,422.12c-0.19,0-0.37,0.03-0.55,0.08c-0.18,0.05-0.34,0.13-0.47,0.23
		c-0.13,0.1-0.24,0.23-0.33,0.38c-0.08,0.16-0.12,0.33-0.12,0.54c0,0.19,0.04,0.35,0.1,0.48c0.07,0.13,0.16,0.24,0.28,0.32
		c0.12,0.09,0.25,0.15,0.4,0.19c0.15,0.04,0.31,0.06,0.48,0.07c0.19,0,0.38-0.02,0.55-0.07c0.18-0.05,0.33-0.12,0.46-0.22
		c0.13-0.1,0.24-0.23,0.32-0.38c0.08-0.15,0.12-0.34,0.12-0.56c0-0.18-0.03-0.33-0.1-0.46c-0.07-0.13-0.16-0.24-0.28-0.32
		c-0.12-0.09-0.25-0.15-0.4-0.19C416.46,422.14,416.31,422.12,416.15,422.12z"/>
</g>
<g>
	<path d="M446.6,421.95h0.26l-0.25,1.76h1.35l0.25-1.76h0.26l-0.25,1.76h0.88l-0.04,0.26h-0.88l-0.19,1.38h0.89l-0.04,0.26h-0.89
		l-0.26,1.85h-0.26l0.26-1.85h-1.35l-0.26,1.85h-0.26l0.26-1.85h-0.94l0.04-0.26h0.94l0.19-1.38h-0.94l0.04-0.26h0.94L446.6,421.95z
		 M446.38,425.36h1.35l0.19-1.38h-1.35L446.38,425.36z"/>
	<path d="M451.31,421.76h1.85c0.38,0,0.71,0.05,0.98,0.15c0.27,0.1,0.48,0.25,0.65,0.45s0.29,0.44,0.37,0.72s0.12,0.61,0.12,0.98
		c0,0.41-0.07,0.82-0.2,1.22c-0.13,0.41-0.33,0.77-0.59,1.1c-0.26,0.33-0.58,0.59-0.96,0.79c-0.38,0.2-0.82,0.3-1.31,0.3h-2.1
		L451.31,421.76z M450.52,427.17h1.65c0.33,0,0.63-0.05,0.89-0.14c0.26-0.09,0.5-0.21,0.7-0.37c0.2-0.16,0.38-0.34,0.52-0.55
		s0.27-0.43,0.36-0.66c0.09-0.23,0.16-0.46,0.21-0.7c0.04-0.24,0.07-0.47,0.07-0.69c0-0.33-0.03-0.61-0.1-0.86
		c-0.06-0.25-0.17-0.46-0.31-0.63c-0.14-0.17-0.33-0.29-0.57-0.38c-0.24-0.08-0.52-0.13-0.86-0.13h-1.48L450.52,427.17z"/>
	<path d="M456.93,426.09c0,0.42,0.11,0.72,0.33,0.92c0.22,0.2,0.53,0.3,0.92,0.3c0.33,0,0.61-0.09,0.84-0.28
		c0.24-0.18,0.44-0.41,0.6-0.68c0.17-0.27,0.3-0.56,0.4-0.87c0.1-0.31,0.19-0.6,0.25-0.85l-0.02-0.02c-0.18,0.32-0.41,0.57-0.7,0.74
		c-0.28,0.17-0.6,0.26-0.96,0.26c-0.24,0-0.46-0.04-0.66-0.12c-0.2-0.08-0.37-0.19-0.52-0.33c-0.14-0.14-0.26-0.31-0.34-0.51
		s-0.12-0.42-0.12-0.66c0-0.28,0.04-0.54,0.14-0.8s0.22-0.49,0.39-0.68c0.17-0.2,0.37-0.35,0.61-0.47c0.24-0.12,0.51-0.18,0.8-0.18
		c0.3,0,0.56,0.05,0.77,0.14c0.22,0.1,0.39,0.23,0.53,0.4s0.24,0.37,0.31,0.6c0.07,0.23,0.1,0.48,0.1,0.76
		c0,0.24-0.02,0.5-0.06,0.78c-0.04,0.28-0.1,0.56-0.18,0.85c-0.08,0.28-0.19,0.56-0.32,0.82c-0.13,0.26-0.29,0.5-0.47,0.7
		c-0.18,0.2-0.4,0.36-0.64,0.48c-0.24,0.12-0.52,0.18-0.82,0.18c-0.47,0-0.84-0.13-1.1-0.4s-0.4-0.63-0.4-1.08H456.93z
		 M458.91,422.12c-0.26,0-0.49,0.05-0.7,0.16c-0.2,0.11-0.37,0.25-0.51,0.42c-0.14,0.18-0.24,0.38-0.31,0.6s-0.11,0.45-0.11,0.69
		c0,0.21,0.04,0.4,0.11,0.56s0.17,0.31,0.3,0.42c0.12,0.12,0.27,0.2,0.45,0.26c0.17,0.06,0.36,0.09,0.56,0.09
		c0.24,0,0.46-0.05,0.66-0.15s0.37-0.23,0.51-0.4c0.14-0.17,0.26-0.35,0.34-0.57c0.08-0.21,0.12-0.43,0.12-0.66
		c0-0.21-0.03-0.4-0.1-0.58c-0.07-0.18-0.16-0.33-0.28-0.46c-0.12-0.13-0.27-0.23-0.45-0.3S459.12,422.12,458.91,422.12z"/>
	<path d="M462.84,421.76h2.08c0.24,0,0.46,0.02,0.66,0.05c0.2,0.04,0.37,0.1,0.52,0.19c0.15,0.09,0.26,0.22,0.34,0.38
		s0.12,0.37,0.12,0.63c0,0.41-0.12,0.74-0.37,1c-0.25,0.26-0.58,0.42-1,0.47v0.02c0.71,0.11,1.06,0.53,1.06,1.25
		c0,0.2-0.04,0.4-0.11,0.6c-0.08,0.2-0.19,0.39-0.36,0.55c-0.16,0.17-0.38,0.3-0.64,0.41c-0.26,0.11-0.59,0.16-0.97,0.16h-2.55
		L462.84,421.76z M462.04,427.17h2.14c0.27,0,0.52-0.04,0.73-0.1s0.4-0.17,0.54-0.3s0.26-0.28,0.34-0.46s0.12-0.37,0.12-0.58
		c0-0.39-0.11-0.67-0.34-0.83c-0.22-0.16-0.58-0.24-1.08-0.24h-1.91L462.04,427.17z M462.64,424.35h1.91c0.51,0,0.92-0.11,1.21-0.34
		c0.3-0.23,0.44-0.55,0.44-0.96c0-0.22-0.03-0.39-0.1-0.52c-0.07-0.13-0.16-0.23-0.28-0.3s-0.26-0.11-0.42-0.13
		c-0.16-0.02-0.34-0.03-0.52-0.03h-1.76L462.64,424.35z"/>
	<path d="M468.66,421.76h3.58l-0.06,0.3h-3.23l-0.48,2.29h2.9l-0.06,0.3h-2.9l-0.58,2.82h-0.35L468.66,421.76z"/>
	<path d="M476.33,423.35c0-0.42-0.11-0.73-0.32-0.93c-0.21-0.2-0.52-0.3-0.93-0.3c-0.23,0-0.43,0.04-0.62,0.12
		c-0.18,0.08-0.34,0.19-0.48,0.34c-0.14,0.14-0.26,0.3-0.37,0.48c-0.11,0.18-0.2,0.37-0.27,0.57c-0.07,0.2-0.14,0.4-0.19,0.6
		c-0.05,0.2-0.1,0.39-0.14,0.56l0.02,0.02c0.16-0.32,0.38-0.56,0.66-0.73c0.28-0.17,0.6-0.25,0.96-0.25c0.24,0,0.46,0.04,0.66,0.12
		c0.2,0.08,0.37,0.19,0.52,0.34c0.14,0.14,0.26,0.32,0.34,0.52s0.12,0.42,0.12,0.66c0,0.28-0.05,0.55-0.14,0.8
		c-0.09,0.25-0.22,0.48-0.39,0.67s-0.37,0.35-0.61,0.46c-0.24,0.12-0.51,0.17-0.8,0.17c-0.3,0-0.56-0.05-0.77-0.14
		c-0.22-0.09-0.39-0.22-0.53-0.39c-0.14-0.17-0.24-0.36-0.31-0.6c-0.07-0.23-0.1-0.48-0.1-0.76c0-0.24,0.02-0.5,0.06-0.78
		c0.04-0.28,0.1-0.56,0.18-0.85c0.08-0.28,0.19-0.56,0.32-0.82c0.13-0.26,0.29-0.5,0.47-0.7c0.18-0.21,0.4-0.37,0.64-0.49
		c0.24-0.12,0.52-0.18,0.82-0.18c0.47,0,0.84,0.13,1.1,0.38c0.27,0.26,0.4,0.63,0.4,1.11H476.33z M474.36,427.3
		c0.26,0,0.49-0.05,0.7-0.16c0.2-0.1,0.37-0.24,0.51-0.42c0.14-0.17,0.24-0.37,0.31-0.59s0.11-0.45,0.11-0.69
		c0-0.21-0.04-0.4-0.11-0.57s-0.17-0.31-0.3-0.43c-0.13-0.12-0.28-0.21-0.45-0.27s-0.36-0.09-0.56-0.09c-0.24,0-0.46,0.05-0.66,0.15
		c-0.2,0.1-0.37,0.23-0.52,0.4c-0.14,0.17-0.25,0.36-0.33,0.57c-0.08,0.22-0.12,0.44-0.12,0.67c0,0.21,0.03,0.41,0.1,0.58
		c0.07,0.18,0.16,0.33,0.28,0.45c0.12,0.13,0.27,0.22,0.44,0.29C473.94,427.27,474.14,427.3,474.36,427.3z"/>
	<path d="M481.58,423.35c0-0.42-0.11-0.73-0.32-0.93c-0.21-0.2-0.52-0.3-0.93-0.3c-0.23,0-0.43,0.04-0.62,0.12
		c-0.18,0.08-0.34,0.19-0.48,0.34c-0.14,0.14-0.26,0.3-0.37,0.48c-0.11,0.18-0.2,0.37-0.27,0.57c-0.08,0.2-0.14,0.4-0.19,0.6
		c-0.05,0.2-0.1,0.39-0.14,0.56l0.02,0.02c0.16-0.32,0.38-0.56,0.66-0.73c0.28-0.17,0.6-0.25,0.96-0.25c0.24,0,0.46,0.04,0.66,0.12
		s0.37,0.19,0.52,0.34c0.14,0.14,0.26,0.32,0.34,0.52s0.12,0.42,0.12,0.66c0,0.28-0.04,0.55-0.14,0.8s-0.22,0.48-0.39,0.67
		s-0.37,0.35-0.61,0.46c-0.24,0.12-0.51,0.17-0.8,0.17c-0.3,0-0.56-0.05-0.77-0.14c-0.22-0.09-0.39-0.22-0.53-0.39
		c-0.14-0.17-0.24-0.36-0.31-0.6c-0.07-0.23-0.1-0.48-0.1-0.76c0-0.24,0.02-0.5,0.06-0.78c0.04-0.28,0.1-0.56,0.18-0.85
		c0.08-0.28,0.19-0.56,0.32-0.82c0.13-0.26,0.29-0.5,0.47-0.7c0.18-0.21,0.4-0.37,0.64-0.49c0.24-0.12,0.52-0.18,0.82-0.18
		c0.47,0,0.84,0.13,1.1,0.38c0.27,0.26,0.4,0.63,0.4,1.11H481.58z M479.6,427.3c0.26,0,0.49-0.05,0.7-0.16
		c0.2-0.1,0.37-0.24,0.51-0.42c0.14-0.17,0.24-0.37,0.31-0.59c0.07-0.22,0.11-0.45,0.11-0.69c0-0.21-0.04-0.4-0.11-0.57
		c-0.07-0.17-0.17-0.31-0.3-0.43c-0.12-0.12-0.27-0.21-0.45-0.27c-0.17-0.06-0.36-0.09-0.56-0.09c-0.24,0-0.46,0.05-0.66,0.15
		s-0.37,0.23-0.52,0.4c-0.14,0.17-0.25,0.36-0.33,0.57c-0.08,0.22-0.12,0.44-0.12,0.67c0,0.21,0.03,0.41,0.1,0.58
		c0.07,0.18,0.16,0.33,0.28,0.45c0.12,0.13,0.27,0.22,0.44,0.29C479.19,427.27,479.38,427.3,479.6,427.3z"/>
</g>
<rect x="503.37" y="366.84" class="st33" width="49.56" height="48.09"/>
<g>
	<path d="M510.81,421.95h0.26l-0.25,1.76h1.35l0.25-1.76h0.26l-0.25,1.76h0.88l-0.04,0.26h-0.88l-0.19,1.38h0.89l-0.04,0.26h-0.89
		l-0.26,1.85h-0.26l0.26-1.85h-1.35l-0.26,1.85h-0.26l0.26-1.85h-0.94l0.04-0.26h0.94l0.19-1.38h-0.94l0.04-0.26h0.94L510.81,421.95
		z M510.59,425.36h1.35l0.19-1.38h-1.35L510.59,425.36z"/>
	<path d="M515.5,421.76h3.58l-0.06,0.3h-3.23l-0.48,2.29h2.9l-0.06,0.3h-2.9l-0.58,2.82h-0.35L515.5,421.76z"/>
	<path d="M519.81,426.09c0,0.42,0.11,0.72,0.33,0.92c0.22,0.2,0.53,0.3,0.92,0.3c0.33,0,0.61-0.09,0.84-0.28
		c0.24-0.18,0.44-0.41,0.6-0.68c0.17-0.27,0.3-0.56,0.4-0.87c0.1-0.31,0.19-0.6,0.25-0.85l-0.02-0.02c-0.18,0.32-0.41,0.57-0.7,0.74
		c-0.28,0.17-0.6,0.26-0.96,0.26c-0.24,0-0.46-0.04-0.66-0.12c-0.2-0.08-0.37-0.19-0.52-0.33c-0.14-0.14-0.26-0.31-0.34-0.51
		s-0.12-0.42-0.12-0.66c0-0.28,0.04-0.54,0.14-0.8s0.22-0.49,0.39-0.68c0.17-0.2,0.37-0.35,0.61-0.47c0.24-0.12,0.51-0.18,0.8-0.18
		c0.3,0,0.56,0.05,0.77,0.14c0.22,0.1,0.39,0.23,0.53,0.4s0.24,0.37,0.31,0.6c0.07,0.23,0.1,0.48,0.1,0.76
		c0,0.24-0.02,0.5-0.06,0.78c-0.04,0.28-0.1,0.56-0.18,0.85c-0.08,0.28-0.19,0.56-0.32,0.82c-0.13,0.26-0.29,0.5-0.47,0.7
		c-0.18,0.2-0.4,0.36-0.64,0.48c-0.24,0.12-0.52,0.18-0.82,0.18c-0.47,0-0.84-0.13-1.1-0.4s-0.4-0.63-0.4-1.08H519.81z
		 M521.79,422.12c-0.26,0-0.49,0.05-0.7,0.16c-0.2,0.11-0.37,0.25-0.51,0.42c-0.14,0.18-0.24,0.38-0.31,0.6s-0.11,0.45-0.11,0.69
		c0,0.21,0.04,0.4,0.11,0.56s0.17,0.31,0.3,0.42c0.12,0.12,0.27,0.2,0.45,0.26c0.17,0.06,0.36,0.09,0.56,0.09
		c0.24,0,0.46-0.05,0.66-0.15s0.37-0.23,0.51-0.4c0.14-0.17,0.26-0.35,0.34-0.57c0.08-0.21,0.12-0.43,0.12-0.66
		c0-0.21-0.03-0.4-0.1-0.58c-0.07-0.18-0.16-0.33-0.28-0.46c-0.12-0.13-0.27-0.23-0.45-0.3S522,422.12,521.79,422.12z"/>
	<path d="M525.7,421.76h3.58l-0.06,0.3h-3.23l-0.48,2.29h2.9l-0.06,0.3h-2.9l-0.58,2.82h-0.35L525.7,421.76z"/>
	<path d="M533.37,423.35c0-0.42-0.11-0.73-0.32-0.93c-0.21-0.2-0.52-0.3-0.93-0.3c-0.23,0-0.43,0.04-0.62,0.12
		c-0.18,0.08-0.34,0.19-0.48,0.34c-0.14,0.14-0.26,0.3-0.37,0.48c-0.11,0.18-0.2,0.37-0.27,0.57c-0.07,0.2-0.14,0.4-0.19,0.6
		c-0.05,0.2-0.1,0.39-0.14,0.56l0.02,0.02c0.16-0.32,0.38-0.56,0.66-0.73c0.28-0.17,0.6-0.25,0.96-0.25c0.24,0,0.46,0.04,0.66,0.12
		c0.2,0.08,0.37,0.19,0.52,0.34c0.14,0.14,0.26,0.32,0.34,0.52s0.12,0.42,0.12,0.66c0,0.28-0.05,0.55-0.14,0.8
		c-0.09,0.25-0.22,0.48-0.39,0.67s-0.37,0.35-0.61,0.46c-0.24,0.12-0.51,0.17-0.8,0.17c-0.3,0-0.56-0.05-0.77-0.14
		c-0.22-0.09-0.39-0.22-0.53-0.39c-0.14-0.17-0.24-0.36-0.31-0.6c-0.07-0.23-0.1-0.48-0.1-0.76c0-0.24,0.02-0.5,0.06-0.78
		c0.04-0.28,0.1-0.56,0.18-0.85c0.08-0.28,0.19-0.56,0.32-0.82c0.13-0.26,0.29-0.5,0.47-0.7c0.18-0.21,0.4-0.37,0.64-0.49
		c0.24-0.12,0.52-0.18,0.82-0.18c0.47,0,0.84,0.13,1.1,0.38c0.27,0.26,0.4,0.63,0.4,1.11H533.37z M531.4,427.3
		c0.26,0,0.49-0.05,0.7-0.16c0.2-0.1,0.37-0.24,0.51-0.42c0.14-0.17,0.24-0.37,0.31-0.59s0.11-0.45,0.11-0.69
		c0-0.21-0.04-0.4-0.11-0.57s-0.17-0.31-0.3-0.43c-0.13-0.12-0.28-0.21-0.45-0.27s-0.36-0.09-0.56-0.09c-0.24,0-0.46,0.05-0.66,0.15
		c-0.2,0.1-0.37,0.23-0.52,0.4c-0.14,0.17-0.25,0.36-0.33,0.57c-0.08,0.22-0.12,0.44-0.12,0.67c0,0.21,0.03,0.41,0.1,0.58
		c0.07,0.18,0.16,0.33,0.28,0.45c0.12,0.13,0.27,0.22,0.44,0.29C530.98,427.27,531.18,427.3,531.4,427.3z"/>
	<path d="M535.9,421.76h3.58l-0.06,0.3h-3.23l-0.48,2.29h2.9l-0.06,0.3h-2.9l-0.58,2.82h-0.35L535.9,421.76z"/>
	<path d="M543.16,427.47h-3.62c0.02-0.27,0.08-0.5,0.19-0.72s0.25-0.4,0.42-0.57s0.36-0.32,0.56-0.46c0.21-0.14,0.42-0.26,0.63-0.38
		c0.27-0.15,0.54-0.29,0.8-0.44c0.26-0.14,0.49-0.29,0.7-0.44c0.2-0.15,0.37-0.33,0.49-0.52s0.18-0.41,0.18-0.65
		c0-0.37-0.11-0.66-0.34-0.87s-0.52-0.32-0.89-0.32c-0.25,0-0.46,0.04-0.65,0.13c-0.19,0.08-0.35,0.2-0.49,0.35
		c-0.14,0.15-0.24,0.32-0.32,0.52c-0.08,0.2-0.12,0.42-0.14,0.66h-0.3c0.01-0.28,0.06-0.53,0.15-0.77s0.22-0.44,0.38-0.61
		s0.36-0.3,0.59-0.4c0.23-0.1,0.49-0.14,0.77-0.14c0.22,0,0.42,0.03,0.61,0.1c0.19,0.06,0.35,0.16,0.49,0.28
		c0.14,0.12,0.25,0.27,0.32,0.45s0.12,0.38,0.12,0.61c0,0.27-0.05,0.5-0.15,0.7s-0.23,0.37-0.4,0.53c-0.17,0.15-0.35,0.29-0.57,0.42
		c-0.21,0.12-0.43,0.24-0.65,0.36c-0.23,0.12-0.46,0.25-0.69,0.38s-0.44,0.27-0.64,0.42c-0.2,0.15-0.37,0.32-0.51,0.5
		c-0.14,0.18-0.25,0.39-0.3,0.62h3.3L543.16,427.47z"/>
</g>
<g>
	<path d="M508.9,215.15h0.26l-0.25,1.76h1.35l0.25-1.76h0.26l-0.25,1.76h0.88l-0.04,0.26h-0.88l-0.19,1.38h0.89l-0.04,0.26h-0.89
		l-0.26,1.85h-0.26l0.26-1.85h-1.35l-0.26,1.85h-0.26l0.26-1.85h-0.94l0.04-0.26h0.94l0.19-1.38h-0.94l0.04-0.26h0.94L508.9,215.15z
		 M508.68,218.56h1.35l0.19-1.38h-1.35L508.68,218.56z"/>
	<path d="M514.21,220.77c-0.32,0-0.58-0.06-0.79-0.17c-0.21-0.11-0.37-0.26-0.49-0.45c-0.12-0.18-0.2-0.39-0.25-0.61
		c-0.04-0.22-0.07-0.44-0.07-0.66c0-0.23,0.02-0.49,0.06-0.77c0.04-0.28,0.1-0.56,0.18-0.85c0.08-0.29,0.19-0.56,0.32-0.82
		c0.13-0.26,0.28-0.5,0.46-0.7c0.18-0.21,0.39-0.37,0.62-0.49c0.23-0.12,0.5-0.18,0.79-0.18c0.29,0,0.53,0.05,0.74,0.15
		c0.21,0.1,0.37,0.23,0.5,0.4s0.23,0.37,0.29,0.6c0.06,0.23,0.09,0.47,0.09,0.74c0,0.24-0.02,0.49-0.06,0.77
		c-0.04,0.28-0.1,0.56-0.18,0.84c-0.08,0.28-0.18,0.56-0.31,0.82s-0.28,0.5-0.46,0.71c-0.18,0.21-0.39,0.37-0.63,0.5
		C514.78,220.7,514.51,220.77,514.21,220.77z M514.15,220.5c0.27,0,0.52-0.06,0.73-0.18s0.41-0.28,0.57-0.47
		c0.16-0.19,0.3-0.42,0.42-0.67c0.11-0.25,0.21-0.51,0.28-0.77c0.07-0.26,0.13-0.52,0.16-0.78c0.03-0.26,0.05-0.49,0.05-0.7
		c0-0.22-0.02-0.43-0.06-0.63s-0.11-0.37-0.22-0.52s-0.24-0.26-0.4-0.34c-0.17-0.08-0.37-0.12-0.62-0.12c-0.34,0-0.64,0.1-0.9,0.3
		c-0.27,0.2-0.49,0.47-0.68,0.8c-0.18,0.33-0.32,0.71-0.42,1.14c-0.1,0.43-0.14,0.86-0.14,1.31c0,0.19,0.02,0.38,0.06,0.58
		c0.04,0.19,0.11,0.37,0.21,0.52c0.1,0.16,0.23,0.28,0.38,0.38C513.74,220.46,513.93,220.5,514.15,220.5z"/>
	<path d="M520.58,214.96h0.37l1.06,5.71h-0.35l-0.33-1.83h-2.76l-1.1,1.83h-0.4L520.58,214.96z M518.75,218.54h2.52l-0.58-3.22
		L518.75,218.54z"/>
	<path d="M524.82,215.15h2.86l-0.08,0.26H525l-0.74,2.13l0.02,0.02c0.14-0.18,0.33-0.32,0.58-0.43s0.5-0.16,0.75-0.16
		c0.5,0,0.89,0.13,1.18,0.4s0.44,0.66,0.44,1.18c0,0.31-0.05,0.61-0.14,0.88s-0.23,0.5-0.41,0.7s-0.39,0.36-0.65,0.47
		c-0.25,0.11-0.54,0.17-0.84,0.17c-0.29,0-0.54-0.04-0.74-0.12c-0.21-0.08-0.38-0.19-0.52-0.32s-0.24-0.27-0.3-0.42
		c-0.07-0.16-0.1-0.31-0.11-0.46c0-0.11,0-0.19,0-0.26c0.01-0.07,0.01-0.13,0.02-0.2h0.3c-0.01,0.07-0.02,0.13-0.02,0.19
		c0,0.06,0,0.12,0,0.2c0,0.11,0.02,0.23,0.07,0.36c0.05,0.13,0.13,0.25,0.23,0.37c0.11,0.12,0.25,0.21,0.42,0.29
		c0.17,0.08,0.39,0.12,0.64,0.12c0.27,0,0.52-0.05,0.73-0.16c0.22-0.1,0.4-0.24,0.55-0.42s0.26-0.38,0.34-0.6s0.12-0.47,0.12-0.72
		c0-0.21-0.03-0.4-0.1-0.57s-0.16-0.31-0.28-0.43s-0.26-0.21-0.42-0.28c-0.16-0.06-0.33-0.1-0.51-0.1c-0.63,0-1.11,0.25-1.43,0.74
		l-0.33-0.02L524.82,215.15z"/>
	<path d="M530.4,220.77c-0.32,0-0.58-0.06-0.79-0.17c-0.21-0.11-0.37-0.26-0.49-0.45c-0.12-0.18-0.2-0.39-0.25-0.61
		c-0.04-0.22-0.07-0.44-0.07-0.66c0-0.23,0.02-0.49,0.06-0.77c0.04-0.28,0.1-0.56,0.18-0.85c0.08-0.29,0.19-0.56,0.32-0.82
		c0.13-0.26,0.28-0.5,0.46-0.7c0.18-0.21,0.39-0.37,0.62-0.49c0.23-0.12,0.5-0.18,0.79-0.18c0.29,0,0.53,0.05,0.74,0.15
		c0.21,0.1,0.37,0.23,0.5,0.4s0.23,0.37,0.29,0.6c0.06,0.23,0.09,0.47,0.09,0.74c0,0.24-0.02,0.49-0.06,0.77
		c-0.04,0.28-0.1,0.56-0.18,0.84c-0.08,0.28-0.18,0.56-0.31,0.82s-0.28,0.5-0.46,0.71c-0.18,0.21-0.39,0.37-0.63,0.5
		C530.97,220.7,530.7,220.77,530.4,220.77z M530.34,220.5c0.27,0,0.52-0.06,0.73-0.18s0.41-0.28,0.57-0.47
		c0.16-0.19,0.3-0.42,0.42-0.67c0.11-0.25,0.21-0.51,0.28-0.77c0.07-0.26,0.13-0.52,0.16-0.78c0.03-0.26,0.05-0.49,0.05-0.7
		c0-0.22-0.02-0.43-0.06-0.63s-0.11-0.37-0.22-0.52s-0.24-0.26-0.4-0.34c-0.17-0.08-0.37-0.12-0.62-0.12c-0.34,0-0.64,0.1-0.9,0.3
		c-0.27,0.2-0.49,0.47-0.68,0.8c-0.18,0.33-0.32,0.71-0.42,1.14c-0.1,0.43-0.14,0.86-0.14,1.31c0,0.19,0.02,0.38,0.06,0.58
		c0.04,0.19,0.11,0.37,0.21,0.52c0.1,0.16,0.23,0.28,0.38,0.38C529.92,220.46,530.11,220.5,530.34,220.5z"/>
	<path d="M537.74,216.55c0-0.42-0.11-0.73-0.32-0.93c-0.21-0.2-0.52-0.3-0.93-0.3c-0.23,0-0.43,0.04-0.62,0.12
		c-0.18,0.08-0.34,0.19-0.48,0.34c-0.14,0.14-0.26,0.3-0.37,0.48c-0.11,0.18-0.2,0.37-0.27,0.57c-0.08,0.2-0.14,0.4-0.19,0.6
		c-0.05,0.2-0.1,0.39-0.14,0.56l0.02,0.02c0.16-0.32,0.38-0.56,0.66-0.73c0.28-0.17,0.6-0.25,0.96-0.25c0.24,0,0.46,0.04,0.66,0.12
		s0.37,0.19,0.52,0.34c0.14,0.14,0.26,0.32,0.34,0.52s0.12,0.42,0.12,0.66c0,0.28-0.04,0.55-0.14,0.8s-0.22,0.48-0.39,0.67
		s-0.37,0.35-0.61,0.46c-0.24,0.12-0.51,0.17-0.8,0.17c-0.3,0-0.56-0.05-0.77-0.14c-0.22-0.09-0.39-0.22-0.53-0.39
		c-0.14-0.17-0.24-0.36-0.31-0.6c-0.07-0.23-0.1-0.48-0.1-0.76c0-0.24,0.02-0.5,0.06-0.78c0.04-0.28,0.1-0.56,0.18-0.85
		c0.08-0.28,0.19-0.56,0.32-0.82c0.13-0.26,0.29-0.5,0.47-0.7c0.18-0.21,0.4-0.37,0.64-0.49c0.24-0.12,0.52-0.18,0.82-0.18
		c0.47,0,0.84,0.13,1.1,0.38c0.27,0.26,0.4,0.63,0.4,1.11H537.74z M535.77,220.5c0.26,0,0.49-0.05,0.7-0.16
		c0.2-0.1,0.37-0.24,0.51-0.42c0.14-0.17,0.24-0.37,0.31-0.59c0.07-0.22,0.11-0.45,0.11-0.69c0-0.21-0.04-0.4-0.11-0.57
		c-0.07-0.17-0.17-0.31-0.3-0.43c-0.12-0.12-0.27-0.21-0.45-0.27c-0.17-0.06-0.36-0.09-0.56-0.09c-0.24,0-0.46,0.05-0.66,0.15
		s-0.37,0.23-0.52,0.4c-0.14,0.17-0.25,0.36-0.33,0.57c-0.08,0.22-0.12,0.44-0.12,0.67c0,0.21,0.03,0.41,0.1,0.58
		c0.07,0.18,0.16,0.33,0.28,0.45c0.12,0.13,0.27,0.22,0.44,0.29C535.35,220.47,535.55,220.5,535.77,220.5z"/>
	<path d="M539.85,216.81c0.04-0.26,0.11-0.49,0.2-0.7c0.1-0.21,0.23-0.4,0.38-0.56s0.34-0.28,0.56-0.36
		c0.21-0.08,0.45-0.13,0.72-0.13c0.2,0,0.4,0.03,0.59,0.09s0.36,0.15,0.5,0.26c0.14,0.11,0.26,0.26,0.34,0.42s0.13,0.36,0.13,0.58
		c0,0.19-0.03,0.37-0.1,0.53c-0.06,0.16-0.15,0.3-0.27,0.42c-0.11,0.12-0.25,0.22-0.41,0.29c-0.16,0.07-0.33,0.12-0.52,0.13v0.02
		c0.29,0.05,0.51,0.18,0.67,0.41c0.16,0.22,0.24,0.48,0.24,0.78c0,0.29-0.05,0.54-0.15,0.76c-0.1,0.22-0.24,0.4-0.42,0.55
		c-0.18,0.15-0.39,0.26-0.64,0.34s-0.5,0.12-0.79,0.13c-0.51,0-0.92-0.14-1.23-0.42c-0.31-0.27-0.46-0.68-0.46-1.22
		c0-0.05,0-0.1,0.01-0.15c0-0.05,0.01-0.1,0.02-0.15h0.3c-0.02,0.1-0.02,0.19-0.02,0.3c0,0.43,0.12,0.77,0.37,1.01
		c0.25,0.24,0.6,0.36,1.07,0.36c0.22,0,0.44-0.03,0.64-0.1c0.2-0.07,0.37-0.17,0.52-0.29c0.15-0.12,0.26-0.28,0.35-0.46
		s0.13-0.38,0.13-0.6c0-0.24-0.04-0.43-0.12-0.58s-0.19-0.26-0.33-0.34s-0.31-0.13-0.51-0.16s-0.42-0.04-0.66-0.04l0.06-0.26
		c0.21,0,0.43-0.01,0.65-0.04c0.23-0.02,0.44-0.08,0.63-0.16s0.35-0.2,0.48-0.36c0.13-0.16,0.19-0.37,0.19-0.64
		c0-0.19-0.03-0.35-0.1-0.49c-0.07-0.14-0.16-0.26-0.28-0.36c-0.12-0.1-0.25-0.17-0.41-0.22s-0.32-0.07-0.5-0.07
		c-0.22,0-0.42,0.04-0.59,0.12c-0.17,0.08-0.32,0.18-0.45,0.32c-0.13,0.13-0.23,0.29-0.32,0.47c-0.08,0.18-0.14,0.38-0.18,0.58
		H539.85z"/>
</g>
</svg>
