<?xml version="1.0" encoding="utf-8"?>
<!-- Generator: Adobe Illustrator 25.4.1, SVG Export Plug-In . SVG Version: 6.00 Build 0)  -->
<svg version="1.1" id="Calque_1" xmlns="http://www.w3.org/2000/svg" xmlns:xlink="http://www.w3.org/1999/xlink" x="0px" y="0px"
	 width="33.09px" height="33.09px" viewBox="0 0 33.09 33.09" style="enable-background:new 0 0 33.09 33.09;" xml:space="preserve"
	>
<style type="text/css">
	.st0{fill:#D82A19;}
	.st1{fill:#F4E9DC;}
</style>
<circle class="st0" cx="16.54" cy="16.54" r="16.54"/>
<g>
	<g>
		<path class="st1" d="M18.97,24.81H14.1l0.07-0.65c0.12-1.08,0.25-2.31,0.06-2.49c-0.31,0.05-0.87,1.33-1.37,2.46l-0.3,0.68h-1.42
			l0.7-1.42c0.87-1.78,1.86-3.8,2.36-4.64c0.42-0.71,1.23-1.1,2.21-1.09c0.98,0.01,1.87,0.44,2.22,1.05l0,0
			c0.31,0.55,0.43,2.54,0.36,5.92L18.97,24.81z M14.49,24.45h4.13c0.08-4.19-0.17-5.28-0.32-5.56l0,0c-0.28-0.5-1.06-0.85-1.91-0.87
			c-0.86-0.02-1.54,0.32-1.9,0.91c-0.49,0.82-1.48,2.83-2.35,4.61l-0.44,0.9h0.62l0.21-0.46c0.77-1.74,1.16-2.59,1.61-2.67
			c0.16-0.03,0.27,0.03,0.34,0.09c0.31,0.29,0.23,1.15,0.06,2.79L14.49,24.45z"/>
		<path class="st1" d="M9.71,24.81H8.13l0.01-1.33c0.77-2.04,1.55-4.03,1.64-4.25c0.04-0.1,0.39-0.97,0.1-1.49
			c-0.11-0.2-0.3-0.31-0.58-0.36c-0.22-0.03-0.51,0.11-0.88,0.41l-0.29,0.24V11.3l0.11-0.05c0.97-0.42,1.93-0.68,2.86-0.77
			c1.71-0.17,2.88,0.17,3.5,1.03c1.12,1.56-0.05,4.19-0.1,4.3L9.71,24.81z M8.49,24.45h1l4.68-8.8c0.01-0.02,1.13-2.55,0.13-3.94
			c-0.54-0.74-1.6-1.04-3.17-0.88c-0.86,0.09-1.75,0.32-2.65,0.7v5.75c0.33-0.22,0.62-0.31,0.87-0.26c0.39,0.07,0.67,0.25,0.83,0.54
			c0.36,0.65,0,1.61-0.08,1.8c-0.09,0.22-0.86,2.19-1.62,4.21V24.45z"/>
	</g>
	<path class="st1" d="M24.05,24.81H8.13V9.48h4.56c0.87,0,1.9-0.09,3-0.19c3.25-0.3,6.94-0.63,8.52,1.22
		c1.18,1.38,0.68,4.38,0.24,7.02c-0.21,1.25-0.41,2.43-0.41,3.32V24.81z M8.49,24.45h15.2v-3.61c0-0.92,0.2-2.11,0.41-3.38
		c0.43-2.56,0.91-5.47-0.16-6.73c-1.46-1.71-5.05-1.38-8.22-1.09c-1.11,0.1-2.15,0.2-3.03,0.2h-4.2V24.45z"/>
</g>
</svg>
