<?xml version="1.0" encoding="utf-8"?>
<!-- Generator: Adobe Illustrator 25.4.1, SVG Export Plug-In . SVG Version: 6.00 Build 0)  -->
<svg version="1.1" id="Calque_1" xmlns="http://www.w3.org/2000/svg" xmlns:xlink="http://www.w3.org/1999/xlink" x="0px" y="0px"
	 width="89.22px" height="89.22px" viewBox="0 0 89.22 89.22" style="enable-background:new 0 0 89.22 89.22;" xml:space="preserve"
	>
<style type="text/css">
	.st0{fill:#D82A19;}
	.st1{fill:#F4E9DC;}
</style>
<circle class="st0" cx="44.61" cy="44.61" r="44.61"/>
<g>
	<g>
		<path class="st1" d="M51.16,66.91H38.01l0.19-1.76c0.32-2.92,0.67-6.22,0.16-6.7c-0.83,0.14-2.36,3.59-3.71,6.64l-0.81,1.82H30
			l1.88-3.82c2.36-4.81,5.03-10.26,6.37-12.5c1.14-1.9,3.32-2.98,5.96-2.93c2.65,0.04,5.05,1.18,5.98,2.83l0,0
			c0.83,1.49,1.16,6.85,0.98,15.95L51.16,66.91z M39.09,65.94h11.12c0.21-11.31-0.45-14.25-0.87-14.99l0,0
			c-0.75-1.34-2.87-2.3-5.15-2.33c-2.33-0.06-4.16,0.86-5.12,2.46c-1.33,2.21-3.99,7.64-6.33,12.43l-1.19,2.43h1.66l0.56-1.25
			c2.08-4.7,3.14-6.97,4.33-7.2c0.44-0.09,0.74,0.08,0.91,0.24c0.84,0.77,0.63,3.11,0.15,7.51L39.09,65.94z"/>
		<path class="st1" d="M26.18,66.91h-4.25l0.03-3.58c2.07-5.49,4.17-10.86,4.42-11.47c0.11-0.26,1.04-2.62,0.26-4.01
			c-0.29-0.53-0.8-0.85-1.56-0.97c-0.58-0.09-1.39,0.28-2.36,1.09l-0.79,0.66V30.47l0.29-0.13c2.62-1.13,5.21-1.83,7.71-2.08
			c4.6-0.47,7.77,0.47,9.43,2.78c3.02,4.2-0.15,11.3-0.28,11.6L26.18,66.91z M22.9,65.94h2.7l12.62-23.72
			c0.02-0.04,3.06-6.87,0.36-10.61c-1.44-2.01-4.32-2.81-8.55-2.38c-2.31,0.23-4.71,0.87-7.14,1.88v15.51
			c0.89-0.59,1.66-0.82,2.35-0.71c1.05,0.18,1.8,0.67,2.24,1.46c0.97,1.75-0.01,4.35-0.22,4.85c-0.25,0.6-2.32,5.9-4.38,11.36V65.94
			z"/>
	</g>
	<path class="st1" d="M64.86,66.91H21.94V25.56h12.29c2.34,0,5.13-0.25,8.09-0.52c8.77-0.8,18.71-1.7,22.98,3.28
		c3.19,3.73,1.85,11.8,0.66,18.92c-0.56,3.37-1.09,6.56-1.09,8.95V66.91z M22.9,65.94h41V56.2c0-2.47,0.54-5.7,1.11-9.11
		c1.15-6.91,2.46-14.75-0.44-18.14c-3.95-4.61-13.62-3.73-22.16-2.95c-2.98,0.27-5.8,0.53-8.18,0.53H22.9V65.94z"/>
</g>
</svg>
