<svg id="Calque_1" data-name="Calque 1" xmlns="http://www.w3.org/2000/svg" viewBox="0 0 71.38 69.96"><defs><style>.cls-1{fill:#d82a19;}</style></defs><path class="cls-1" d="M8.74,47.59a2.71,2.71,0,0,1,2.93.12A4.55,4.55,0,0,1,12.93,49a4.62,4.62,0,0,1,.78,1.82,3.28,3.28,0,0,1-.16,1.78,3.08,3.08,0,0,1-1.22,1.47,3.22,3.22,0,0,1-1.8.61,3.45,3.45,0,0,1-1.74-.48,5,5,0,0,1-2.17-3,3,3,0,0,1,.06-1.52,2.64,2.64,0,0,1,.86-1.24l.76,1.1a2,2,0,0,0-.42,1.27,2.42,2.42,0,0,0,.47,1.35,2.84,2.84,0,0,0,.87.82,2,2,0,0,0,1.09.28,2.15,2.15,0,0,0,1.17-.41,2.09,2.09,0,0,0,.81-1,2,2,0,0,0,.13-1.12,2.75,2.75,0,0,0-.46-1.1,2.47,2.47,0,0,0-1.12-1,2.05,2.05,0,0,0-1.34,0Z"/><path class="cls-1" d="M2.12,48.44l-.57-1.35,8.37-3.51.57,1.36Z"/><path class="cls-1" d="M0,42.82l1.35-.38.48,1.69-1.35.38Zm3.09.81-.4-1.42,6.23-1.76.4,1.42Z"/><path class="cls-1" d="M1.48,32.25l9.06-.52.08,1.47L3,33.63H1.53Zm6.85,3.84A3.3,3.3,0,0,1,8,37.75,3.14,3.14,0,0,1,6.88,39a3.45,3.45,0,0,1-1.73.54,3.53,3.53,0,0,1-1.78-.34,3.26,3.26,0,0,1-1.26-1.1,3.46,3.46,0,0,1-.34-3,2.26,2.26,0,0,1,.67-.94,3,3,0,0,1,1-.54,5.36,5.36,0,0,1,1.32-.22,3.64,3.64,0,0,1,1.14.09A3.52,3.52,0,0,1,7,33.92a2.53,2.53,0,0,1,.87.85A2.72,2.72,0,0,1,8.33,36.09ZM7.11,35.7a2.66,2.66,0,0,0-.36-1.23,2,2,0,0,0-.82-.74,2.4,2.4,0,0,0-1.12-.2,2.37,2.37,0,0,0-1.16.34,1.91,1.91,0,0,0-.71.83A2.63,2.63,0,0,0,2.75,36a2.14,2.14,0,0,0,.7,1.59A2.2,2.2,0,0,0,5.06,38a2.19,2.19,0,0,0,1.11-.34,2,2,0,0,0,.72-.82A2.24,2.24,0,0,0,7.11,35.7Z"/><path class="cls-1" d="M6.44,24.41l.4.08A4.14,4.14,0,0,1,8,25.17a3.24,3.24,0,0,1,.61.67,2.61,2.61,0,0,1,.38.89,2.64,2.64,0,0,1,0,1.12,4.3,4.3,0,0,1-.35.9,2.71,2.71,0,0,1-.61.74,2.08,2.08,0,0,1-1,.41,3,3,0,0,1-1.27-.08l-3.92-1,.36-1.43,3.65.93a2.11,2.11,0,0,0,1,.05A1.08,1.08,0,0,0,7.43,28a2.13,2.13,0,0,0,.35-.8,2,2,0,0,0,0-1.22,2.85,2.85,0,0,0-1.32-1.52Zm3.33-.6-.36,1.43L3.13,23.65l.36-1.43Z"/><path class="cls-1" d="M11.23,16.87,12,15.66a2.3,2.3,0,0,1,.74,1.05,2.94,2.94,0,0,1,.12,1.38,4.39,4.39,0,0,1-.61,1.6,4.63,4.63,0,0,1-1.38,1.51,3.14,3.14,0,0,1-3.5.1A3.24,3.24,0,0,1,6,20a3.28,3.28,0,0,1-.3-1.8,4.54,4.54,0,0,1,.66-1.92,4.2,4.2,0,0,1,1.35-1.46,2.57,2.57,0,0,1,1.64-.38,4.37,4.37,0,0,1,1.92.78l-2.94,5a2.15,2.15,0,0,0,1,.19,2,2,0,0,0,1-.35,2.75,2.75,0,0,0,.83-.9,2.44,2.44,0,0,0,.38-1.25A1.51,1.51,0,0,0,11.23,16.87Zm-3.87.05A2.34,2.34,0,0,0,7,18.4a1.91,1.91,0,0,0,.57,1.2L9.69,16a1.49,1.49,0,0,0-1.27-.06A2.11,2.11,0,0,0,7.36,16.92Z"/><path class="cls-1" d="M15.08,8.16l-.31,6.59-.43-.2L18,11.1l.81.85-4.42,4.19-.81-.84.32-6.62.45.21-3.6,3.42-.82-.86L14.3,7.31Z"/><path class="cls-1" d="M20,3.55l1.32-.49L22,4.53l2.66,7-1.4.47Zm6.29,4.69a2.71,2.71,0,0,1-1.38.19A2.41,2.41,0,0,1,23.82,8,3.4,3.4,0,0,1,23,7.13a4.24,4.24,0,0,1-.55-1,6.55,6.55,0,0,1-.34-1.3,3.07,3.07,0,0,1,.07-1.17,2.2,2.2,0,0,1,.58-1,3.43,3.43,0,0,1,2.88-.91,3.08,3.08,0,0,1,1.52.7,3.45,3.45,0,0,1,1,1.49,3.46,3.46,0,0,1,.22,1.8,3.32,3.32,0,0,1-.68,1.53,3.14,3.14,0,0,1-1.38,1Zm-.84-1a2.27,2.27,0,0,0,1-.67,1.87,1.87,0,0,0,.45-1,2.38,2.38,0,0,0-.14-1.15,2.31,2.31,0,0,0-1.1-1.28,2.11,2.11,0,0,0-1.74,0,2.52,2.52,0,0,0-1,.67,2,2,0,0,0-.51,1A2.27,2.27,0,0,0,22.55,6,2.28,2.28,0,0,0,23.2,7a2,2,0,0,0,1,.45,2.54,2.54,0,0,0,1.28-.13Z"/><path class="cls-1" d="M33.7,6.76a4.7,4.7,0,0,1-2-.28,3.12,3.12,0,0,1-1.42-1.06,3.24,3.24,0,0,1-.61-1.8,3.32,3.32,0,0,1,.39-1.85A3.22,3.22,0,0,1,31.38.53,4.45,4.45,0,0,1,33.3,0a4.41,4.41,0,0,1,2,.29,3.19,3.19,0,0,1,1.41,1.08,3.28,3.28,0,0,1,.6,1.79A3.37,3.37,0,0,1,36.9,5a3.2,3.2,0,0,1-1.28,1.22A4.46,4.46,0,0,1,33.7,6.76Zm-.07-1.18a2.67,2.67,0,0,0,1.14-.32,2.14,2.14,0,0,0,.79-.79,2.12,2.12,0,0,0,.24-1.21,2.14,2.14,0,0,0-.38-1.17,2.16,2.16,0,0,0-.87-.71,2.64,2.64,0,0,0-1.18-.19,2.51,2.51,0,0,0-1.13.33,2.05,2.05,0,0,0-.8.8,2.3,2.3,0,0,0-.25,1.21,2.13,2.13,0,0,0,.39,1.17,2,2,0,0,0,.88.69A2.6,2.6,0,0,0,33.63,5.58Z"/><path class="cls-1" d="M44.39,4.82l-.09.41a2.43,2.43,0,0,1-.22.46A3.91,3.91,0,0,1,43,7a2.31,2.31,0,0,1-.9.38A2.27,2.27,0,0,1,41,7.3,3.27,3.27,0,0,1,40.1,7a2.51,2.51,0,0,1-.74-.6,2.05,2.05,0,0,1-.42-.91A3.07,3.07,0,0,1,39,4.17L40,.24l1.43.35-.89,3.66a2.11,2.11,0,0,0,0,1,1,1,0,0,0,.44.61,2.28,2.28,0,0,0,.8.34A2.08,2.08,0,0,0,43,6.2a2.55,2.55,0,0,0,.94-.58A2.78,2.78,0,0,0,44.39,4.82ZM45,8.14,43.59,7.8l1.52-6.3,1.43.35Z"/><path class="cls-1" d="M49.17,3.05l1.31.66L47.53,9.48l-1.3-.67ZM52,5.89a2.36,2.36,0,0,0-1.22-.28A2.69,2.69,0,0,0,49,6.43l.32-.65a2.33,2.33,0,0,1,.27-.35A4.15,4.15,0,0,1,50.1,5a3.36,3.36,0,0,1,.71-.41,2.1,2.1,0,0,1,1.83.1Z"/><path class="cls-1" d="M55.82,14.36,55.46,14l5.48-2.15L62.05,13l-6.67,2.4-1-1,2.69-6.54L58.23,9Z"/><path class="cls-1" d="M59.15,21a4.72,4.72,0,0,1-.58-1.9,3.1,3.1,0,0,1,.37-1.74A3.18,3.18,0,0,1,60.32,16a3.32,3.32,0,0,1,1.85-.42,3.25,3.25,0,0,1,1.66.65,4.62,4.62,0,0,1,1.28,1.53,4.36,4.36,0,0,1,.56,1.9,3.44,3.44,0,0,1-3.42,3.46h-.2a3.06,3.06,0,0,1-1.64-.64A4.61,4.61,0,0,1,59.15,21Zm1-.56a2.78,2.78,0,0,0,.77.9,1.92,1.92,0,0,0,1,.38A2.39,2.39,0,0,0,64,20.6a2.16,2.16,0,0,0,.29-1.08A2.71,2.71,0,0,0,64,18.37a2.57,2.57,0,0,0-.78-.89,2,2,0,0,0-1.06-.39A2.39,2.39,0,0,0,60,18.21a2,2,0,0,0-.25,1.09,2.58,2.58,0,0,0,.41,1.13Z"/><path class="cls-1" d="M67.44,23.68l.41,1.43-6.21,1.81-.41-1.43Zm3.1.8-1.35.39-.49-1.69,1.35-.39Z"/><path class="cls-1" d="M68.46,27.66l.2,1.45L62.24,30l-.19-1.46Zm-.72,3.95a2.45,2.45,0,0,0-.46-1.16,2.7,2.7,0,0,0-.83-.71,2.42,2.42,0,0,0-.87-.29l.72-.11a1.69,1.69,0,0,1,.45,0,3.82,3.82,0,0,1,.67.15,3.3,3.3,0,0,1,.73.36,2.07,2.07,0,0,1,.63.62,2.23,2.23,0,0,1,.34.93Z"/><path class="cls-1" d="M71.38,37.62l-.18,1.45-9-1.15.18-1.45Z"/><path class="cls-1" d="M62.34,45.36l-.47,1.34a2.49,2.49,0,0,1-.94-.88,2.78,2.78,0,0,1-.39-1.32,4.46,4.46,0,0,1,.27-1.7,4.61,4.61,0,0,1,1-1.76,3.34,3.34,0,0,1,1.54-.92,3.19,3.19,0,0,1,1.86.11,3.28,3.28,0,0,1,1.54,1.05,3.14,3.14,0,0,1,.68,1.65,4.53,4.53,0,0,1-.25,2,4.12,4.12,0,0,1-1,1.71,2.61,2.61,0,0,1-1.53.7,4.3,4.3,0,0,1-2-.37l1.87-5.45a2.08,2.08,0,0,0-1.94.57,2.67,2.67,0,0,0-.62,1,2.4,2.4,0,0,0-.13,1.3A1.47,1.47,0,0,0,62.34,45.36Zm3.77-.83A2.3,2.3,0,0,0,66.18,43a1.89,1.89,0,0,0-.8-1.06l-1.36,4a1.48,1.48,0,0,0,1.26-.2A2.15,2.15,0,0,0,66.11,44.53Z"/><path class="cls-1" d="M54.86,52.49A2.67,2.67,0,0,1,56,51.7a2.45,2.45,0,0,1,1.2-.11,3.87,3.87,0,0,1,1.15.37,4.42,4.42,0,0,1,.94.66,4.93,4.93,0,0,1,.88,1,2.89,2.89,0,0,1,.47,1.08,2.24,2.24,0,0,1-.06,1.15A3.4,3.4,0,0,1,56.76,58a3.69,3.69,0,0,1-2.6-2.37A3.11,3.11,0,0,1,54.08,54,3.22,3.22,0,0,1,54.86,52.49Zm7.73,1.34-1,1-1.22-1-5.53-5,1-1.09ZM56,53a2.26,2.26,0,0,0-.56,1,2,2,0,0,0,0,1.09,2.51,2.51,0,0,0,2.21,1.6,2.12,2.12,0,0,0,1.54-.79,2.62,2.62,0,0,0,.6-1,2.13,2.13,0,0,0,0-1.12,2.46,2.46,0,0,0-1.68-1.56,2.05,2.05,0,0,0-1.1.06A2.6,2.6,0,0,0,56,53Z"/><path class="cls-1" d="M55.44,60.82l-1.22.82-3.61-5.38,1.23-.82Zm-3.87,1.09a2.32,2.32,0,0,0,.84-.92,2.77,2.77,0,0,0,.27-1.06,2.54,2.54,0,0,0-.12-.91l.42.6a2.09,2.09,0,0,1,.17.41,3.11,3.11,0,0,1,.16.67,2.82,2.82,0,0,1,0,.82,2.25,2.25,0,0,1-.27.83,2.29,2.29,0,0,1-.7.72Z"/><path class="cls-1" d="M44.66,59.16a4.72,4.72,0,0,1,2-.31,3.08,3.08,0,0,1,1.67.6,3.64,3.64,0,0,1,1.27,3.43,3.27,3.27,0,0,1-.87,1.56A4.43,4.43,0,0,1,47,65.5a4.56,4.56,0,0,1-2,.3,3.29,3.29,0,0,1-1.67-.63,3.19,3.19,0,0,1-1.09-1.54,3.31,3.31,0,0,1-.18-1.89A3.24,3.24,0,0,1,43,60.2,4.57,4.57,0,0,1,44.66,59.16Zm.42,1.11a2.53,2.53,0,0,0-1,.64,1.94,1.94,0,0,0-.52,1,2.08,2.08,0,0,0,.12,1.23,2.28,2.28,0,0,0,.7,1,2,2,0,0,0,1,.42,2.7,2.7,0,0,0,2.17-.8A2.07,2.07,0,0,0,48,61.51a2.13,2.13,0,0,0-.7-1,2.15,2.15,0,0,0-1-.41A2.68,2.68,0,0,0,45.08,60.27Z"/><path class="cls-1" d="M40.84,67l-1.45.21-1.31-9L39.54,58Zm-1.19,3-.2-1.39,1.74-.25.2,1.39Z"/><path class="cls-1" d="M31.36,62.92,30,62.84a2.39,2.39,0,0,1,.59-1.15A3,3,0,0,1,31.72,61a4.27,4.27,0,0,1,1.7-.19,4.65,4.65,0,0,1,2,.53,3.35,3.35,0,0,1,1.26,4.57c-.06.09-.11.18-.17.26a3.13,3.13,0,0,1-1.41,1.1,4.41,4.41,0,0,1-2,.29,4.11,4.11,0,0,1-2-.56,2.49,2.49,0,0,1-1.08-1.29,4.37,4.37,0,0,1-.19-2.06l5.75.35a2.2,2.2,0,0,0-.3-1,2.24,2.24,0,0,0-.77-.73A2.68,2.68,0,0,0,33.37,62a2.46,2.46,0,0,0-1.28.23A1.48,1.48,0,0,0,31.36,62.92Zm1.81,3.42A2.29,2.29,0,0,0,34.66,66a1.91,1.91,0,0,0,.81-1l-4.19-.26a1.48,1.48,0,0,0,.53,1.16A2.21,2.21,0,0,0,33.17,66.34Z"/><path class="cls-1" d="M27.7,66.66l-4.41-1.35.34-1.14,4.42,1.34Zm-2,1.21-1.41-.43,2.4-7.86,1.4.43Z"/><path class="cls-1" d="M19.05,60.62l-3.4-2.38.67-1,3.4,2.38Z"/></svg>