<?xml version="1.0" encoding="utf-8"?>
<!-- Generator: Adobe Illustrator 25.4.1, SVG Export Plug-In . SVG Version: 6.00 Build 0)  -->
<svg version="1.1" id="Calque_1" xmlns="http://www.w3.org/2000/svg" xmlns:xlink="http://www.w3.org/1999/xlink" x="0px" y="0px"
	 viewBox="0 0 71.4 70" style="enable-background:new 0 0 71.4 70;" xml:space="preserve">
<style type="text/css">
	.st0{fill:#D82A19;}
	.st1{fill:#1D1D1B;}
</style>
<path class="st1" d="M8.7,47.6c0.9-0.5,2.1-0.5,2.9,0.1c0.5,0.3,0.9,0.8,1.3,1.3c0.4,0.5,0.7,1.2,0.8,1.8c0.1,0.6,0.1,1.2-0.2,1.8
	c-0.2,0.6-0.7,1.1-1.2,1.5c-0.5,0.4-1.2,0.6-1.8,0.6c-0.6,0-1.2-0.2-1.7-0.5c-1.1-0.7-1.9-1.8-2.2-3c-0.1-0.5-0.1-1,0.1-1.5
	c0.2-0.5,0.5-0.9,0.9-1.2l0.8,1.1c-0.3,0.4-0.4,0.8-0.4,1.3c0,0.5,0.2,1,0.5,1.3c0.2,0.3,0.5,0.6,0.9,0.8c0.3,0.2,0.7,0.3,1.1,0.3
	c0.4,0,0.8-0.2,1.2-0.4c0.4-0.2,0.7-0.6,0.8-1c0.1-0.4,0.2-0.7,0.1-1.1c-0.1-0.4-0.2-0.8-0.5-1.1c-0.3-0.4-0.7-0.8-1.1-1
	c-0.4-0.2-0.9-0.2-1.3,0L8.7,47.6z"/>
<path class="st1" d="M2.1,48.4l-0.6-1.3l8.4-3.5l0.6,1.4L2.1,48.4z"/>
<path class="st1" d="M0,42.8l1.4-0.4l0.5,1.7l-1.4,0.4L0,42.8z M3.1,43.6l-0.4-1.4l6.2-1.8l0.4,1.4L3.1,43.6z"/>
<path class="st1" d="M1.5,32.2l9.1-0.5l0.1,1.5L3,33.6H1.5L1.5,32.2z M8.3,36.1c0,0.6-0.1,1.1-0.3,1.7c-0.3,0.5-0.6,0.9-1.1,1.2
	c-0.5,0.3-1.1,0.5-1.7,0.5c-0.6,0-1.2-0.1-1.8-0.3c-0.5-0.2-0.9-0.6-1.3-1.1c-0.6-0.9-0.7-2-0.3-3c0.1-0.4,0.4-0.7,0.7-0.9
	c0.3-0.2,0.6-0.4,1-0.5c0.4-0.1,0.9-0.2,1.3-0.2c0.4,0,0.8,0,1.1,0.1c0.4,0.1,0.8,0.2,1.1,0.4c0.4,0.2,0.7,0.5,0.9,0.8
	C8.2,35.2,8.3,35.6,8.3,36.1z M7.1,35.7c0-0.4-0.1-0.9-0.4-1.2c-0.2-0.3-0.5-0.6-0.8-0.7c-0.4-0.2-0.7-0.2-1.1-0.2
	c-0.4,0-0.8,0.1-1.2,0.3c-0.3,0.2-0.6,0.5-0.7,0.8c-0.2,0.4-0.2,0.9-0.2,1.3c0,0.6,0.3,1.2,0.7,1.6c0.5,0.3,1,0.5,1.6,0.4
	c0.4,0,0.8-0.1,1.1-0.3c0.3-0.2,0.6-0.5,0.7-0.8C7.1,36.5,7.1,36.1,7.1,35.7z"/>
<path class="st1" d="M6.4,24.4l0.4,0.1c0.2,0.1,0.3,0.1,0.5,0.2c0.2,0.1,0.4,0.3,0.6,0.5c0.2,0.2,0.4,0.4,0.6,0.7
	c0.2,0.3,0.3,0.6,0.4,0.9c0.1,0.4,0.1,0.8,0,1.1c-0.1,0.3-0.2,0.6-0.4,0.9C8.4,29,8.2,29.3,8,29.5c-0.3,0.2-0.6,0.4-1,0.4
	c-0.4,0.1-0.9,0-1.3-0.1l-3.9-1l0.4-1.4l3.7,0.9c0.3,0.1,0.7,0.1,1,0c0.2-0.1,0.5-0.2,0.6-0.4c0.2-0.2,0.3-0.5,0.3-0.8
	c0.1-0.4,0.1-0.8,0-1.2C7.5,25.3,7.1,24.8,6.4,24.4L6.4,24.4z M9.8,23.8l-0.4,1.4l-6.3-1.6l0.4-1.4L9.8,23.8z"/>
<path class="st1" d="M11.2,16.9l0.8-1.2c0.3,0.3,0.6,0.6,0.7,1c0.2,0.4,0.2,0.9,0.1,1.4c-0.1,0.6-0.3,1.1-0.6,1.6
	c-0.3,0.6-0.8,1.1-1.4,1.5c-1,0.7-2.4,0.8-3.5,0.1C6.8,21,6.3,20.6,6,20c-0.3-0.6-0.4-1.2-0.3-1.8c0.1-0.7,0.3-1.3,0.7-1.9
	c0.3-0.6,0.8-1.1,1.3-1.5c0.5-0.3,1.1-0.4,1.6-0.4c0.7,0.1,1.4,0.4,1.9,0.8l-2.9,5c0.3,0.1,0.7,0.2,1,0.2c0.4,0,0.7-0.1,1-0.4
	c0.3-0.2,0.6-0.5,0.8-0.9c0.2-0.4,0.4-0.8,0.4-1.2C11.6,17.5,11.5,17.2,11.2,16.9z M7.4,16.9c-0.3,0.4-0.4,1-0.4,1.5
	c0,0.5,0.2,0.9,0.6,1.2L9.7,16c-0.4-0.2-0.9-0.2-1.3-0.1C8,16.1,7.6,16.5,7.4,16.9z"/>
<path class="st1" d="M15.1,8.2l-0.3,6.6l-0.4-0.2l3.7-3.4l0.8,0.9l-4.4,4.2l-0.8-0.8l0.3-6.6l0.4,0.2l-3.6,3.4l-0.8-0.9l4.4-4.1
	L15.1,8.2z"/>
<path class="st1" d="M20,3.5l1.3-0.5L22,4.5l2.7,7L23.3,12L20,3.5z M26.3,8.2c-0.4,0.2-0.9,0.3-1.4,0.2c-0.4-0.1-0.8-0.2-1.1-0.4
	c-0.3-0.2-0.6-0.5-0.8-0.9c-0.2-0.3-0.4-0.6-0.5-1c-0.2-0.4-0.3-0.9-0.3-1.3c-0.1-0.4,0-0.8,0.1-1.2c0.1-0.4,0.3-0.7,0.6-1
	c0.8-0.7,1.8-1.1,2.9-0.9c0.6,0.1,1.1,0.3,1.5,0.7c0.5,0.4,0.8,0.9,1,1.5c0.2,0.6,0.3,1.2,0.2,1.8c-0.1,0.6-0.3,1.1-0.7,1.5
	C27.3,7.7,26.9,8,26.3,8.2L26.3,8.2z M25.5,7.2c0.4-0.1,0.7-0.4,1-0.7c0.2-0.3,0.4-0.6,0.5-1c0.1-0.4,0-0.8-0.1-1.2
	c-0.2-0.6-0.6-1-1.1-1.3c-0.6-0.2-1.2-0.2-1.7,0c-0.4,0.1-0.7,0.4-1,0.7c-0.3,0.3-0.4,0.6-0.5,1c-0.1,0.4,0,0.8,0.1,1.2
	c0.1,0.4,0.4,0.7,0.6,0.9c0.3,0.2,0.6,0.4,1,0.4C24.6,7.5,25.1,7.4,25.5,7.2L25.5,7.2z"/>
<path class="st1" d="M33.7,6.8c-0.7,0.1-1.4,0-2-0.3c-0.6-0.2-1.1-0.6-1.4-1.1c-0.4-0.5-0.6-1.2-0.6-1.8c-0.1-0.6,0.1-1.3,0.4-1.9
	c0.3-0.5,0.8-1,1.3-1.2C32,0.2,32.6,0,33.3,0c0.7-0.1,1.4,0,2,0.3c0.6,0.2,1.1,0.6,1.4,1.1c0.4,0.5,0.6,1.1,0.6,1.8
	c0,0.6-0.1,1.3-0.4,1.8c-0.3,0.5-0.7,0.9-1.3,1.2C35,6.5,34.4,6.7,33.7,6.8z M33.6,5.6c0.4,0,0.8-0.1,1.1-0.3
	c0.3-0.2,0.6-0.5,0.8-0.8c0.2-0.4,0.3-0.8,0.2-1.2c0-0.4-0.1-0.8-0.4-1.2c-0.2-0.3-0.5-0.6-0.9-0.7c-0.4-0.2-0.8-0.2-1.2-0.2
	c-0.4,0-0.8,0.1-1.1,0.3c-0.3,0.2-0.6,0.5-0.8,0.8c-0.2,0.4-0.3,0.8-0.2,1.2c0,0.4,0.1,0.8,0.4,1.2c0.2,0.3,0.5,0.6,0.9,0.7
	C32.8,5.5,33.2,5.6,33.6,5.6z"/>
<path class="st1" d="M44.4,4.8l-0.1,0.4c-0.1,0.2-0.1,0.3-0.2,0.5c-0.3,0.5-0.6,1-1.1,1.3c-0.3,0.2-0.6,0.3-0.9,0.4
	c-0.4,0.1-0.7,0-1.1-0.1c-0.3-0.1-0.6-0.2-0.9-0.3c-0.3-0.2-0.5-0.4-0.7-0.6c-0.2-0.3-0.4-0.6-0.4-0.9C38.9,5,38.9,4.6,39,4.2l1-3.9
	l1.4,0.4l-0.9,3.7c-0.1,0.3-0.1,0.7,0,1c0.1,0.2,0.2,0.5,0.4,0.6c0.2,0.2,0.5,0.3,0.8,0.3c0.4,0.1,0.8,0.1,1.2,0
	c0.4-0.1,0.7-0.3,0.9-0.6C44.1,5.4,44.3,5.1,44.4,4.8z M45,8.1l-1.4-0.3l1.5-6.3l1.4,0.4L45,8.1z"/>
<path class="st1" d="M49.2,3l1.3,0.7l-3,5.8l-1.3-0.7L49.2,3z M52,5.9c-0.4-0.2-0.8-0.3-1.2-0.3c-0.7,0-1.3,0.3-1.8,0.8l0.3-0.7
	c0.1-0.1,0.2-0.2,0.3-0.3c0.2-0.2,0.3-0.3,0.5-0.4c0.2-0.2,0.5-0.3,0.7-0.4c0.6-0.2,1.3-0.2,1.8,0.1L52,5.9z"/>
<path class="st1" d="M55.8,14.4L55.5,14l5.5-2.1L62,13l-6.7,2.4l-1-1l2.7-6.5L58.2,9L55.8,14.4z"/>
<path class="st1" d="M59.2,21c-0.3-0.6-0.5-1.2-0.6-1.9c0-0.6,0.1-1.2,0.4-1.7c0.3-0.6,0.8-1.1,1.4-1.4c0.6-0.3,1.2-0.5,1.8-0.4
	c0.6,0.1,1.2,0.3,1.7,0.6c0.5,0.4,1,0.9,1.3,1.5c0.3,0.6,0.5,1.2,0.6,1.9c0,1.9-1.5,3.5-3.4,3.5c-0.1,0-0.1,0-0.2,0
	c-0.6,0-1.2-0.3-1.6-0.6C59.9,22.1,59.5,21.6,59.2,21z M60.2,20.4c0.2,0.4,0.5,0.7,0.8,0.9c0.3,0.2,0.6,0.3,1,0.4
	c0.8,0,1.6-0.4,2.1-1.1c0.2-0.3,0.3-0.7,0.3-1.1c0-0.4-0.1-0.8-0.3-1.1c-0.2-0.4-0.5-0.7-0.8-0.9c-0.3-0.2-0.7-0.4-1.1-0.4
	c-0.4,0-0.8,0.1-1.2,0.3c-0.4,0.2-0.7,0.5-0.9,0.8c-0.2,0.3-0.3,0.7-0.2,1.1C59.8,19.7,60,20.1,60.2,20.4L60.2,20.4z"/>
<path class="st1" d="M67.4,23.7l0.4,1.4l-6.2,1.8l-0.4-1.4L67.4,23.7z M70.5,24.5l-1.3,0.4l-0.5-1.7l1.3-0.4L70.5,24.5z"/>
<path class="st1" d="M68.5,27.7l0.2,1.5L62.2,30l-0.2-1.5L68.5,27.7z M67.7,31.6c0-0.4-0.2-0.8-0.5-1.2c-0.2-0.3-0.5-0.5-0.8-0.7
	c-0.3-0.1-0.6-0.2-0.9-0.3l0.7-0.1c0.1,0,0.3,0,0.4,0c0.2,0,0.5,0.1,0.7,0.1c0.3,0.1,0.5,0.2,0.7,0.4c0.3,0.2,0.5,0.4,0.6,0.6
	c0.2,0.3,0.3,0.6,0.3,0.9L67.7,31.6z"/>
<path class="st1" d="M71.4,37.6l-0.2,1.5l-9-1.2l0.2-1.5L71.4,37.6z"/>
<path class="st1" d="M62.3,45.4l-0.5,1.3c-0.4-0.2-0.7-0.5-0.9-0.9c-0.2-0.4-0.4-0.9-0.4-1.3c0-0.6,0.1-1.2,0.3-1.7
	c0.2-0.7,0.5-1.3,1-1.8c0.4-0.4,1-0.8,1.5-0.9c0.6-0.1,1.3-0.1,1.9,0.1c0.6,0.2,1.1,0.6,1.5,1c0.4,0.5,0.6,1,0.7,1.7
	c0.1,0.7,0,1.4-0.2,2c-0.2,0.6-0.5,1.2-1,1.7c-0.4,0.4-1,0.6-1.5,0.7c-0.7,0-1.4-0.1-2-0.4l1.9-5.5c-0.7-0.2-1.4,0.1-1.9,0.6
	c-0.3,0.3-0.5,0.6-0.6,1c-0.2,0.4-0.2,0.9-0.1,1.3C61.9,44.8,62.1,45.1,62.3,45.4z M66.1,44.5c0.2-0.5,0.2-1,0.1-1.5
	c-0.1-0.4-0.4-0.8-0.8-1.1l-1.4,4c0.4,0.1,0.9,0.1,1.3-0.2C65.7,45.4,66,45,66.1,44.5z"/>
<path class="st1" d="M54.9,52.5c0.3-0.4,0.7-0.6,1.1-0.8c0.4-0.1,0.8-0.2,1.2-0.1c0.4,0.1,0.8,0.2,1.2,0.4c0.3,0.2,0.7,0.4,0.9,0.7
	c0.3,0.3,0.6,0.6,0.9,1c0.2,0.3,0.4,0.7,0.5,1.1c0.1,0.4,0.1,0.8-0.1,1.2c-0.2,0.4-0.4,0.8-0.7,1.1c-0.8,0.9-2,1.3-3.1,1
	c-1.2-0.3-2.2-1.2-2.6-2.4C54,55.1,54,54.5,54.1,54C54.2,53.4,54.5,52.9,54.9,52.5z M62.6,53.8l-1,1l-1.2-1l-5.5-5l1-1.1L62.6,53.8z
	 M56,53c-0.3,0.3-0.5,0.6-0.6,1c-0.1,0.4-0.1,0.7,0,1.1c0.4,0.9,1.2,1.6,2.2,1.6c0.6,0,1.2-0.3,1.5-0.8c0.3-0.3,0.5-0.6,0.6-1
	c0.1-0.4,0.1-0.8,0-1.1c-0.3-0.8-0.9-1.4-1.7-1.6c-0.4-0.1-0.7-0.1-1.1,0.1C56.6,52.4,56.3,52.7,56,53z"/>
<path class="st1" d="M55.4,60.8l-1.2,0.8l-3.6-5.4l1.2-0.8L55.4,60.8z M51.6,61.9c0.4-0.2,0.6-0.5,0.8-0.9c0.2-0.3,0.3-0.7,0.3-1.1
	c0-0.3,0-0.6-0.1-0.9l0.4,0.6c0.1,0.1,0.1,0.3,0.2,0.4c0.1,0.2,0.1,0.4,0.2,0.7c0,0.3,0,0.5,0,0.8c0,0.3-0.1,0.6-0.3,0.8
	c-0.2,0.3-0.4,0.5-0.7,0.7L51.6,61.9z"/>
<path class="st1" d="M44.7,59.2c0.6-0.2,1.3-0.4,2-0.3c0.6,0,1.2,0.2,1.7,0.6c1,0.8,1.5,2.1,1.3,3.4c-0.1,0.6-0.4,1.1-0.9,1.6
	c-0.5,0.5-1.1,0.8-1.7,1.1c-0.6,0.2-1.3,0.3-2,0.3c-0.6-0.1-1.2-0.3-1.7-0.6c-0.5-0.4-0.9-0.9-1.1-1.5c-0.2-0.6-0.3-1.3-0.2-1.9
	c0.2-0.6,0.5-1.1,0.9-1.5C43.5,59.7,44,59.4,44.7,59.2z M45.1,60.3c-0.4,0.1-0.7,0.4-1,0.6c-0.3,0.3-0.4,0.6-0.5,1
	c-0.1,0.4,0,0.8,0.1,1.2c0.1,0.4,0.4,0.7,0.7,1c0.3,0.2,0.6,0.4,1,0.4c0.8,0.1,1.6-0.2,2.2-0.8c0.6-0.6,0.8-1.5,0.5-2.2
	c-0.1-0.4-0.4-0.7-0.7-1c-0.3-0.2-0.6-0.4-1-0.4C45.9,60.1,45.5,60.1,45.1,60.3z"/>
<path class="st1" d="M40.8,67l-1.5,0.2l-1.3-9l1.5-0.2L40.8,67z M39.7,70l-0.2-1.4l1.7-0.2l0.2,1.4L39.7,70z"/>
<path class="st1" d="M31.4,62.9L30,62.8c0.1-0.4,0.3-0.8,0.6-1.2c0.3-0.3,0.7-0.5,1.1-0.7c0.5-0.2,1.1-0.2,1.7-0.2
	c0.7,0,1.4,0.2,2,0.5c1.6,0.9,2.2,3,1.3,4.6c-0.1,0.1-0.1,0.2-0.2,0.3c-0.4,0.5-0.8,0.9-1.4,1.1c-0.6,0.2-1.3,0.3-2,0.3
	c-0.7,0-1.4-0.2-2-0.6c-0.5-0.3-0.9-0.7-1.1-1.3c-0.2-0.7-0.3-1.4-0.2-2.1l5.8,0.3c0-0.4-0.1-0.7-0.3-1c-0.2-0.3-0.5-0.6-0.8-0.7
	c-0.4-0.2-0.8-0.3-1.2-0.3c-0.4,0-0.9,0-1.3,0.2C31.8,62.4,31.5,62.6,31.4,62.9z M33.2,66.3c0.5,0.1,1-0.1,1.5-0.3
	c0.4-0.2,0.7-0.6,0.8-1l-4.2-0.3c0,0.4,0.2,0.9,0.5,1.2C32.2,66.2,32.7,66.3,33.2,66.3z"/>
<path class="st1" d="M27.7,66.7l-4.4-1.3l0.3-1.1l4.4,1.3L27.7,66.7z M25.7,67.9l-1.4-0.4l2.4-7.9l1.4,0.4L25.7,67.9z"/>
<path class="st1" d="M19,60.6l-3.4-2.4l0.7-1l3.4,2.4L19,60.6z"/>
</svg>
